<svg width="152" height="90" viewBox="0 0 152 90" fill="none" xmlns="http://www.w3.org/2000/svg">
<g filter="url(#filter0_d_156_5445)">
<path fill-rule="evenodd" clip-rule="evenodd" d="M12 0C7.58172 0 4 3.58172 4 8V62C4 66.4183 7.58173 70 12 70H17.9233C17.9437 70.0776 17.9741 70.1547 18.0152 70.2299L24.1227 81.396C24.502 82.0895 25.498 82.0895 25.8773 81.396L31.9848 70.2299C32.0259 70.1547 32.0563 70.0776 32.0767 70H140C144.418 70 148 66.4183 148 62V8C148 3.58172 144.418 0 140 0H12Z" fill="url(#paint0_linear_156_5445)"/>
<path fill-rule="evenodd" clip-rule="evenodd" d="M36.895 14.5973C36.8378 14.8305 36.7938 15.0099 36.7781 15.1767C36.7475 15.503 36.8188 15.7741 36.9346 16.0184C38.475 15.6554 40.0522 16.3834 40.7909 17.7459C40.8078 17.738 40.8249 17.7301 40.8422 17.7222C41.1713 17.5728 41.6093 17.4274 42.1367 17.477C42.3974 17.5014 42.6677 17.5683 42.8864 17.6224L42.9683 17.6425C43.2262 17.7054 43.4117 17.7433 43.5642 17.7434C43.698 17.7436 43.7576 17.7145 43.8012 17.6759C43.8577 17.6258 43.9638 17.4895 44.0482 17.1315L45.2026 17.4038C45.0873 17.8926 44.8955 18.2909 44.5876 18.5637C44.2667 18.8478 43.8953 18.9298 43.563 18.9294C43.2494 18.9291 42.9338 18.8549 42.6871 18.7947L42.6052 18.7746C42.3721 18.7174 42.1926 18.6734 42.0258 18.6578C41.7851 18.6351 41.5646 18.6967 41.3325 18.8021C41.2777 18.827 41.2256 18.8527 41.1731 18.8795C41.3771 20.1933 40.8079 21.4973 39.748 22.25L39.7504 22.2545C39.8034 22.3548 39.8703 22.4815 39.9314 22.6161C40.0808 22.9452 40.2262 23.3833 40.1767 23.9107C40.1522 24.1713 40.0853 24.4417 40.0313 24.6603L40.0111 24.7422C39.9482 25.0001 39.9104 25.1857 39.9102 25.3382C39.9101 25.4719 39.9391 25.5315 39.9778 25.5751C40.0278 25.6316 40.1641 25.7377 40.5221 25.8222L40.2498 26.9765C39.761 26.8612 39.3627 26.6694 39.0899 26.3615C38.8058 26.0407 38.7238 25.6692 38.7242 25.3369C38.7245 25.0233 38.7987 24.7078 38.8589 24.4611L38.879 24.3792C38.9361 24.1462 38.9802 23.9665 38.9959 23.7998C39.0185 23.5591 38.9569 23.3386 38.8515 23.1064C38.8063 23.0068 38.7585 22.9162 38.7057 22.8162L38.6771 22.7617C37.3433 23.1394 35.9603 22.6842 35.0997 21.6946C34.7335 21.8535 34.2775 21.9688 33.7322 21.9176C33.4716 21.8931 33.2012 21.8263 32.9826 21.7722L32.9007 21.7521C32.6428 21.6891 32.4573 21.6513 32.3047 21.6512C32.171 21.651 32.1114 21.6801 32.0678 21.7187C32.0113 21.7688 31.9052 21.905 31.8207 22.263L30.6664 21.9908C30.7817 21.502 30.9735 21.1036 31.2814 20.8309C31.6022 20.5467 31.9737 20.4648 32.306 20.4652C32.6196 20.4655 32.9351 20.5397 33.1819 20.5999L33.2638 20.6199C33.4969 20.6771 33.6763 20.7212 33.8432 20.7368C34.0811 20.7592 34.2898 20.7273 34.4801 20.6635C34.4538 20.595 34.4294 20.5252 34.4071 20.4543C33.9261 18.924 34.5554 17.3102 35.8419 16.4817C35.672 16.1075 35.5438 15.6353 35.5973 15.0658C35.6218 14.8052 35.6887 14.5348 35.7427 14.3161L35.7629 14.2343C35.8258 13.9764 35.8636 13.7908 35.8638 13.6383C35.8639 13.5046 35.8349 13.445 35.7962 13.4014C35.7462 13.3449 35.6099 13.2388 35.2519 13.1543L35.5242 12C36.013 12.1153 36.4113 12.3071 36.6841 12.615C36.9682 12.9358 37.0502 13.3073 37.0498 13.6396C37.0495 13.9531 36.9753 14.2687 36.9151 14.5154L36.895 14.5973ZM39.9215 18.7209C40.302 19.9312 39.6292 21.2208 38.4189 21.6012C37.2085 21.9817 35.919 21.3089 35.5385 20.0986C35.1581 18.8883 35.8308 17.5987 37.0412 17.2183C38.2515 16.8378 39.5411 17.5106 39.9215 18.7209Z" fill="white"/>
<path fill-rule="evenodd" clip-rule="evenodd" d="M26.5665 26.1331C26.6242 26.0176 26.7108 25.8975 26.8338 25.7267L26.8748 25.6698C27.0002 25.4953 27.1719 25.2535 27.2716 24.9876C27.3809 24.6962 27.4209 24.3294 27.2231 23.957C27.0427 23.6174 26.711 23.3654 26.3013 23.1605L25.7709 24.2213C26.0869 24.3793 26.1633 24.4901 26.1757 24.5134L26.1764 24.5148C26.1759 24.5212 26.1733 24.5389 26.1612 24.5712C26.1248 24.6681 26.0471 24.7892 25.9117 24.9776L25.8698 25.0356C25.757 25.1913 25.6096 25.3948 25.5057 25.6027C25.2581 26.098 25.2506 26.6043 25.321 27C24.1926 27.1386 23.1643 27.601 22.332 28.2914C22.2921 28.2649 22.2594 28.2439 22.2303 28.2251C22.1789 28.192 22.1381 28.1657 22.0883 28.1297C21.9712 28.0448 21.8992 27.9704 21.8464 27.8119C21.8056 27.6894 21.7818 27.5432 21.7481 27.3355L21.7368 27.2663C21.7021 27.0543 21.6526 26.7618 21.5351 26.5033C21.4063 26.22 21.1751 25.9323 20.7719 25.8089C20.4043 25.6963 19.9915 25.7527 19.5569 25.8975L19.932 27.0226C20.2671 26.9109 20.3996 26.9352 20.4248 26.9429L20.4262 26.9434C20.4304 26.9483 20.4411 26.9627 20.4554 26.9941C20.4982 27.0883 20.5289 27.2289 20.5663 27.4578L20.5777 27.5285C20.6081 27.7183 20.6478 27.9664 20.7213 28.187C20.8737 28.6442 21.1368 28.9048 21.3924 29.09C21.4217 29.1112 21.4539 29.1334 21.4865 29.1553C20.775 30.0517 20.3228 31.1631 20.2433 32.3763C20.2187 32.3811 20.1938 32.3857 20.166 32.3901C20.0231 32.4129 19.9196 32.4112 19.7702 32.3365C19.6547 32.2787 19.5346 32.1922 19.3639 32.0693L19.3069 32.0282C19.1324 31.9028 18.8906 31.731 18.6247 31.6313C18.3333 31.522 17.9664 31.4821 17.5941 31.6799C17.2545 31.8603 17.0025 32.192 16.7976 32.6017L17.8584 33.1321C18.0164 32.8161 18.1272 32.7396 18.1505 32.7273L18.1519 32.7265C18.1583 32.7271 18.176 32.7297 18.2083 32.7418C18.3052 32.7782 18.4263 32.8558 18.6147 32.9912L18.6727 33.0332C18.8284 33.1459 19.0319 33.2933 19.2398 33.3973C19.6408 33.5978 19.9891 33.6102 20.2867 33.571C20.4532 34.7647 20.9827 35.8422 21.76 36.6883C21.7493 36.7157 21.7404 36.7414 21.7328 36.7648C21.7187 36.8084 21.706 36.8546 21.6979 36.8843L21.694 36.8987C21.6847 36.9319 21.6795 36.9489 21.6751 36.9608C21.662 36.9691 21.6324 36.9852 21.576 37.004C21.4535 37.0448 21.3073 37.0686 21.0996 37.1023L21.0303 37.1136C20.8183 37.1483 20.5259 37.1978 20.2674 37.3153C19.984 37.4441 19.6963 37.6753 19.5729 38.0785C19.4604 38.4461 19.5167 38.8589 19.6615 39.2934L20.7867 38.9184C20.675 38.5832 20.6993 38.4508 20.707 38.4256L20.7074 38.4241C20.7124 38.42 20.7268 38.4093 20.7581 38.395C20.8524 38.3522 20.9929 38.3215 21.2219 38.284L21.2926 38.2727C21.4824 38.2423 21.7305 38.2026 21.951 38.1291C22.1657 38.0576 22.3514 37.9567 22.5008 37.8143C22.5995 37.7203 22.6687 37.621 22.7188 37.5265C23.6592 38.1824 24.8027 38.567 26.0361 38.567C26.0684 38.567 26.1006 38.5667 26.1327 38.5662C26.1578 38.7465 26.1481 38.889 26.0789 39.0274C26.0211 39.1429 25.9346 39.2631 25.8116 39.4338L25.7706 39.4908C25.6452 39.6652 25.4734 39.907 25.3737 40.1729C25.2644 40.4643 25.2244 40.8312 25.4223 41.2036C25.6027 41.5431 25.9344 41.7952 26.3441 42L26.8745 40.9392C26.5585 40.7812 26.482 40.6704 26.4697 40.6472L26.469 40.6458C26.4695 40.6393 26.4721 40.6216 26.4842 40.5893C26.5206 40.4924 26.5982 40.3713 26.7336 40.183L26.7756 40.1249C26.8883 39.9692 27.0357 39.7657 27.1397 39.5578C27.35 39.1371 27.351 38.7359 27.3106 38.4266C28.4196 38.1782 29.4086 37.6125 30.1776 36.8299L30.1888 36.8371C30.2665 36.8871 30.3314 36.9288 30.3977 36.9783C30.5475 37.0902 30.644 37.1991 30.6938 37.3486C30.7347 37.4711 30.7584 37.6173 30.7922 37.825L30.8035 37.8943C30.8382 38.1063 30.8877 38.3987 31.0052 38.6572C31.134 38.9406 31.3651 39.2282 31.7683 39.3517C32.136 39.4642 32.5488 39.4079 32.9833 39.263L32.6083 38.1379C32.2731 38.2496 32.1407 38.2253 32.1155 38.2176L32.114 38.2172C32.1099 38.2122 32.0992 38.1978 32.0849 38.1665C32.0421 38.0722 32.0114 37.9317 31.9739 37.7027L31.9625 37.632C31.9322 37.4422 31.8925 37.1941 31.819 36.9736C31.6636 36.5073 31.3616 36.2178 31.107 36.0278C31.0439 35.9808 30.9798 35.9371 30.9217 35.8988C31.4869 35.0203 31.8217 33.9796 31.8406 32.8619C31.8973 32.8522 31.9484 32.8413 31.9899 32.8324L32.0511 32.8192C32.1413 32.7996 32.2169 32.7832 32.2987 32.7713C32.4838 32.7444 32.629 32.7533 32.77 32.8237C32.8855 32.8815 33.0056 32.968 33.1764 33.091L33.2333 33.132C33.4078 33.2574 33.6495 33.4292 33.9154 33.5289C34.2069 33.6382 34.5737 33.6782 34.9461 33.4803C35.2857 33.2999 35.5377 32.9682 35.7426 32.5585L34.6818 32.0282C34.5238 32.3441 34.413 32.4206 34.3897 32.433L34.3883 32.4337C34.3819 32.4331 34.3642 32.4305 34.3319 32.4184C34.235 32.3821 34.1139 32.3044 33.9255 32.169L33.8675 32.127C33.7118 32.0143 33.5083 31.8669 33.3004 31.763C32.8608 31.5432 32.4425 31.552 32.1281 31.5977C32.0014 31.6161 31.8791 31.6427 31.7883 31.6625L31.7416 31.6727L31.7396 31.6731C31.537 30.6054 31.0421 29.6413 30.3412 28.867L30.3874 28.8824C30.4058 28.8272 30.4705 28.6884 30.591 28.5464C30.7083 28.4084 30.8576 28.2915 31.0386 28.2312C31.1611 28.1904 31.3073 28.1666 31.515 28.1328L31.5842 28.1216C31.7962 28.0869 32.0887 28.0374 32.3472 27.9199C32.6305 27.7911 32.9182 27.5599 33.0417 27.1567C33.1542 26.7891 33.0979 26.3763 32.953 25.9418L31.8279 26.3168C31.9396 26.6519 31.9153 26.7844 31.9076 26.8096L31.9071 26.811C31.9022 26.8152 31.8878 26.8259 31.8564 26.8402C31.7622 26.883 31.6216 26.9137 31.3927 26.9511L31.322 26.9625C31.1322 26.9929 30.8841 27.0326 30.6635 27.1061C30.0759 27.3019 29.691 27.7201 29.4687 28.0794C28.6332 27.4659 27.6274 27.0706 26.5355 26.9776C26.5107 26.9057 26.4832 26.7987 26.4729 26.6725C26.4582 26.492 26.4812 26.3037 26.5665 26.1331ZM30.6554 32.7617C30.6554 35.3129 28.5873 37.381 26.0361 37.381C23.4849 37.381 21.4167 35.3129 21.4167 32.7617C21.4167 30.2105 23.4849 28.1424 26.0361 28.1424C28.5873 28.1424 30.6554 30.2105 30.6554 32.7617Z" fill="white"/>
<path d="M22.2551 18.2527C22.2551 18.9427 21.6957 19.5021 21.0056 19.5021C20.3156 19.5021 19.7562 18.9427 19.7562 18.2527C19.7562 17.5626 20.3156 17.0032 21.0056 17.0032C21.6957 17.0032 22.2551 17.5626 22.2551 18.2527Z" fill="white"/>
<path d="M38.4981 36.9944C39.1882 36.9944 39.7476 36.435 39.7476 35.7449C39.7476 35.0549 39.1882 34.4955 38.4981 34.4955C37.8081 34.4955 37.2486 35.0549 37.2486 35.7449C37.2486 36.435 37.8081 36.9944 38.4981 36.9944Z" fill="white"/>
<path d="M24.754 14.5043C24.754 15.1944 24.1946 15.7538 23.5046 15.7538C22.8145 15.7538 22.2551 15.1944 22.2551 14.5043C22.2551 13.8143 22.8145 13.2549 23.5046 13.2549C24.1946 13.2549 24.754 13.8143 24.754 14.5043Z" fill="white"/>
<path d="M40.997 31.9966C41.6871 31.9966 42.2465 31.4372 42.2465 30.7472C42.2465 30.0571 41.6871 29.4977 40.997 29.4977C40.307 29.4977 39.7476 30.0571 39.7476 30.7472C39.7476 31.4372 40.307 31.9966 40.997 31.9966Z" fill="white"/>
<path d="M27.253 18.2527C27.253 18.9427 26.6935 19.5021 26.0035 19.5021C25.3134 19.5021 24.754 18.9427 24.754 18.2527C24.754 17.5626 25.3134 17.0032 26.0035 17.0032C26.6935 17.0032 27.253 17.5626 27.253 18.2527Z" fill="white"/>
<path d="M43.496 36.9944C44.186 36.9944 44.7454 36.435 44.7454 35.7449C44.7454 35.0549 44.186 34.4955 43.496 34.4955C42.8059 34.4955 42.2465 35.0549 42.2465 35.7449C42.2465 36.435 42.8059 36.9944 43.496 36.9944Z" fill="white"/>
<path d="M60.553 20H59.563V13.015H57.11V12.146H62.995V13.015H60.553V20ZM66.0295 13.994C66.1395 13.994 66.2568 14.0013 66.3815 14.016C66.5135 14.0233 66.6271 14.038 66.7225 14.06L66.6015 14.951C66.5061 14.929 66.3998 14.9107 66.2825 14.896C66.1725 14.8813 66.0661 14.874 65.9635 14.874C65.6628 14.874 65.3805 14.9583 65.1165 15.127C64.8525 15.2883 64.6398 15.5193 64.4785 15.82C64.3245 16.1133 64.2475 16.458 64.2475 16.854V20H63.2795V14.104H64.0715L64.1815 15.182H64.2255C64.4161 14.8593 64.6618 14.5807 64.9625 14.346C65.2631 14.1113 65.6188 13.994 66.0295 13.994ZM68.0984 11.893C68.2451 11.893 68.3734 11.9443 68.4834 12.047C68.6007 12.1423 68.6594 12.2963 68.6594 12.509C68.6594 12.7143 68.6007 12.8683 68.4834 12.971C68.3734 13.0737 68.2451 13.125 68.0984 13.125C67.9371 13.125 67.8014 13.0737 67.6914 12.971C67.5814 12.8683 67.5264 12.7143 67.5264 12.509C67.5264 12.2963 67.5814 12.1423 67.6914 12.047C67.8014 11.9443 67.9371 11.893 68.0984 11.893ZM68.5714 14.104V20H67.6034V14.104H68.5714ZM72.3093 13.994C72.698 13.994 73.0463 14.0673 73.3543 14.214C73.6697 14.3607 73.9373 14.5843 74.1573 14.885H74.2123L74.3443 14.104H75.1143V20.099C75.1143 20.9423 74.898 21.5767 74.4653 22.002C74.04 22.4273 73.3763 22.64 72.4743 22.64C71.609 22.64 70.9013 22.5153 70.3513 22.266V21.375C70.9307 21.683 71.6567 21.837 72.5293 21.837C73.0353 21.837 73.4313 21.6867 73.7173 21.386C74.0107 21.0927 74.1573 20.6893 74.1573 20.176V19.945C74.1573 19.857 74.161 19.7323 74.1683 19.571C74.1757 19.4023 74.183 19.285 74.1903 19.219H74.1463C73.7503 19.813 73.1417 20.11 72.3203 20.11C71.5577 20.11 70.96 19.8423 70.5273 19.307C70.102 18.7717 69.8893 18.0237 69.8893 17.063C69.8893 16.1243 70.102 15.38 70.5273 14.83C70.96 14.2727 71.554 13.994 72.3093 13.994ZM72.4413 14.808C71.95 14.808 71.5687 15.006 71.2973 15.402C71.026 15.7907 70.8903 16.348 70.8903 17.074C70.8903 17.8 71.0223 18.3573 71.2863 18.746C71.5577 19.1273 71.95 19.318 72.4633 19.318C73.0573 19.318 73.49 19.1603 73.7613 18.845C74.0327 18.5223 74.1683 18.0053 74.1683 17.294V17.063C74.1683 16.2563 74.029 15.6807 73.7503 15.336C73.4717 14.984 73.0353 14.808 72.4413 14.808ZM78.8569 13.994C79.2456 13.994 79.5939 14.0673 79.9019 14.214C80.2172 14.3607 80.4849 14.5843 80.7049 14.885H80.7599L80.8919 14.104H81.6619V20.099C81.6619 20.9423 81.4456 21.5767 81.0129 22.002C80.5876 22.4273 79.9239 22.64 79.0219 22.64C78.1566 22.64 77.4489 22.5153 76.8989 22.266V21.375C77.4782 21.683 78.2042 21.837 79.0769 21.837C79.5829 21.837 79.9789 21.6867 80.2649 21.386C80.5582 21.0927 80.7049 20.6893 80.7049 20.176V19.945C80.7049 19.857 80.7086 19.7323 80.7159 19.571C80.7232 19.4023 80.7306 19.285 80.7379 19.219H80.6939C80.2979 19.813 79.6892 20.11 78.8679 20.11C78.1052 20.11 77.5076 19.8423 77.0749 19.307C76.6496 18.7717 76.4369 18.0237 76.4369 17.063C76.4369 16.1243 76.6496 15.38 77.0749 14.83C77.5076 14.2727 78.1016 13.994 78.8569 13.994ZM78.9889 14.808C78.4976 14.808 78.1162 15.006 77.8449 15.402C77.5736 15.7907 77.4379 16.348 77.4379 17.074C77.4379 17.8 77.5699 18.3573 77.8339 18.746C78.1052 19.1273 78.4976 19.318 79.0109 19.318C79.6049 19.318 80.0376 19.1603 80.3089 18.845C80.5802 18.5223 80.7159 18.0053 80.7159 17.294V17.063C80.7159 16.2563 80.5766 15.6807 80.2979 15.336C80.0192 14.984 79.5829 14.808 78.9889 14.808ZM85.5915 13.994C86.0975 13.994 86.5302 14.104 86.8895 14.324C87.2562 14.544 87.5348 14.8557 87.7255 15.259C87.9235 15.655 88.0225 16.1207 88.0225 16.656V17.239H83.9855C84.0002 17.9063 84.1688 18.416 84.4915 18.768C84.8215 19.1127 85.2798 19.285 85.8665 19.285C86.2405 19.285 86.5705 19.252 86.8565 19.186C87.1498 19.1127 87.4505 19.01 87.7585 18.878V19.725C87.4578 19.857 87.1608 19.9523 86.8675 20.011C86.5742 20.077 86.2258 20.11 85.8225 20.11C85.2652 20.11 84.7702 19.9963 84.3375 19.769C83.9122 19.5417 83.5785 19.2043 83.3365 18.757C83.1018 18.3023 82.9845 17.7487 82.9845 17.096C82.9845 16.4507 83.0908 15.897 83.3035 15.435C83.5235 14.973 83.8278 14.6173 84.2165 14.368C84.6125 14.1187 85.0708 13.994 85.5915 13.994ZM85.5805 14.786C85.1185 14.786 84.7518 14.9363 84.4805 15.237C84.2165 15.5303 84.0588 15.941 84.0075 16.469H87.0105C87.0032 15.9703 86.8858 15.567 86.6585 15.259C86.4312 14.9437 86.0718 14.786 85.5805 14.786ZM92.0535 13.994C92.1635 13.994 92.2808 14.0013 92.4055 14.016C92.5375 14.0233 92.6511 14.038 92.7465 14.06L92.6255 14.951C92.5301 14.929 92.4238 14.9107 92.3065 14.896C92.1965 14.8813 92.0901 14.874 91.9875 14.874C91.6868 14.874 91.4045 14.9583 91.1405 15.127C90.8765 15.2883 90.6638 15.5193 90.5025 15.82C90.3485 16.1133 90.2715 16.458 90.2715 16.854V20H89.3035V14.104H90.0955L90.2055 15.182H90.2495C90.4401 14.8593 90.6858 14.5807 90.9865 14.346C91.2871 14.1113 91.6428 13.994 92.0535 13.994ZM100.071 16.667C99.9755 16.3663 99.8912 16.073 99.8178 15.787C99.7518 15.4937 99.7005 15.2663 99.6638 15.105H99.6198C99.5905 15.2663 99.5428 15.4937 99.4768 15.787C99.4108 16.073 99.3265 16.37 99.2238 16.678L98.1678 19.989H97.0678L95.4508 14.093H96.4518L97.2658 17.239C97.3465 17.5543 97.4235 17.8733 97.4968 18.196C97.5702 18.5187 97.6215 18.7863 97.6508 18.999H97.6948C97.7242 18.8743 97.7572 18.7203 97.7938 18.537C97.8378 18.3537 97.8855 18.163 97.9368 17.965C97.9882 17.7597 98.0395 17.5763 98.0908 17.415L99.1358 14.093H100.192L101.204 17.415C101.285 17.6643 101.362 17.9357 101.435 18.229C101.516 18.5223 101.571 18.7753 101.6 18.988H101.644C101.666 18.8047 101.714 18.5517 101.787 18.229C101.868 17.9063 101.952 17.5763 102.04 17.239L102.865 14.093H103.855L102.216 19.989H101.083L100.071 16.667ZM106.925 14.005C107.644 14.005 108.176 14.1627 108.52 14.478C108.865 14.7933 109.037 15.2957 109.037 15.985V20H108.333L108.146 19.164H108.102C107.846 19.4867 107.574 19.725 107.288 19.879C107.01 20.033 106.621 20.11 106.122 20.11C105.587 20.11 105.143 19.9707 104.791 19.692C104.439 19.406 104.263 18.9623 104.263 18.361C104.263 17.7743 104.494 17.3233 104.956 17.008C105.418 16.6853 106.13 16.5093 107.09 16.48L108.091 16.447V16.095C108.091 15.6037 107.985 15.2627 107.772 15.072C107.56 14.8813 107.259 14.786 106.87 14.786C106.562 14.786 106.269 14.8337 105.99 14.929C105.712 15.017 105.451 15.1197 105.209 15.237L104.912 14.511C105.169 14.3717 105.473 14.2543 105.825 14.159C106.177 14.0563 106.544 14.005 106.925 14.005ZM107.211 17.151C106.478 17.1803 105.968 17.2977 105.682 17.503C105.404 17.7083 105.264 17.998 105.264 18.372C105.264 18.702 105.363 18.944 105.561 19.098C105.767 19.252 106.027 19.329 106.342 19.329C106.841 19.329 107.255 19.1933 107.585 18.922C107.915 18.6433 108.08 18.218 108.08 17.646V17.118L107.211 17.151ZM113.388 13.994C113.498 13.994 113.616 14.0013 113.74 14.016C113.872 14.0233 113.986 14.038 114.081 14.06L113.96 14.951C113.865 14.929 113.759 14.9107 113.641 14.896C113.531 14.8813 113.425 14.874 113.322 14.874C113.022 14.874 112.739 14.9583 112.475 15.127C112.211 15.2883 111.999 15.5193 111.837 15.82C111.683 16.1133 111.606 16.458 111.606 16.854V20H110.638V14.104H111.43L111.54 15.182H111.584C111.775 14.8593 112.021 14.5807 112.321 14.346C112.622 14.1113 112.978 13.994 113.388 13.994ZM117.8 13.994C118.504 13.994 119.036 14.1663 119.395 14.511C119.755 14.8483 119.934 15.3983 119.934 16.161V20H118.977V16.227C118.977 15.281 118.537 14.808 117.657 14.808C117.005 14.808 116.554 14.9913 116.304 15.358C116.055 15.7247 115.93 16.2527 115.93 16.942V20H114.962V14.104H115.743L115.886 14.907H115.941C116.132 14.599 116.396 14.3717 116.733 14.225C117.071 14.071 117.426 13.994 117.8 13.994ZM122.037 11.893C122.184 11.893 122.312 11.9443 122.422 12.047C122.539 12.1423 122.598 12.2963 122.598 12.509C122.598 12.7143 122.539 12.8683 122.422 12.971C122.312 13.0737 122.184 13.125 122.037 13.125C121.876 13.125 121.74 13.0737 121.63 12.971C121.52 12.8683 121.465 12.7143 121.465 12.509C121.465 12.2963 121.52 12.1423 121.63 12.047C121.74 11.9443 121.876 11.893 122.037 11.893ZM122.51 14.104V20H121.542V14.104H122.51ZM126.996 13.994C127.7 13.994 128.232 14.1663 128.591 14.511C128.95 14.8483 129.13 15.3983 129.13 16.161V20H128.173V16.227C128.173 15.281 127.733 14.808 126.853 14.808C126.2 14.808 125.749 14.9913 125.5 15.358C125.251 15.7247 125.126 16.2527 125.126 16.942V20H124.158V14.104H124.939L125.082 14.907H125.137C125.328 14.599 125.592 14.3717 125.929 14.225C126.266 14.071 126.622 13.994 126.996 13.994ZM132.828 13.994C133.216 13.994 133.565 14.0673 133.873 14.214C134.188 14.3607 134.456 14.5843 134.676 14.885H134.731L134.863 14.104H135.633V20.099C135.633 20.9423 135.416 21.5767 134.984 22.002C134.558 22.4273 133.895 22.64 132.993 22.64C132.127 22.64 131.42 22.5153 130.87 22.266V21.375C131.449 21.683 132.175 21.837 133.048 21.837C133.554 21.837 133.95 21.6867 134.236 21.386C134.529 21.0927 134.676 20.6893 134.676 20.176V19.945C134.676 19.857 134.679 19.7323 134.687 19.571C134.694 19.4023 134.701 19.285 134.709 19.219H134.665C134.269 19.813 133.66 20.11 132.839 20.11C132.076 20.11 131.478 19.8423 131.046 19.307C130.62 18.7717 130.408 18.0237 130.408 17.063C130.408 16.1243 130.62 15.38 131.046 14.83C131.478 14.2727 132.072 13.994 132.828 13.994ZM132.96 14.808C132.468 14.808 132.087 15.006 131.816 15.402C131.544 15.7907 131.409 16.348 131.409 17.074C131.409 17.8 131.541 18.3573 131.805 18.746C132.076 19.1273 132.468 19.318 132.982 19.318C133.576 19.318 134.008 19.1603 134.28 18.845C134.551 18.5223 134.687 18.0053 134.687 17.294V17.063C134.687 16.2563 134.547 15.6807 134.269 15.336C133.99 14.984 133.554 14.808 132.96 14.808ZM137.142 14.698C137.142 14.4193 137.208 14.225 137.34 14.115C137.472 14.005 137.63 13.95 137.813 13.95C138.004 13.95 138.165 14.005 138.297 14.115C138.437 14.225 138.506 14.4193 138.506 14.698C138.506 14.962 138.437 15.1527 138.297 15.27C138.165 15.3873 138.004 15.446 137.813 15.446C137.63 15.446 137.472 15.3873 137.34 15.27C137.208 15.1527 137.142 14.962 137.142 14.698ZM137.142 19.406C137.142 19.1347 137.208 18.944 137.34 18.834C137.472 18.724 137.63 18.669 137.813 18.669C138.004 18.669 138.165 18.724 138.297 18.834C138.437 18.944 138.506 19.1347 138.506 19.406C138.506 19.67 138.437 19.8607 138.297 19.978C138.165 20.0953 138.004 20.154 137.813 20.154C137.63 20.154 137.472 20.0953 137.34 19.978C137.208 19.8607 137.142 19.67 137.142 19.406Z" fill="white"/>
<path d="M62.874 36L62.159 33.921H59.2L58.496 36H57L59.882 28.113H61.488L64.37 36H62.874ZM61.114 30.687C61.0847 30.5843 61.0407 30.445 60.982 30.269C60.9233 30.093 60.8647 29.9133 60.806 29.73C60.7547 29.5393 60.7143 29.3817 60.685 29.257C60.6483 29.4037 60.6007 29.5723 60.542 29.763C60.4907 29.9537 60.4393 30.1333 60.388 30.302C60.3367 30.4707 60.3 30.599 60.278 30.687L59.585 32.711H61.796L61.114 30.687ZM66.4369 36H65.0509V27.64H66.4369V36ZM69.3751 36H67.9891V27.64H69.3751V36ZM73.3253 29.928C74.1246 29.928 74.7553 30.1663 75.2173 30.643C75.6866 31.1197 75.9213 31.7833 75.9213 32.634V33.338H71.9833C71.998 33.8807 72.1483 34.3023 72.4343 34.603C72.7203 34.8963 73.1163 35.043 73.6223 35.043C74.0036 35.043 74.3483 35.0063 74.6563 34.933C74.9643 34.8523 75.2796 34.7387 75.6023 34.592V35.703C75.309 35.8423 75.0046 35.945 74.6893 36.011C74.374 36.077 73.9963 36.11 73.5563 36.11C72.977 36.11 72.46 36 72.0053 35.78C71.558 35.5527 71.206 35.2117 70.9493 34.757C70.7 34.3023 70.5753 33.7377 70.5753 33.063C70.5753 32.0437 70.8283 31.2663 71.3343 30.731C71.8403 30.1957 72.504 29.928 73.3253 29.928ZM73.3253 30.951C72.9513 30.951 72.647 31.072 72.4123 31.314C72.185 31.5487 72.053 31.9007 72.0163 32.37H74.5793C74.572 31.9593 74.4656 31.622 74.2603 31.358C74.0623 31.0867 73.7506 30.951 73.3253 30.951ZM80.2229 29.928C80.3182 29.928 80.4209 29.9317 80.5309 29.939C80.6482 29.9463 80.7472 29.961 80.8279 29.983L80.7069 31.27C80.6336 31.2553 80.5456 31.2443 80.4429 31.237C80.3402 31.2223 80.2486 31.215 80.1679 31.215C79.8746 31.215 79.5996 31.2773 79.3429 31.402C79.0862 31.5193 78.8772 31.7063 78.7159 31.963C78.5619 32.2123 78.4849 32.5277 78.4849 32.909V36H77.0989V30.038H78.1659L78.3639 31.072H78.4299C78.6059 30.7567 78.8479 30.489 79.1559 30.269C79.4639 30.0417 79.8196 29.928 80.2229 29.928ZM83.6075 29.928C84.3628 29.928 84.9531 30.2213 85.3785 30.808H85.4335L85.5655 30.038H86.7205V36.044C86.7205 36.8947 86.4785 37.54 85.9945 37.98C85.5178 38.42 84.8028 38.64 83.8495 38.64C83.4241 38.64 83.0318 38.6107 82.6725 38.552C82.3131 38.5007 81.9721 38.409 81.6495 38.277V37.133C82.3315 37.441 83.0941 37.595 83.9375 37.595C84.3921 37.595 84.7368 37.4667 84.9715 37.21C85.2135 36.9607 85.3345 36.594 85.3345 36.11V35.956C85.3345 35.846 85.3381 35.7177 85.3455 35.571C85.3528 35.4243 85.3638 35.307 85.3785 35.219H85.3345C85.1291 35.527 84.8761 35.7543 84.5755 35.901C84.2821 36.0403 83.9485 36.11 83.5745 36.11C82.8485 36.11 82.2801 35.8387 81.8695 35.296C81.4588 34.7533 81.2535 33.998 81.2535 33.03C81.2535 32.062 81.4588 31.303 81.8695 30.753C82.2875 30.203 82.8668 29.928 83.6075 29.928ZM83.9705 31.061C83.1051 31.061 82.6725 31.7247 82.6725 33.052C82.6725 34.3573 83.1125 35.01 83.9925 35.01C84.4765 35.01 84.8321 34.878 85.0595 34.614C85.2941 34.3427 85.4115 33.888 85.4115 33.25V33.041C85.4115 32.337 85.2941 31.831 85.0595 31.523C84.8321 31.215 84.4691 31.061 83.9705 31.061ZM90.6692 29.928C91.4685 29.928 92.0992 30.1663 92.5612 30.643C93.0305 31.1197 93.2652 31.7833 93.2652 32.634V33.338H89.3272C89.3419 33.8807 89.4922 34.3023 89.7782 34.603C90.0642 34.8963 90.4602 35.043 90.9662 35.043C91.3475 35.043 91.6922 35.0063 92.0002 34.933C92.3082 34.8523 92.6235 34.7387 92.9462 34.592V35.703C92.6529 35.8423 92.3485 35.945 92.0332 36.011C91.7179 36.077 91.3402 36.11 90.9002 36.11C90.3209 36.11 89.8039 36 89.3492 35.78C88.9019 35.5527 88.5499 35.2117 88.2932 34.757C88.0439 34.3023 87.9192 33.7377 87.9192 33.063C87.9192 32.0437 88.1722 31.2663 88.6782 30.731C89.1842 30.1957 89.8479 29.928 90.6692 29.928ZM90.6692 30.951C90.2952 30.951 89.9909 31.072 89.7562 31.314C89.5289 31.5487 89.3969 31.9007 89.3602 32.37H91.9232C91.9159 31.9593 91.8095 31.622 91.6042 31.358C91.4062 31.0867 91.0945 30.951 90.6692 30.951ZM97.6328 29.928C98.3001 29.928 98.8208 30.1003 99.1948 30.445C99.5761 30.7897 99.7668 31.347 99.7668 32.117V36H98.3808V32.392C98.3808 31.4973 98.0141 31.05 97.2808 31.05C96.7235 31.05 96.3421 31.226 96.1368 31.578C95.9315 31.93 95.8288 32.4323 95.8288 33.085V36H94.4428V30.038H95.5098L95.7078 30.819H95.7848C95.9755 30.511 96.2358 30.2873 96.5658 30.148C96.9031 30.0013 97.2588 29.928 97.6328 29.928ZM105.339 34.273C105.339 34.8743 105.123 35.3327 104.69 35.648C104.265 35.956 103.653 36.11 102.853 36.11C102.435 36.11 102.076 36.0807 101.775 36.022C101.482 35.9633 101.196 35.8717 100.917 35.747V34.57C101.211 34.7093 101.533 34.8267 101.885 34.922C102.245 35.0173 102.582 35.065 102.897 35.065C103.279 35.065 103.554 35.0063 103.722 34.889C103.891 34.7717 103.975 34.614 103.975 34.416C103.975 34.2987 103.942 34.196 103.876 34.108C103.81 34.0127 103.678 33.91 103.48 33.8C103.29 33.69 103.004 33.5543 102.622 33.393C102.241 33.2463 101.922 33.096 101.665 32.942C101.416 32.7807 101.225 32.5937 101.093 32.381C100.969 32.1683 100.906 31.8933 100.906 31.556C100.906 31.0207 101.115 30.6173 101.533 30.346C101.959 30.0673 102.523 29.928 103.227 29.928C103.594 29.928 103.939 29.9647 104.261 30.038C104.591 30.1113 104.921 30.2213 105.251 30.368L104.811 31.391C104.533 31.2737 104.261 31.1747 103.997 31.094C103.733 31.0133 103.462 30.973 103.183 30.973C102.575 30.973 102.27 31.1453 102.27 31.49C102.27 31.6147 102.307 31.721 102.38 31.809C102.461 31.897 102.597 31.9923 102.787 32.095C102.985 32.1903 103.264 32.3077 103.623 32.447C103.975 32.5863 104.28 32.733 104.536 32.887C104.793 33.0337 104.991 33.217 105.13 33.437C105.27 33.657 105.339 33.9357 105.339 34.273Z" fill="white"/>
<path d="M72.475 53.058C73.135 53.058 73.66 53.223 74.05 53.553C74.44 53.883 74.635 54.348 74.635 54.948C74.635 55.614 74.422 56.139 73.996 56.523C73.576 56.901 72.988 57.09 72.232 57.09C71.902 57.09 71.59 57.06 71.296 57C71.008 56.94 70.765 56.853 70.567 56.739V55.992C70.783 56.124 71.044 56.229 71.35 56.307C71.662 56.379 71.959 56.415 72.241 56.415C72.715 56.415 73.096 56.304 73.384 56.082C73.678 55.854 73.825 55.503 73.825 55.029C73.825 54.609 73.696 54.288 73.438 54.066C73.18 53.838 72.772 53.724 72.214 53.724C72.046 53.724 71.854 53.739 71.638 53.769C71.422 53.799 71.248 53.829 71.116 53.859L70.72 53.607L70.963 50.574H74.185V51.294H71.638L71.485 53.157C71.587 53.139 71.725 53.118 71.899 53.094C72.073 53.07 72.265 53.058 72.475 53.058ZM79.6774 53.778C79.6774 54.468 79.6054 55.062 79.4614 55.56C79.3174 56.052 79.0894 56.43 78.7774 56.694C78.4654 56.958 78.0514 57.09 77.5354 57.09C76.8094 57.09 76.2724 56.799 75.9244 56.217C75.5824 55.629 75.4114 54.816 75.4114 53.778C75.4114 53.082 75.4804 52.488 75.6184 51.996C75.7624 51.504 75.9904 51.129 76.3024 50.871C76.6144 50.607 77.0254 50.475 77.5354 50.475C78.2554 50.475 78.7924 50.766 79.1464 51.348C79.5004 51.924 79.6774 52.734 79.6774 53.778ZM76.2034 53.778C76.2034 54.66 76.3024 55.32 76.5004 55.758C76.7044 56.196 77.0494 56.415 77.5354 56.415C78.0154 56.415 78.3574 56.199 78.5614 55.767C78.7714 55.329 78.8764 54.666 78.8764 53.778C78.8764 52.902 78.7714 52.245 78.5614 51.807C78.3574 51.369 78.0154 51.15 77.5354 51.15C77.0494 51.15 76.7044 51.369 76.5004 51.807C76.3024 52.245 76.2034 52.902 76.2034 53.778ZM83.6557 57H82.8637V50.16H83.6557V57ZM85.409 50.367C85.529 50.367 85.634 50.409 85.724 50.493C85.82 50.571 85.868 50.697 85.868 50.871C85.868 51.039 85.82 51.165 85.724 51.249C85.634 51.333 85.529 51.375 85.409 51.375C85.277 51.375 85.166 51.333 85.076 51.249C84.986 51.165 84.941 51.039 84.941 50.871C84.941 50.697 84.986 50.571 85.076 50.493C85.166 50.409 85.277 50.367 85.409 50.367ZM85.796 52.176V57H85.004V52.176H85.796ZM87.9273 53.733C87.9273 53.829 87.9213 53.955 87.9093 54.111C87.9033 54.267 87.8973 54.402 87.8913 54.516H87.9273C87.9633 54.468 88.0173 54.399 88.0893 54.309C88.1613 54.219 88.2333 54.129 88.3053 54.039C88.3833 53.943 88.4493 53.865 88.5033 53.805L90.0423 52.176H90.9693L89.0163 54.237L91.1043 57H90.1503L88.4763 54.75L87.9273 55.227V57H87.1443V50.16H87.9273V53.733ZM93.6349 52.086C94.0489 52.086 94.4029 52.176 94.6969 52.356C94.9969 52.536 95.2249 52.791 95.3809 53.121C95.5429 53.445 95.6239 53.826 95.6239 54.264V54.741H92.3209C92.3329 55.287 92.4709 55.704 92.7349 55.992C93.0049 56.274 93.3799 56.415 93.8599 56.415C94.1659 56.415 94.4359 56.388 94.6699 56.334C94.9099 56.274 95.1559 56.19 95.4079 56.082V56.775C95.1619 56.883 94.9189 56.961 94.6789 57.009C94.4389 57.063 94.1539 57.09 93.8239 57.09C93.3679 57.09 92.9629 56.997 92.6089 56.811C92.2609 56.625 91.9879 56.349 91.7899 55.983C91.5979 55.611 91.5019 55.158 91.5019 54.624C91.5019 54.096 91.5889 53.643 91.7629 53.265C91.9429 52.887 92.1919 52.596 92.5099 52.392C92.8339 52.188 93.2089 52.086 93.6349 52.086ZM93.6259 52.734C93.2479 52.734 92.9479 52.857 92.7259 53.103C92.5099 53.343 92.3809 53.679 92.3389 54.111H94.7959C94.7899 53.703 94.6939 53.373 94.5079 53.121C94.3219 52.863 94.0279 52.734 93.6259 52.734ZM99.813 55.668C99.813 56.136 99.639 56.49 99.291 56.73C98.943 56.97 98.475 57.09 97.887 57.09C97.551 57.09 97.26 57.063 97.014 57.009C96.774 56.955 96.561 56.88 96.375 56.784V56.064C96.567 56.16 96.798 56.25 97.068 56.334C97.344 56.412 97.623 56.451 97.905 56.451C98.307 56.451 98.598 56.388 98.778 56.262C98.958 56.13 99.048 55.956 99.048 55.74C99.048 55.62 99.015 55.512 98.949 55.416C98.883 55.32 98.763 55.224 98.589 55.128C98.421 55.032 98.178 54.924 97.86 54.804C97.548 54.684 97.281 54.564 97.059 54.444C96.837 54.324 96.666 54.18 96.546 54.012C96.426 53.844 96.366 53.628 96.366 53.364C96.366 52.956 96.531 52.641 96.861 52.419C97.197 52.197 97.635 52.086 98.175 52.086C98.469 52.086 98.742 52.116 98.994 52.176C99.252 52.23 99.492 52.308 99.714 52.41L99.444 53.04C99.24 52.956 99.027 52.884 98.805 52.824C98.583 52.764 98.355 52.734 98.121 52.734C97.797 52.734 97.548 52.788 97.374 52.896C97.206 52.998 97.122 53.139 97.122 53.319C97.122 53.451 97.161 53.565 97.239 53.661C97.317 53.751 97.446 53.841 97.626 53.931C97.812 54.015 98.058 54.117 98.364 54.237C98.67 54.351 98.931 54.468 99.147 54.588C99.363 54.708 99.528 54.855 99.642 55.029C99.756 55.197 99.813 55.41 99.813 55.668Z" fill="white"/>
<path d="M61.4537 51.1539C61.2059 50.7984 60.8812 50.5087 60.5059 50.3083C60.1307 50.1078 59.7154 50.0022 59.2936 50C57.855 50 57 51.3958 57 52.7937C57 54.1916 58.1859 55.1485 58.6442 55.6302C59.1025 56.1119 61.2893 57.6147 61.4455 58C61.5996 57.6147 63.7782 56.1161 64.2447 55.6302C64.7112 55.1442 65.8889 54.1916 65.8889 52.7937C65.8889 51.3958 65.0504 50 63.6117 50C63.1903 50.0024 62.7753 50.1081 62.4004 50.3085C62.0255 50.509 61.7012 50.7986 61.4537 51.1539Z" stroke="white" stroke-width="0.8" stroke-linecap="round" stroke-linejoin="round"/>
</g>
<defs>
<filter id="filter0_d_156_5445" x="0" y="0" width="152" height="89.916" filterUnits="userSpaceOnUse" color-interpolation-filters="sRGB">
<feFlood flood-opacity="0" result="BackgroundImageFix"/>
<feColorMatrix in="SourceAlpha" type="matrix" values="0 0 0 0 0 0 0 0 0 0 0 0 0 0 0 0 0 0 127 0" result="hardAlpha"/>
<feOffset dy="4"/>
<feGaussianBlur stdDeviation="2"/>
<feComposite in2="hardAlpha" operator="out"/>
<feColorMatrix type="matrix" values="0 0 0 0 0 0 0 0 0 0 0 0 0 0 0 0 0 0 0.25 0"/>
<feBlend mode="normal" in2="BackgroundImageFix" result="effect1_dropShadow_156_5445"/>
<feBlend mode="normal" in="SourceGraphic" in2="effect1_dropShadow_156_5445" result="shape"/>
</filter>
<linearGradient id="paint0_linear_156_5445" x1="76" y1="0" x2="76" y2="81.9161" gradientUnits="userSpaceOnUse">
<stop stop-color="#5D59E9"/>
<stop offset="1" stop-color="#8826E4"/>
</linearGradient>
</defs>
</svg>
