<svg width="80" height="88" viewBox="0 0 80 88" fill="none" xmlns="http://www.w3.org/2000/svg">
<g filter="url(#filter0_d_76_8131)">
<g filter="url(#filter1_b_76_8131)">
<path fill-rule="evenodd" clip-rule="evenodd" d="M28 16C23.5817 16 20 19.5817 20 24V44C20 48.4183 23.5817 52 28 52H34.9233C34.9437 52.0776 34.9741 52.1547 35.0152 52.2299L41.1227 63.396C41.502 64.0895 42.498 64.0895 42.8773 63.396L48.9848 52.2299C49.0259 52.1547 49.0563 52.0776 49.0767 52H57C61.4183 52 65 48.4183 65 44V24C65 19.5817 61.4183 16 57 16H28Z" fill="white" fill-opacity="0.9"/>
</g>
<path fill-rule="evenodd" clip-rule="evenodd" d="M46.7417 23.0802C46.6958 23.2673 46.661 23.409 46.6487 23.5406C46.6245 23.7982 46.6812 24.0121 46.7739 24.206C47.9903 23.9312 49.2306 24.5035 49.8228 25.5722C49.8369 25.5655 49.8511 25.5589 49.8655 25.5524C50.131 25.4318 50.4862 25.3137 50.9145 25.3539C51.1251 25.3737 51.3435 25.4277 51.5183 25.4709L51.5836 25.487C51.7903 25.5374 51.936 25.5669 52.0546 25.5671C52.1574 25.5672 52.1984 25.545 52.2274 25.5194C52.2673 25.4841 52.3503 25.3806 52.4173 25.0969L53.3905 25.3265C53.2976 25.7205 53.1423 26.0449 52.8905 26.268C52.6278 26.5006 52.3238 26.5673 52.0536 26.5671C51.7992 26.5668 51.5438 26.5066 51.3466 26.4585L51.2813 26.4425C51.0942 26.3966 50.9525 26.3619 50.821 26.3495C50.6344 26.332 50.4626 26.3795 50.2789 26.4629C50.2328 26.4838 50.1892 26.5055 50.1449 26.5282C50.2952 27.5621 49.849 28.5848 49.0211 29.1844L49.0246 29.1909L49.0246 29.1909C49.067 29.2712 49.1209 29.3733 49.1702 29.4819C49.2907 29.7473 49.4089 30.1026 49.3687 30.5308C49.3489 30.7415 49.2949 30.9598 49.2516 31.1346L49.2355 31.2C49.1851 31.4066 49.1556 31.5524 49.1555 31.671C49.1554 31.7738 49.1775 31.8148 49.2032 31.8438C49.2385 31.8836 49.3419 31.9667 49.6257 32.0336L49.3961 33.0069C49.0021 32.914 48.6777 32.7586 48.4546 32.5068C48.2219 32.2441 48.1552 31.9401 48.1555 31.6699C48.1558 31.4155 48.2159 31.1602 48.2641 30.9629L48.28 30.8977C48.3259 30.7106 48.3607 30.5689 48.373 30.4373C48.3906 30.2508 48.3431 30.079 48.2597 29.8953C48.2238 29.8163 48.1859 29.7445 48.1438 29.6645L48.1438 29.6645L48.1182 29.6159C47.0675 29.9029 45.9821 29.5468 45.2976 28.7748C45.0004 28.9049 44.6286 29.0003 44.1833 28.9585C43.9726 28.9387 43.7542 28.8847 43.5795 28.8415L43.5141 28.8254C43.3074 28.775 43.1617 28.7455 43.0431 28.7453C42.9403 28.7452 42.8993 28.7674 42.8703 28.793C42.8305 28.8283 42.7474 28.9318 42.6805 29.2155L41.7072 28.9859C41.8001 28.5919 41.9554 28.2675 42.2073 28.0444C42.47 27.8118 42.7739 27.7451 43.0442 27.7453C43.2986 27.7456 43.5539 27.8058 43.7511 27.8539L43.8164 27.8699L43.8164 27.8699L43.8164 27.8699L43.8165 27.8699C44.0035 27.9158 44.1452 27.9505 44.2768 27.9629C44.4627 27.9803 44.6258 27.9557 44.7751 27.9057C44.7575 27.8586 44.741 27.8107 44.7257 27.7621C44.3434 26.5459 44.8374 25.2638 45.8525 24.5966C45.7145 24.2937 45.6096 23.9101 45.6531 23.4471C45.6728 23.2364 45.7268 23.0181 45.7701 22.8433L45.7862 22.7779C45.8366 22.5713 45.8661 22.4255 45.8662 22.3069C45.8663 22.2041 45.8442 22.1631 45.8185 22.1341C45.7832 22.0943 45.6798 22.0112 45.396 21.9443L45.6256 20.971C46.0196 21.0639 46.344 21.2193 46.5671 21.4711C46.7998 21.7338 46.8665 22.0378 46.8662 22.308C46.8659 22.5624 46.8058 22.8177 46.7577 23.015L46.7417 23.0802ZM49.0907 26.39C49.3868 27.3319 48.8632 28.3356 47.9213 28.6316C46.9794 28.9277 45.9758 28.4041 45.6797 27.4622C45.3836 26.5203 45.9072 25.5167 46.8491 25.2206C47.791 24.9245 48.7946 25.4481 49.0907 26.39ZM38.6854 31.9963L38.6854 31.9962L38.7179 31.9511C38.8181 31.8118 38.9575 31.6157 39.0387 31.3993C39.1279 31.1613 39.1612 30.8598 38.9985 30.5535C38.8505 30.275 38.5796 30.0703 38.2497 29.9053L37.8024 30.7997C38.0284 30.9127 38.0961 30.9934 38.1119 31.017C38.1106 31.0232 38.1079 31.0334 38.1024 31.0481C38.0746 31.1221 38.0145 31.2164 37.9059 31.3675L37.8724 31.4138C37.7823 31.5382 37.663 31.7029 37.5788 31.8713C37.378 32.273 37.3716 32.6833 37.4285 33.0042C36.5445 33.1177 35.7383 33.4796 35.082 34.0177C35.0463 33.9939 35.0179 33.9756 34.9929 33.9595L34.9928 33.9595L34.9928 33.9595L34.9928 33.9595L34.9927 33.9594L34.9927 33.9594C34.9522 33.9333 34.9207 33.913 34.8814 33.8845C34.7906 33.8188 34.7371 33.7632 34.697 33.6428C34.665 33.5468 34.6463 33.4319 34.6191 33.2649L34.6191 33.2649L34.6102 33.21C34.5825 33.0407 34.5425 32.8034 34.4468 32.5929C34.3416 32.3616 34.1519 32.1249 33.8203 32.0234C33.5187 31.931 33.1824 31.9779 32.8325 32.0945L33.1487 33.0432C33.3884 32.9633 33.4933 32.9725 33.5211 32.978C33.5246 32.9833 33.5299 32.9924 33.5364 33.0067C33.5691 33.0787 33.5933 33.1879 33.6233 33.3715L33.6324 33.4279C33.6566 33.5795 33.6887 33.7803 33.7483 33.959C33.8724 34.3314 34.087 34.5439 34.2946 34.6943C34.3177 34.711 34.3432 34.7286 34.369 34.746C33.8138 35.4534 33.4594 36.3259 33.3916 37.2777C33.3701 37.2821 33.3485 37.286 33.3239 37.29C33.2132 37.3076 33.1361 37.3062 33.0226 37.2494C32.932 37.2041 32.8376 37.1361 32.7003 37.0372L32.7003 37.0372L32.6552 37.0048C32.5159 36.9046 32.3198 36.7651 32.1033 36.684C31.8654 36.5947 31.5638 36.5615 31.2576 36.7242C30.9791 36.8722 30.7743 37.1431 30.6094 37.473L31.5038 37.9202C31.6168 37.6943 31.6975 37.6266 31.7211 37.6108C31.7273 37.6121 31.7375 37.6148 31.7522 37.6203C31.8262 37.648 31.9205 37.7082 32.0715 37.8168L32.1178 37.8502C32.2422 37.9403 32.4069 38.0596 32.5753 38.1438C32.902 38.3072 33.1862 38.3172 33.4281 38.2853C33.5638 39.2209 33.9784 40.0662 34.5847 40.7342C34.5738 40.7611 34.5651 40.7861 34.5578 40.8084C34.5463 40.844 34.536 40.8817 34.5295 40.9054L34.5264 40.9167C34.5211 40.9358 34.5176 40.9477 34.5148 40.9561C34.5034 40.9624 34.4826 40.9722 34.4484 40.9836C34.3524 41.0156 34.2376 41.0343 34.0706 41.0615L34.0705 41.0615L34.0705 41.0615L34.0705 41.0615L34.0156 41.0704C33.8463 41.0981 33.609 41.1382 33.3986 41.2338C33.1672 41.339 32.9305 41.5287 32.829 41.8603C32.7367 42.1619 32.7835 42.4982 32.9001 42.8481L33.8488 42.5319C33.7689 42.2922 33.7782 42.1873 33.7836 42.1595C33.789 42.156 33.7981 42.1507 33.8124 42.1442C33.8843 42.1115 33.9935 42.0873 34.1771 42.0573L34.2335 42.0482C34.3852 42.024 34.586 41.9919 34.7646 41.9323C34.939 41.8742 35.0912 41.7918 35.2142 41.6746C35.2944 41.5981 35.351 41.5174 35.3921 41.4405C36.1407 41.9566 37.0481 42.2587 38.026 42.2587L38.0778 42.2584C38.0981 42.4014 38.0902 42.5105 38.0376 42.6158C37.9923 42.7063 37.9243 42.8007 37.8255 42.938L37.8255 42.938L37.8254 42.938L37.8254 42.938L37.7929 42.9831C37.6928 43.1225 37.5533 43.3186 37.4722 43.535C37.3829 43.7729 37.3497 44.0745 37.5124 44.3807C37.6603 44.6593 37.9313 44.864 38.2612 45.0289L38.7084 44.1345C38.4825 44.0215 38.4148 43.9408 38.399 43.9173C38.4003 43.911 38.403 43.9008 38.4085 43.8861C38.4362 43.8122 38.4964 43.7178 38.605 43.5668L38.6384 43.5205C38.7285 43.3961 38.8478 43.2314 38.932 43.063C39.104 42.7191 39.104 42.3915 39.071 42.1407C39.9398 41.9411 40.7155 41.4979 41.3225 40.8868L41.3361 40.8956L41.3362 40.8956C41.3983 40.9356 41.4493 40.9684 41.5016 41.0074C41.6193 41.0953 41.6922 41.1786 41.7298 41.2915C41.7618 41.3875 41.7805 41.5024 41.8076 41.6694L41.8166 41.7243C41.8443 41.8936 41.8843 42.1309 41.9799 42.3413C42.0851 42.5727 42.2748 42.8094 42.6064 42.9109C42.908 43.0032 43.2444 42.9564 43.5943 42.8398L43.278 41.8911C43.0384 41.971 42.9335 41.9617 42.9056 41.9563C42.9021 41.9509 42.8968 41.9418 42.8903 41.9275C42.8576 41.8556 42.8335 41.7464 42.8034 41.5628L42.7943 41.5064C42.7701 41.3547 42.738 41.1539 42.6785 40.9753C42.5518 40.5953 42.3057 40.3597 42.0997 40.206C42.0487 40.1679 41.9969 40.1326 41.9499 40.1017C42.3897 39.41 42.6515 38.5941 42.6712 37.7185C42.7192 37.7104 42.7622 37.7012 42.7965 37.6939L42.8458 37.6832L42.8458 37.6832C42.918 37.6676 42.9773 37.6547 43.0419 37.6453C43.1873 37.6242 43.2977 37.6317 43.4041 37.6849C43.4946 37.7301 43.589 37.7981 43.7263 37.897L43.7263 37.897L43.7264 37.897L43.7715 37.9295C43.9108 38.0296 44.1069 38.1691 44.3233 38.2503C44.5613 38.3395 44.8628 38.3728 45.1691 38.2101C45.4476 38.0621 45.6523 37.7912 45.8173 37.4613L44.9229 37.014C44.8099 37.24 44.7292 37.3077 44.7056 37.3235C44.6994 37.3222 44.6892 37.3195 44.6745 37.314C44.6005 37.2862 44.5062 37.2261 44.3551 37.1175L44.3088 37.084C44.1845 36.9939 44.0198 36.8746 43.8513 36.7904C43.4931 36.6113 43.1525 36.6188 42.8981 36.6557C42.7957 36.6706 42.6968 36.6922 42.6242 36.708L42.6242 36.708L42.5871 36.7161L42.586 36.7163C42.421 35.8716 42.0271 35.1089 41.4716 34.4952L41.5327 34.5156C41.5464 34.4745 41.5965 34.3663 41.6909 34.2551C41.7826 34.1473 41.8984 34.0569 42.0378 34.0105C42.1338 33.9785 42.2487 33.9598 42.4157 33.9326L42.4706 33.9237C42.6399 33.896 42.8772 33.856 43.0876 33.7603C43.319 33.6551 43.5557 33.4654 43.6572 33.1338C43.7495 32.8323 43.7027 32.4959 43.5861 32.146L42.6374 32.4622C42.7173 32.7019 42.708 32.8068 42.7026 32.8346C42.6972 32.8381 42.6881 32.8434 42.6738 32.8499C42.6019 32.8826 42.4927 32.9068 42.3091 32.9368L42.2527 32.9459C42.101 32.9701 41.9002 33.0022 41.7216 33.0618C41.2453 33.2205 40.9333 33.5587 40.7527 33.8499C40.0953 33.3726 39.3078 33.0635 38.4536 32.9855C38.4336 32.9304 38.4096 32.8424 38.401 32.7368C38.3895 32.5957 38.4075 32.4499 38.4733 32.3185C38.5185 32.228 38.5865 32.1336 38.6854 31.9963L38.6854 31.9963ZM41.6723 37.6124C41.6723 39.6262 40.0398 41.2587 38.026 41.2587C36.0122 41.2587 34.3797 39.6262 34.3797 37.6124C34.3797 35.5986 36.0122 33.9661 38.026 33.9661C40.0398 33.9661 41.6723 35.5986 41.6723 37.6124ZM35 26.0001C35 26.5523 34.5522 27.0001 34 27.0001C33.4477 27.0001 33 26.5523 33 26.0001C33 25.4478 33.4477 25.0001 34 25.0001C34.5522 25.0001 35 25.4478 35 26.0001ZM48 41.0001C48.5522 41.0001 49 40.5523 49 40.0001C49 39.4478 48.5522 39.0001 48 39.0001C47.4477 39.0001 47 39.4478 47 40.0001C47 40.5523 47.4477 41.0001 48 41.0001ZM37 23.0001C37 23.5523 36.5522 24.0001 36 24.0001C35.4477 24.0001 35 23.5523 35 23.0001C35 22.4478 35.4477 22.0001 36 22.0001C36.5522 22.0001 37 22.4478 37 23.0001ZM50 37.0001C50.5522 37.0001 51 36.5523 51 36.0001C51 35.4478 50.5522 35.0001 50 35.0001C49.4477 35.0001 49 35.4478 49 36.0001C49 36.5523 49.4477 37.0001 50 37.0001ZM39 26.0001C39 26.5523 38.5522 27.0001 38 27.0001C37.4477 27.0001 37 26.5523 37 26.0001C37 25.4478 37.4477 25.0001 38 25.0001C38.5522 25.0001 39 25.4478 39 26.0001ZM52 41.0001C52.5522 41.0001 53 40.5523 53 40.0001C53 39.4478 52.5522 39.0001 52 39.0001C51.4477 39.0001 51 39.4478 51 40.0001C51 40.5523 51.4477 41.0001 52 41.0001Z" fill="url(#paint0_linear_76_8131)"/>
</g>
<defs>
<filter id="filter0_d_76_8131" x="0" y="0" width="85" height="87.9161" filterUnits="userSpaceOnUse" color-interpolation-filters="sRGB">
<feFlood flood-opacity="0" result="BackgroundImageFix"/>
<feColorMatrix in="SourceAlpha" type="matrix" values="0 0 0 0 0 0 0 0 0 0 0 0 0 0 0 0 0 0 127 0" result="hardAlpha"/>
<feOffset dy="4"/>
<feGaussianBlur stdDeviation="10"/>
<feComposite in2="hardAlpha" operator="out"/>
<feColorMatrix type="matrix" values="0 0 0 0 0.162597 0 0 0 0 0.0688742 0 0 0 0 0.429346 0 0 0 0.3 0"/>
<feBlend mode="normal" in2="BackgroundImageFix" result="effect1_dropShadow_76_8131"/>
<feBlend mode="normal" in="SourceGraphic" in2="effect1_dropShadow_76_8131" result="shape"/>
</filter>
<filter id="filter1_b_76_8131" x="16" y="12" width="53" height="55.9161" filterUnits="userSpaceOnUse" color-interpolation-filters="sRGB">
<feFlood flood-opacity="0" result="BackgroundImageFix"/>
<feGaussianBlur in="BackgroundImageFix" stdDeviation="2"/>
<feComposite in2="SourceAlpha" operator="in" result="effect1_backgroundBlur_76_8131"/>
<feBlend mode="normal" in="SourceGraphic" in2="effect1_backgroundBlur_76_8131" result="shape"/>
</filter>
<linearGradient id="paint0_linear_76_8131" x1="42" y1="20.971" x2="42" y2="45.0289" gradientUnits="userSpaceOnUse">
<stop stop-color="#5D59E9"/>
<stop offset="1" stop-color="#8826E4"/>
</linearGradient>
</defs>
</svg>
