<svg width="152" height="90" viewBox="0 0 152 90" fill="none" xmlns="http://www.w3.org/2000/svg">
<g filter="url(#filter0_d_156_5425)">
<path fill-rule="evenodd" clip-rule="evenodd" d="M12 0C7.58172 0 4 3.58172 4 8V62C4 66.4183 7.58173 70 12 70H17.9233C17.9437 70.0776 17.9741 70.1547 18.0152 70.2299L24.1227 81.396C24.502 82.0895 25.498 82.0895 25.8773 81.396L31.9848 70.2299C32.0259 70.1547 32.0563 70.0776 32.0767 70H140C144.418 70 148 66.4183 148 62V8C148 3.58172 144.418 0 140 0H12Z" fill="url(#paint0_linear_156_5425)"/>
<path d="M25.0219 21.1246L19.0789 27.0675M34.2106 21.1246L28.2676 27.0675M42.734 21.087L36.791 27.03M24.6982 30.4292L18.7552 36.3722M33.8869 30.4292L27.9439 36.3422M42.734 30.3992L36.791 36.3422M22.4422 36.3422V42M39.3557 36.3422V42M22.3747 13.8084V12M24.7834 14.8064L26.059 13.5308M19.966 14.8064L18.6904 13.5308M39.3557 13.8084V12M41.7644 14.8064L43.04 13.5308M36.947 14.8064L35.6713 13.5308M19.966 42H25.0219M36.947 42H41.8636M18.0075 21.1246H43.8129V27.03H18.0075V21.1246ZM43.8054 30.4292V36.3422H18.0075L18 30.4091L43.8054 30.4292ZM20.7314 18.9185V16.4948C20.7334 16.2314 20.8394 15.9794 21.0263 15.7939C21.2133 15.6084 21.466 15.5042 21.7294 15.5042H23.0275C23.2896 15.5062 23.5404 15.6112 23.7257 15.7965C23.9111 15.9819 24.0161 16.2327 24.018 16.4948V18.9185H22.3747H20.7314ZM37.7124 18.9185H40.999V16.4948C40.999 16.2321 40.8947 15.9801 40.7089 15.7944C40.5231 15.6086 40.2712 15.5042 40.0085 15.5042H38.7104C38.447 15.5042 38.1943 15.6084 38.0073 15.7939C37.8204 15.9794 37.7143 16.2314 37.7124 16.4948V18.9185Z" stroke="white" stroke-miterlimit="22.93"/>
<path d="M60.553 20H59.563V13.015H57.11V12.146H62.995V13.015H60.553V20ZM66.0295 13.994C66.1395 13.994 66.2568 14.0013 66.3815 14.016C66.5135 14.0233 66.6271 14.038 66.7225 14.06L66.6015 14.951C66.5061 14.929 66.3998 14.9107 66.2825 14.896C66.1725 14.8813 66.0661 14.874 65.9635 14.874C65.6628 14.874 65.3805 14.9583 65.1165 15.127C64.8525 15.2883 64.6398 15.5193 64.4785 15.82C64.3245 16.1133 64.2475 16.458 64.2475 16.854V20H63.2795V14.104H64.0715L64.1815 15.182H64.2255C64.4161 14.8593 64.6618 14.5807 64.9625 14.346C65.2631 14.1113 65.6188 13.994 66.0295 13.994ZM68.0984 11.893C68.2451 11.893 68.3734 11.9443 68.4834 12.047C68.6007 12.1423 68.6594 12.2963 68.6594 12.509C68.6594 12.7143 68.6007 12.8683 68.4834 12.971C68.3734 13.0737 68.2451 13.125 68.0984 13.125C67.9371 13.125 67.8014 13.0737 67.6914 12.971C67.5814 12.8683 67.5264 12.7143 67.5264 12.509C67.5264 12.2963 67.5814 12.1423 67.6914 12.047C67.8014 11.9443 67.9371 11.893 68.0984 11.893ZM68.5714 14.104V20H67.6034V14.104H68.5714ZM72.3093 13.994C72.698 13.994 73.0463 14.0673 73.3543 14.214C73.6697 14.3607 73.9373 14.5843 74.1573 14.885H74.2123L74.3443 14.104H75.1143V20.099C75.1143 20.9423 74.898 21.5767 74.4653 22.002C74.04 22.4273 73.3763 22.64 72.4743 22.64C71.609 22.64 70.9013 22.5153 70.3513 22.266V21.375C70.9307 21.683 71.6567 21.837 72.5293 21.837C73.0353 21.837 73.4313 21.6867 73.7173 21.386C74.0107 21.0927 74.1573 20.6893 74.1573 20.176V19.945C74.1573 19.857 74.161 19.7323 74.1683 19.571C74.1757 19.4023 74.183 19.285 74.1903 19.219H74.1463C73.7503 19.813 73.1417 20.11 72.3203 20.11C71.5577 20.11 70.96 19.8423 70.5273 19.307C70.102 18.7717 69.8893 18.0237 69.8893 17.063C69.8893 16.1243 70.102 15.38 70.5273 14.83C70.96 14.2727 71.554 13.994 72.3093 13.994ZM72.4413 14.808C71.95 14.808 71.5687 15.006 71.2973 15.402C71.026 15.7907 70.8903 16.348 70.8903 17.074C70.8903 17.8 71.0223 18.3573 71.2863 18.746C71.5577 19.1273 71.95 19.318 72.4633 19.318C73.0573 19.318 73.49 19.1603 73.7613 18.845C74.0327 18.5223 74.1683 18.0053 74.1683 17.294V17.063C74.1683 16.2563 74.029 15.6807 73.7503 15.336C73.4717 14.984 73.0353 14.808 72.4413 14.808ZM78.8569 13.994C79.2456 13.994 79.5939 14.0673 79.9019 14.214C80.2172 14.3607 80.4849 14.5843 80.7049 14.885H80.7599L80.8919 14.104H81.6619V20.099C81.6619 20.9423 81.4456 21.5767 81.0129 22.002C80.5876 22.4273 79.9239 22.64 79.0219 22.64C78.1566 22.64 77.4489 22.5153 76.8989 22.266V21.375C77.4782 21.683 78.2042 21.837 79.0769 21.837C79.5829 21.837 79.9789 21.6867 80.2649 21.386C80.5582 21.0927 80.7049 20.6893 80.7049 20.176V19.945C80.7049 19.857 80.7086 19.7323 80.7159 19.571C80.7232 19.4023 80.7306 19.285 80.7379 19.219H80.6939C80.2979 19.813 79.6892 20.11 78.8679 20.11C78.1052 20.11 77.5076 19.8423 77.0749 19.307C76.6496 18.7717 76.4369 18.0237 76.4369 17.063C76.4369 16.1243 76.6496 15.38 77.0749 14.83C77.5076 14.2727 78.1016 13.994 78.8569 13.994ZM78.9889 14.808C78.4976 14.808 78.1162 15.006 77.8449 15.402C77.5736 15.7907 77.4379 16.348 77.4379 17.074C77.4379 17.8 77.5699 18.3573 77.8339 18.746C78.1052 19.1273 78.4976 19.318 79.0109 19.318C79.6049 19.318 80.0376 19.1603 80.3089 18.845C80.5802 18.5223 80.7159 18.0053 80.7159 17.294V17.063C80.7159 16.2563 80.5766 15.6807 80.2979 15.336C80.0192 14.984 79.5829 14.808 78.9889 14.808ZM85.5915 13.994C86.0975 13.994 86.5302 14.104 86.8895 14.324C87.2562 14.544 87.5348 14.8557 87.7255 15.259C87.9235 15.655 88.0225 16.1207 88.0225 16.656V17.239H83.9855C84.0002 17.9063 84.1688 18.416 84.4915 18.768C84.8215 19.1127 85.2798 19.285 85.8665 19.285C86.2405 19.285 86.5705 19.252 86.8565 19.186C87.1498 19.1127 87.4505 19.01 87.7585 18.878V19.725C87.4578 19.857 87.1608 19.9523 86.8675 20.011C86.5742 20.077 86.2258 20.11 85.8225 20.11C85.2652 20.11 84.7702 19.9963 84.3375 19.769C83.9122 19.5417 83.5785 19.2043 83.3365 18.757C83.1018 18.3023 82.9845 17.7487 82.9845 17.096C82.9845 16.4507 83.0908 15.897 83.3035 15.435C83.5235 14.973 83.8278 14.6173 84.2165 14.368C84.6125 14.1187 85.0708 13.994 85.5915 13.994ZM85.5805 14.786C85.1185 14.786 84.7518 14.9363 84.4805 15.237C84.2165 15.5303 84.0588 15.941 84.0075 16.469H87.0105C87.0032 15.9703 86.8858 15.567 86.6585 15.259C86.4312 14.9437 86.0718 14.786 85.5805 14.786ZM92.0535 13.994C92.1635 13.994 92.2808 14.0013 92.4055 14.016C92.5375 14.0233 92.6511 14.038 92.7465 14.06L92.6255 14.951C92.5301 14.929 92.4238 14.9107 92.3065 14.896C92.1965 14.8813 92.0901 14.874 91.9875 14.874C91.6868 14.874 91.4045 14.9583 91.1405 15.127C90.8765 15.2883 90.6638 15.5193 90.5025 15.82C90.3485 16.1133 90.2715 16.458 90.2715 16.854V20H89.3035V14.104H90.0955L90.2055 15.182H90.2495C90.4401 14.8593 90.6858 14.5807 90.9865 14.346C91.2871 14.1113 91.6428 13.994 92.0535 13.994ZM100.071 16.667C99.9755 16.3663 99.8912 16.073 99.8178 15.787C99.7518 15.4937 99.7005 15.2663 99.6638 15.105H99.6198C99.5905 15.2663 99.5428 15.4937 99.4768 15.787C99.4108 16.073 99.3265 16.37 99.2238 16.678L98.1678 19.989H97.0678L95.4508 14.093H96.4518L97.2658 17.239C97.3465 17.5543 97.4235 17.8733 97.4968 18.196C97.5702 18.5187 97.6215 18.7863 97.6508 18.999H97.6948C97.7242 18.8743 97.7572 18.7203 97.7938 18.537C97.8378 18.3537 97.8855 18.163 97.9368 17.965C97.9882 17.7597 98.0395 17.5763 98.0908 17.415L99.1358 14.093H100.192L101.204 17.415C101.285 17.6643 101.362 17.9357 101.435 18.229C101.516 18.5223 101.571 18.7753 101.6 18.988H101.644C101.666 18.8047 101.714 18.5517 101.787 18.229C101.868 17.9063 101.952 17.5763 102.04 17.239L102.865 14.093H103.855L102.216 19.989H101.083L100.071 16.667ZM106.925 14.005C107.644 14.005 108.176 14.1627 108.52 14.478C108.865 14.7933 109.037 15.2957 109.037 15.985V20H108.333L108.146 19.164H108.102C107.846 19.4867 107.574 19.725 107.288 19.879C107.01 20.033 106.621 20.11 106.122 20.11C105.587 20.11 105.143 19.9707 104.791 19.692C104.439 19.406 104.263 18.9623 104.263 18.361C104.263 17.7743 104.494 17.3233 104.956 17.008C105.418 16.6853 106.13 16.5093 107.09 16.48L108.091 16.447V16.095C108.091 15.6037 107.985 15.2627 107.772 15.072C107.56 14.8813 107.259 14.786 106.87 14.786C106.562 14.786 106.269 14.8337 105.99 14.929C105.712 15.017 105.451 15.1197 105.209 15.237L104.912 14.511C105.169 14.3717 105.473 14.2543 105.825 14.159C106.177 14.0563 106.544 14.005 106.925 14.005ZM107.211 17.151C106.478 17.1803 105.968 17.2977 105.682 17.503C105.404 17.7083 105.264 17.998 105.264 18.372C105.264 18.702 105.363 18.944 105.561 19.098C105.767 19.252 106.027 19.329 106.342 19.329C106.841 19.329 107.255 19.1933 107.585 18.922C107.915 18.6433 108.08 18.218 108.08 17.646V17.118L107.211 17.151ZM113.388 13.994C113.498 13.994 113.616 14.0013 113.74 14.016C113.872 14.0233 113.986 14.038 114.081 14.06L113.96 14.951C113.865 14.929 113.759 14.9107 113.641 14.896C113.531 14.8813 113.425 14.874 113.322 14.874C113.022 14.874 112.739 14.9583 112.475 15.127C112.211 15.2883 111.999 15.5193 111.837 15.82C111.683 16.1133 111.606 16.458 111.606 16.854V20H110.638V14.104H111.43L111.54 15.182H111.584C111.775 14.8593 112.021 14.5807 112.321 14.346C112.622 14.1113 112.978 13.994 113.388 13.994ZM117.8 13.994C118.504 13.994 119.036 14.1663 119.395 14.511C119.755 14.8483 119.934 15.3983 119.934 16.161V20H118.977V16.227C118.977 15.281 118.537 14.808 117.657 14.808C117.005 14.808 116.554 14.9913 116.304 15.358C116.055 15.7247 115.93 16.2527 115.93 16.942V20H114.962V14.104H115.743L115.886 14.907H115.941C116.132 14.599 116.396 14.3717 116.733 14.225C117.071 14.071 117.426 13.994 117.8 13.994ZM122.037 11.893C122.184 11.893 122.312 11.9443 122.422 12.047C122.539 12.1423 122.598 12.2963 122.598 12.509C122.598 12.7143 122.539 12.8683 122.422 12.971C122.312 13.0737 122.184 13.125 122.037 13.125C121.876 13.125 121.74 13.0737 121.63 12.971C121.52 12.8683 121.465 12.7143 121.465 12.509C121.465 12.2963 121.52 12.1423 121.63 12.047C121.74 11.9443 121.876 11.893 122.037 11.893ZM122.51 14.104V20H121.542V14.104H122.51ZM126.996 13.994C127.7 13.994 128.232 14.1663 128.591 14.511C128.95 14.8483 129.13 15.3983 129.13 16.161V20H128.173V16.227C128.173 15.281 127.733 14.808 126.853 14.808C126.2 14.808 125.749 14.9913 125.5 15.358C125.251 15.7247 125.126 16.2527 125.126 16.942V20H124.158V14.104H124.939L125.082 14.907H125.137C125.328 14.599 125.592 14.3717 125.929 14.225C126.266 14.071 126.622 13.994 126.996 13.994ZM132.828 13.994C133.216 13.994 133.565 14.0673 133.873 14.214C134.188 14.3607 134.456 14.5843 134.676 14.885H134.731L134.863 14.104H135.633V20.099C135.633 20.9423 135.416 21.5767 134.984 22.002C134.558 22.4273 133.895 22.64 132.993 22.64C132.127 22.64 131.42 22.5153 130.87 22.266V21.375C131.449 21.683 132.175 21.837 133.048 21.837C133.554 21.837 133.95 21.6867 134.236 21.386C134.529 21.0927 134.676 20.6893 134.676 20.176V19.945C134.676 19.857 134.679 19.7323 134.687 19.571C134.694 19.4023 134.701 19.285 134.709 19.219H134.665C134.269 19.813 133.66 20.11 132.839 20.11C132.076 20.11 131.478 19.8423 131.046 19.307C130.62 18.7717 130.408 18.0237 130.408 17.063C130.408 16.1243 130.62 15.38 131.046 14.83C131.478 14.2727 132.072 13.994 132.828 13.994ZM132.96 14.808C132.468 14.808 132.087 15.006 131.816 15.402C131.544 15.7907 131.409 16.348 131.409 17.074C131.409 17.8 131.541 18.3573 131.805 18.746C132.076 19.1273 132.468 19.318 132.982 19.318C133.576 19.318 134.008 19.1603 134.28 18.845C134.551 18.5223 134.687 18.0053 134.687 17.294V17.063C134.687 16.2563 134.547 15.6807 134.269 15.336C133.99 14.984 133.554 14.808 132.96 14.808ZM137.142 14.698C137.142 14.4193 137.208 14.225 137.34 14.115C137.472 14.005 137.63 13.95 137.813 13.95C138.004 13.95 138.165 14.005 138.297 14.115C138.437 14.225 138.506 14.4193 138.506 14.698C138.506 14.962 138.437 15.1527 138.297 15.27C138.165 15.3873 138.004 15.446 137.813 15.446C137.63 15.446 137.472 15.3873 137.34 15.27C137.208 15.1527 137.142 14.962 137.142 14.698ZM137.142 19.406C137.142 19.1347 137.208 18.944 137.34 18.834C137.472 18.724 137.63 18.669 137.813 18.669C138.004 18.669 138.165 18.724 138.297 18.834C138.437 18.944 138.506 19.1347 138.506 19.406C138.506 19.67 138.437 19.8607 138.297 19.978C138.165 20.0953 138.004 20.154 137.813 20.154C137.63 20.154 137.472 20.0953 137.34 19.978C137.208 19.8607 137.142 19.67 137.142 19.406Z" fill="white"/>
<path d="M59.409 36H58.023V28.146H62.478V29.323H59.409V31.633H62.269V32.81H59.409V36ZM66.7139 29.928C66.8093 29.928 66.9119 29.9317 67.0219 29.939C67.1393 29.9463 67.2383 29.961 67.3189 29.983L67.1979 31.27C67.1246 31.2553 67.0366 31.2443 66.9339 31.237C66.8313 31.2223 66.7396 31.215 66.6589 31.215C66.3656 31.215 66.0906 31.2773 65.8339 31.402C65.5773 31.5193 65.3683 31.7063 65.2069 31.963C65.0529 32.2123 64.9759 32.5277 64.9759 32.909V36H63.5899V30.038H64.6569L64.8549 31.072H64.9209C65.0969 30.7567 65.3389 30.489 65.6469 30.269C65.9549 30.0417 66.3106 29.928 66.7139 29.928ZM70.3871 29.928C71.1864 29.928 71.8171 30.1663 72.2791 30.643C72.7484 31.1197 72.9831 31.7833 72.9831 32.634V33.338H69.0451C69.0598 33.8807 69.2101 34.3023 69.4961 34.603C69.7821 34.8963 70.1781 35.043 70.6841 35.043C71.0654 35.043 71.4101 35.0063 71.7181 34.933C72.0261 34.8523 72.3414 34.7387 72.6641 34.592V35.703C72.3708 35.8423 72.0664 35.945 71.7511 36.011C71.4358 36.077 71.0581 36.11 70.6181 36.11C70.0388 36.11 69.5218 36 69.0671 35.78C68.6198 35.5527 68.2678 35.2117 68.0111 34.757C67.7618 34.3023 67.6371 33.7377 67.6371 33.063C67.6371 32.0437 67.8901 31.2663 68.3961 30.731C68.9021 30.1957 69.5658 29.928 70.3871 29.928ZM70.3871 30.951C70.0131 30.951 69.7088 31.072 69.4741 31.314C69.2468 31.5487 69.1148 31.9007 69.0781 32.37H71.6411C71.6338 31.9593 71.5274 31.622 71.3221 31.358C71.1241 31.0867 70.8124 30.951 70.3871 30.951ZM78.2197 34.273C78.2197 34.8743 78.0034 35.3327 77.5707 35.648C77.1454 35.956 76.533 36.11 75.7337 36.11C75.3157 36.11 74.9564 36.0807 74.6557 36.022C74.3624 35.9633 74.0764 35.8717 73.7977 35.747V34.57C74.091 34.7093 74.4137 34.8267 74.7657 34.922C75.125 35.0173 75.4624 35.065 75.7777 35.065C76.159 35.065 76.434 35.0063 76.6027 34.889C76.7714 34.7717 76.8557 34.614 76.8557 34.416C76.8557 34.2987 76.8227 34.196 76.7567 34.108C76.6907 34.0127 76.5587 33.91 76.3607 33.8C76.17 33.69 75.884 33.5543 75.5027 33.393C75.1214 33.2463 74.8024 33.096 74.5457 32.942C74.2964 32.7807 74.1057 32.5937 73.9737 32.381C73.849 32.1683 73.7867 31.8933 73.7867 31.556C73.7867 31.0207 73.9957 30.6173 74.4137 30.346C74.839 30.0673 75.4037 29.928 76.1077 29.928C76.4744 29.928 76.819 29.9647 77.1417 30.038C77.4717 30.1113 77.8017 30.2213 78.1317 30.368L77.6917 31.391C77.413 31.2737 77.1417 31.1747 76.8777 31.094C76.6137 31.0133 76.3424 30.973 76.0637 30.973C75.455 30.973 75.1507 31.1453 75.1507 31.49C75.1507 31.6147 75.1874 31.721 75.2607 31.809C75.3414 31.897 75.477 31.9923 75.6677 32.095C75.8657 32.1903 76.1444 32.3077 76.5037 32.447C76.8557 32.5863 77.16 32.733 77.4167 32.887C77.6734 33.0337 77.8714 33.217 78.0107 33.437C78.15 33.657 78.2197 33.9357 78.2197 34.273ZM80.7193 29.631C80.7193 29.8657 80.7083 30.0967 80.6863 30.324C80.6716 30.544 80.6569 30.709 80.6423 30.819H80.7303C80.9209 30.5183 81.1703 30.2947 81.4783 30.148C81.7863 30.0013 82.1273 29.928 82.5013 29.928C83.1759 29.928 83.7039 30.1003 84.0853 30.445C84.4666 30.7897 84.6573 31.347 84.6573 32.117V36H83.2713V32.392C83.2713 31.4973 82.9046 31.05 82.1713 31.05C81.6139 31.05 81.2326 31.226 81.0273 31.578C80.8219 31.93 80.7193 32.4323 80.7193 33.085V36H79.3333V27.64H80.7193V29.631ZM91.1843 29.928C91.9543 29.928 92.5373 30.0967 92.9333 30.434C93.3366 30.7713 93.5383 31.292 93.5383 31.996V36H92.5593L92.2843 35.175H92.2403C91.9836 35.4977 91.7123 35.736 91.4263 35.89C91.1403 36.0367 90.7516 36.11 90.2603 36.11C89.725 36.11 89.2813 35.9597 88.9293 35.659C88.5773 35.3583 88.4013 34.8927 88.4013 34.262C88.4013 33.646 88.625 33.184 89.0723 32.876C89.527 32.568 90.2126 32.3957 91.1293 32.359L92.1633 32.326V32.029C92.1633 31.655 92.0716 31.3873 91.8883 31.226C91.705 31.0573 91.4483 30.973 91.1183 30.973C90.8176 30.973 90.528 31.017 90.2493 31.105C89.978 31.193 89.7066 31.2957 89.4353 31.413L88.9953 30.445C89.2886 30.291 89.6223 30.1663 89.9963 30.071C90.3776 29.9757 90.7736 29.928 91.1843 29.928ZM91.4373 33.206C90.8286 33.228 90.407 33.3343 90.1723 33.525C89.9376 33.7083 89.8203 33.9577 89.8203 34.273C89.8203 34.559 89.901 34.7643 90.0623 34.889C90.231 35.0063 90.451 35.065 90.7223 35.065C91.1256 35.065 91.4666 34.9513 91.7453 34.724C92.024 34.4893 92.1633 34.1447 92.1633 33.69V33.184L91.4373 33.206ZM99.1141 34.273C99.1141 34.8743 98.8978 35.3327 98.4651 35.648C98.0398 35.956 97.4274 36.11 96.6281 36.11C96.2101 36.11 95.8508 36.0807 95.5501 36.022C95.2568 35.9633 94.9708 35.8717 94.6921 35.747V34.57C94.9854 34.7093 95.3081 34.8267 95.6601 34.922C96.0194 35.0173 96.3568 35.065 96.6721 35.065C97.0534 35.065 97.3284 35.0063 97.4971 34.889C97.6658 34.7717 97.7501 34.614 97.7501 34.416C97.7501 34.2987 97.7171 34.196 97.6511 34.108C97.5851 34.0127 97.4531 33.91 97.2551 33.8C97.0644 33.69 96.7784 33.5543 96.3971 33.393C96.0158 33.2463 95.6968 33.096 95.4401 32.942C95.1908 32.7807 95.0001 32.5937 94.8681 32.381C94.7434 32.1683 94.6811 31.8933 94.6811 31.556C94.6811 31.0207 94.8901 30.6173 95.3081 30.346C95.7334 30.0673 96.2981 29.928 97.0021 29.928C97.3688 29.928 97.7134 29.9647 98.0361 30.038C98.3661 30.1113 98.6961 30.2213 99.0261 30.368L98.5861 31.391C98.3074 31.2737 98.0361 31.1747 97.7721 31.094C97.5081 31.0133 97.2368 30.973 96.9581 30.973C96.3494 30.973 96.0451 31.1453 96.0451 31.49C96.0451 31.6147 96.0818 31.721 96.1551 31.809C96.2358 31.897 96.3714 31.9923 96.5621 32.095C96.7601 32.1903 97.0388 32.3077 97.3981 32.447C97.7501 32.5863 98.0544 32.733 98.3111 32.887C98.5678 33.0337 98.7658 33.217 98.9051 33.437C99.0444 33.657 99.1141 33.9357 99.1141 34.273ZM103.363 29.928C104.059 29.928 104.62 30.1883 105.046 30.709C105.471 31.2223 105.684 31.9887 105.684 33.008C105.684 34.0273 105.464 34.801 105.024 35.329C104.591 35.8497 104.026 36.11 103.33 36.11C102.89 36.11 102.534 36.0293 102.263 35.868C101.991 35.7067 101.775 35.5197 101.614 35.307H101.526C101.548 35.4463 101.566 35.6003 101.581 35.769C101.603 35.9303 101.614 36.0807 101.614 36.22V38.64H100.228V30.038H101.35L101.548 30.83H101.614C101.775 30.5807 101.995 30.368 102.274 30.192C102.552 30.016 102.915 29.928 103.363 29.928ZM102.967 31.05C102.475 31.05 102.127 31.1967 101.922 31.49C101.724 31.7833 101.621 32.227 101.614 32.821V32.997C101.614 33.635 101.709 34.1263 101.9 34.471C102.098 34.8083 102.461 34.977 102.989 34.977C103.421 34.977 103.74 34.801 103.946 34.449C104.158 34.0897 104.265 33.602 104.265 32.986C104.265 32.37 104.158 31.8933 103.946 31.556C103.74 31.2187 103.414 31.05 102.967 31.05ZM108.279 29.631C108.279 29.8657 108.268 30.0967 108.246 30.324C108.232 30.544 108.217 30.709 108.202 30.819H108.29C108.481 30.5183 108.73 30.2947 109.038 30.148C109.346 30.0013 109.687 29.928 110.061 29.928C110.736 29.928 111.264 30.1003 111.645 30.445C112.027 30.7897 112.217 31.347 112.217 32.117V36H110.831V32.392C110.831 31.4973 110.465 31.05 109.731 31.05C109.174 31.05 108.793 31.226 108.587 31.578C108.382 31.93 108.279 32.4323 108.279 33.085V36H106.893V27.64H108.279V29.631ZM116.107 29.928C116.877 29.928 117.46 30.0967 117.856 30.434C118.259 30.7713 118.461 31.292 118.461 31.996V36H117.482L117.207 35.175H117.163C116.906 35.4977 116.635 35.736 116.349 35.89C116.063 36.0367 115.674 36.11 115.183 36.11C114.648 36.11 114.204 35.9597 113.852 35.659C113.5 35.3583 113.324 34.8927 113.324 34.262C113.324 33.646 113.548 33.184 113.995 32.876C114.45 32.568 115.135 32.3957 116.052 32.359L117.086 32.326V32.029C117.086 31.655 116.994 31.3873 116.811 31.226C116.628 31.0573 116.371 30.973 116.041 30.973C115.74 30.973 115.451 31.017 115.172 31.105C114.901 31.193 114.629 31.2957 114.358 31.413L113.918 30.445C114.211 30.291 114.545 30.1663 114.919 30.071C115.3 29.9757 115.696 29.928 116.107 29.928ZM116.36 33.206C115.751 33.228 115.33 33.3343 115.095 33.525C114.86 33.7083 114.743 33.9577 114.743 34.273C114.743 34.559 114.824 34.7643 114.985 34.889C115.154 35.0063 115.374 35.065 115.645 35.065C116.048 35.065 116.389 34.9513 116.668 34.724C116.947 34.4893 117.086 34.1447 117.086 33.69V33.184L116.36 33.206ZM121.364 36H119.978V27.64H121.364V36ZM125.226 34.999C125.395 34.999 125.56 34.9843 125.721 34.955C125.89 34.9183 126.044 34.878 126.183 34.834V35.868C126.036 35.934 125.846 35.989 125.611 36.033C125.376 36.0843 125.131 36.11 124.874 36.11C124.537 36.11 124.229 36.055 123.95 35.945C123.671 35.8277 123.451 35.6297 123.29 35.351C123.129 35.0723 123.048 34.6837 123.048 34.185V31.083H122.245V30.478L123.125 29.994L123.565 28.729H124.434V30.038H126.128V31.083H124.434V34.174C124.434 34.4527 124.507 34.6617 124.654 34.801C124.801 34.933 124.991 34.999 125.226 34.999Z" fill="white"/>
<path d="M70.495 54.255C70.495 53.793 70.534 53.34 70.612 52.896C70.696 52.446 70.843 52.041 71.053 51.681C71.269 51.315 71.569 51.024 71.953 50.808C72.337 50.592 72.832 50.484 73.438 50.484C73.564 50.484 73.702 50.49 73.852 50.502C74.008 50.514 74.134 50.535 74.23 50.565V51.24C74.122 51.204 73.999 51.177 73.861 51.159C73.729 51.141 73.594 51.132 73.456 51.132C73.042 51.132 72.697 51.201 72.421 51.339C72.145 51.477 71.926 51.666 71.764 51.906C71.608 52.146 71.494 52.422 71.422 52.734C71.35 53.046 71.305 53.379 71.287 53.733H71.341C71.479 53.523 71.671 53.346 71.917 53.202C72.163 53.052 72.478 52.977 72.862 52.977C73.42 52.977 73.87 53.148 74.212 53.49C74.554 53.826 74.725 54.306 74.725 54.93C74.725 55.602 74.539 56.13 74.167 56.514C73.801 56.898 73.306 57.09 72.682 57.09C72.274 57.09 71.905 56.988 71.575 56.784C71.245 56.58 70.981 56.268 70.783 55.848C70.591 55.428 70.495 54.897 70.495 54.255ZM72.673 56.424C73.051 56.424 73.357 56.304 73.591 56.064C73.825 55.818 73.942 55.44 73.942 54.93C73.942 54.522 73.837 54.198 73.627 53.958C73.423 53.718 73.114 53.598 72.7 53.598C72.418 53.598 72.172 53.658 71.962 53.778C71.752 53.892 71.587 54.039 71.467 54.219C71.353 54.399 71.296 54.585 71.296 54.777C71.296 55.035 71.347 55.293 71.449 55.551C71.551 55.803 71.704 56.013 71.908 56.181C72.112 56.343 72.367 56.424 72.673 56.424ZM79.9384 55.542H79.0024V57H78.2374V55.542H75.1594V54.867L78.1834 50.538H79.0024V54.831H79.9384V55.542ZM78.2374 52.806C78.2374 52.494 78.2434 52.23 78.2554 52.014C78.2674 51.792 78.2764 51.582 78.2824 51.384H78.2464C78.1984 51.498 78.1384 51.621 78.0664 51.753C77.9944 51.885 77.9254 51.996 77.8594 52.086L75.9334 54.831H78.2374V52.806ZM83.6557 57H82.8637V50.16H83.6557V57ZM85.409 50.367C85.529 50.367 85.634 50.409 85.724 50.493C85.82 50.571 85.868 50.697 85.868 50.871C85.868 51.039 85.82 51.165 85.724 51.249C85.634 51.333 85.529 51.375 85.409 51.375C85.277 51.375 85.166 51.333 85.076 51.249C84.986 51.165 84.941 51.039 84.941 50.871C84.941 50.697 84.986 50.571 85.076 50.493C85.166 50.409 85.277 50.367 85.409 50.367ZM85.796 52.176V57H85.004V52.176H85.796ZM87.9273 53.733C87.9273 53.829 87.9213 53.955 87.9093 54.111C87.9033 54.267 87.8973 54.402 87.8913 54.516H87.9273C87.9633 54.468 88.0173 54.399 88.0893 54.309C88.1613 54.219 88.2333 54.129 88.3053 54.039C88.3833 53.943 88.4493 53.865 88.5033 53.805L90.0423 52.176H90.9693L89.0163 54.237L91.1043 57H90.1503L88.4763 54.75L87.9273 55.227V57H87.1443V50.16H87.9273V53.733ZM93.6349 52.086C94.0489 52.086 94.4029 52.176 94.6969 52.356C94.9969 52.536 95.2249 52.791 95.3809 53.121C95.5429 53.445 95.6239 53.826 95.6239 54.264V54.741H92.3209C92.3329 55.287 92.4709 55.704 92.7349 55.992C93.0049 56.274 93.3799 56.415 93.8599 56.415C94.1659 56.415 94.4359 56.388 94.6699 56.334C94.9099 56.274 95.1559 56.19 95.4079 56.082V56.775C95.1619 56.883 94.9189 56.961 94.6789 57.009C94.4389 57.063 94.1539 57.09 93.8239 57.09C93.3679 57.09 92.9629 56.997 92.6089 56.811C92.2609 56.625 91.9879 56.349 91.7899 55.983C91.5979 55.611 91.5019 55.158 91.5019 54.624C91.5019 54.096 91.5889 53.643 91.7629 53.265C91.9429 52.887 92.1919 52.596 92.5099 52.392C92.8339 52.188 93.2089 52.086 93.6349 52.086ZM93.6259 52.734C93.2479 52.734 92.9479 52.857 92.7259 53.103C92.5099 53.343 92.3809 53.679 92.3389 54.111H94.7959C94.7899 53.703 94.6939 53.373 94.5079 53.121C94.3219 52.863 94.0279 52.734 93.6259 52.734ZM99.813 55.668C99.813 56.136 99.639 56.49 99.291 56.73C98.943 56.97 98.475 57.09 97.887 57.09C97.551 57.09 97.26 57.063 97.014 57.009C96.774 56.955 96.561 56.88 96.375 56.784V56.064C96.567 56.16 96.798 56.25 97.068 56.334C97.344 56.412 97.623 56.451 97.905 56.451C98.307 56.451 98.598 56.388 98.778 56.262C98.958 56.13 99.048 55.956 99.048 55.74C99.048 55.62 99.015 55.512 98.949 55.416C98.883 55.32 98.763 55.224 98.589 55.128C98.421 55.032 98.178 54.924 97.86 54.804C97.548 54.684 97.281 54.564 97.059 54.444C96.837 54.324 96.666 54.18 96.546 54.012C96.426 53.844 96.366 53.628 96.366 53.364C96.366 52.956 96.531 52.641 96.861 52.419C97.197 52.197 97.635 52.086 98.175 52.086C98.469 52.086 98.742 52.116 98.994 52.176C99.252 52.23 99.492 52.308 99.714 52.41L99.444 53.04C99.24 52.956 99.027 52.884 98.805 52.824C98.583 52.764 98.355 52.734 98.121 52.734C97.797 52.734 97.548 52.788 97.374 52.896C97.206 52.998 97.122 53.139 97.122 53.319C97.122 53.451 97.161 53.565 97.239 53.661C97.317 53.751 97.446 53.841 97.626 53.931C97.812 54.015 98.058 54.117 98.364 54.237C98.67 54.351 98.931 54.468 99.147 54.588C99.363 54.708 99.528 54.855 99.642 55.029C99.756 55.197 99.813 55.41 99.813 55.668Z" fill="white"/>
<path d="M61.4537 51.1539C61.2059 50.7984 60.8812 50.5087 60.5059 50.3083C60.1307 50.1078 59.7154 50.0022 59.2936 50C57.855 50 57 51.3958 57 52.7937C57 54.1916 58.1859 55.1485 58.6442 55.6302C59.1025 56.1119 61.2893 57.6147 61.4455 58C61.5996 57.6147 63.7782 56.1161 64.2447 55.6302C64.7112 55.1442 65.8889 54.1916 65.8889 52.7937C65.8889 51.3958 65.0504 50 63.6117 50C63.1903 50.0024 62.7753 50.1081 62.4004 50.3085C62.0255 50.509 61.7012 50.7986 61.4537 51.1539Z" stroke="white" stroke-width="0.8" stroke-linecap="round" stroke-linejoin="round"/>
</g>
<defs>
<filter id="filter0_d_156_5425" x="0" y="0" width="152" height="89.916" filterUnits="userSpaceOnUse" color-interpolation-filters="sRGB">
<feFlood flood-opacity="0" result="BackgroundImageFix"/>
<feColorMatrix in="SourceAlpha" type="matrix" values="0 0 0 0 0 0 0 0 0 0 0 0 0 0 0 0 0 0 127 0" result="hardAlpha"/>
<feOffset dy="4"/>
<feGaussianBlur stdDeviation="2"/>
<feComposite in2="hardAlpha" operator="out"/>
<feColorMatrix type="matrix" values="0 0 0 0 0 0 0 0 0 0 0 0 0 0 0 0 0 0 0.25 0"/>
<feBlend mode="normal" in2="BackgroundImageFix" result="effect1_dropShadow_156_5425"/>
<feBlend mode="normal" in="SourceGraphic" in2="effect1_dropShadow_156_5425" result="shape"/>
</filter>
<linearGradient id="paint0_linear_156_5425" x1="76" y1="0" x2="76" y2="81.9161" gradientUnits="userSpaceOnUse">
<stop stop-color="#5D59E9"/>
<stop offset="1" stop-color="#8826E4"/>
</linearGradient>
</defs>
</svg>
