<svg width="30" height="37" viewBox="0 0 30 37" fill="none" xmlns="http://www.w3.org/2000/svg">
<path d="M6.47389 32.4629C8.76977 33.7885 11.7055 33.0019 13.031 30.706C14.3566 28.4101 13.5699 25.4743 11.2741 24.1488C8.97817 22.8233 6.04243 23.6099 4.71691 25.9058C3.39138 28.2017 4.178 31.1374 6.47389 32.4629ZM14.0704 31.306C12.4134 34.1759 8.74372 35.1592 5.87383 33.5023C3.00395 31.8453 2.02065 28.1756 3.67758 25.3057C5.33451 22.4359 9.00422 21.4526 11.8741 23.1095C14.744 24.7664 15.7273 28.4361 14.0704 31.306Z" fill="#191919" stroke="white" stroke-width="1.5"/>
<path d="M24.0813 28.5328C23.8829 28.8764 23.4537 29.179 22.6528 29.3273C21.8556 29.4749 20.7908 29.4466 19.5114 29.2177C16.9593 28.7611 13.7194 27.5361 10.4182 25.6302C7.11698 23.7243 4.43622 21.5308 2.76469 19.549C1.92677 18.5555 1.36988 17.6474 1.09911 16.8832C0.827093 16.1155 0.874525 15.5925 1.0729 15.2489C1.27127 14.9053 1.70048 14.6028 2.50133 14.4545C3.29852 14.3069 4.3634 14.3351 5.64275 14.5641C8.19484 15.0207 11.4348 16.2456 14.736 18.1516C18.0372 20.0575 20.7179 22.2509 22.3895 24.2328C23.2274 25.2263 23.7843 26.1344 24.0551 26.8986C24.3271 27.6662 24.2796 28.1892 24.0813 28.5328Z" stroke="white" stroke-width="1.5"/>
<path d="M23.7022 2.62252C27.8357 5.00901 29.2769 10.1786 26.9821 14.1534C25.7257 16.3296 24.0511 17.3209 22.1823 18.2556C21.9756 18.359 21.7654 18.462 21.5526 18.5663C19.8574 19.3973 17.9988 20.3085 16.4413 22.111C15.8944 22.744 15.0693 22.9145 14.4977 22.5845L11.0169 20.5748C10.4453 20.2448 10.1804 19.445 10.4551 18.6548C11.2374 16.4048 11.0972 14.3396 10.9692 12.456C10.9532 12.2196 10.9373 11.986 10.9235 11.7553C10.7985 9.66952 10.8198 7.72368 12.0762 5.54744C14.371 1.57272 19.5687 0.236036 23.7022 2.62252Z" stroke="white" stroke-width="1.5"/>
</svg>
