<svg width="180" height="67" viewBox="0 0 180 67" fill="none" xmlns="http://www.w3.org/2000/svg">
<g filter="url(#filter0_d_76_8136)">
<path fill-rule="evenodd" clip-rule="evenodd" d="M12 0C7.58172 0 4 3.58172 4 8V41C4 45.4183 7.58173 49 12 49H18.9834L24.1227 58.396C24.502 59.0895 25.498 59.0895 25.8773 58.396L31.0166 49H168C172.418 49 176 45.4183 176 41V8C176 3.58172 172.418 0 168 0H12Z" fill="url(#paint0_linear_76_8136)"/>
<path d="M51.553 20H50.563V13.015H48.11V12.146H53.995V13.015H51.553V20ZM57.0295 13.994C57.1395 13.994 57.2568 14.0013 57.3815 14.016C57.5135 14.0233 57.6271 14.038 57.7225 14.06L57.6015 14.951C57.5061 14.929 57.3998 14.9107 57.2825 14.896C57.1725 14.8813 57.0661 14.874 56.9635 14.874C56.6628 14.874 56.3805 14.9583 56.1165 15.127C55.8525 15.2883 55.6398 15.5193 55.4785 15.82C55.3245 16.1133 55.2475 16.458 55.2475 16.854V20H54.2795V14.104H55.0715L55.1815 15.182H55.2255C55.4161 14.8593 55.6618 14.5807 55.9625 14.346C56.2631 14.1113 56.6188 13.994 57.0295 13.994ZM59.0984 11.893C59.2451 11.893 59.3734 11.9443 59.4834 12.047C59.6007 12.1423 59.6594 12.2963 59.6594 12.509C59.6594 12.7143 59.6007 12.8683 59.4834 12.971C59.3734 13.0737 59.2451 13.125 59.0984 13.125C58.9371 13.125 58.8014 13.0737 58.6914 12.971C58.5814 12.8683 58.5264 12.7143 58.5264 12.509C58.5264 12.2963 58.5814 12.1423 58.6914 12.047C58.8014 11.9443 58.9371 11.893 59.0984 11.893ZM59.5714 14.104V20H58.6034V14.104H59.5714ZM63.3093 13.994C63.698 13.994 64.0463 14.0673 64.3543 14.214C64.6697 14.3607 64.9373 14.5843 65.1573 14.885H65.2123L65.3443 14.104H66.1143V20.099C66.1143 20.9423 65.898 21.5767 65.4653 22.002C65.04 22.4273 64.3763 22.64 63.4743 22.64C62.609 22.64 61.9013 22.5153 61.3513 22.266V21.375C61.9307 21.683 62.6567 21.837 63.5293 21.837C64.0353 21.837 64.4313 21.6867 64.7173 21.386C65.0107 21.0927 65.1573 20.6893 65.1573 20.176V19.945C65.1573 19.857 65.161 19.7323 65.1683 19.571C65.1757 19.4023 65.183 19.285 65.1903 19.219H65.1463C64.7503 19.813 64.1417 20.11 63.3203 20.11C62.5577 20.11 61.96 19.8423 61.5273 19.307C61.102 18.7717 60.8893 18.0237 60.8893 17.063C60.8893 16.1243 61.102 15.38 61.5273 14.83C61.96 14.2727 62.554 13.994 63.3093 13.994ZM63.4413 14.808C62.95 14.808 62.5687 15.006 62.2973 15.402C62.026 15.7907 61.8903 16.348 61.8903 17.074C61.8903 17.8 62.0223 18.3573 62.2863 18.746C62.5577 19.1273 62.95 19.318 63.4633 19.318C64.0573 19.318 64.49 19.1603 64.7613 18.845C65.0327 18.5223 65.1683 18.0053 65.1683 17.294V17.063C65.1683 16.2563 65.029 15.6807 64.7503 15.336C64.4717 14.984 64.0353 14.808 63.4413 14.808ZM69.8569 13.994C70.2456 13.994 70.5939 14.0673 70.9019 14.214C71.2172 14.3607 71.4849 14.5843 71.7049 14.885H71.7599L71.8919 14.104H72.6619V20.099C72.6619 20.9423 72.4456 21.5767 72.0129 22.002C71.5876 22.4273 70.9239 22.64 70.0219 22.64C69.1566 22.64 68.4489 22.5153 67.8989 22.266V21.375C68.4782 21.683 69.2042 21.837 70.0769 21.837C70.5829 21.837 70.9789 21.6867 71.2649 21.386C71.5582 21.0927 71.7049 20.6893 71.7049 20.176V19.945C71.7049 19.857 71.7086 19.7323 71.7159 19.571C71.7232 19.4023 71.7306 19.285 71.7379 19.219H71.6939C71.2979 19.813 70.6892 20.11 69.8679 20.11C69.1052 20.11 68.5076 19.8423 68.0749 19.307C67.6496 18.7717 67.4369 18.0237 67.4369 17.063C67.4369 16.1243 67.6496 15.38 68.0749 14.83C68.5076 14.2727 69.1016 13.994 69.8569 13.994ZM69.9889 14.808C69.4976 14.808 69.1162 15.006 68.8449 15.402C68.5736 15.7907 68.4379 16.348 68.4379 17.074C68.4379 17.8 68.5699 18.3573 68.8339 18.746C69.1052 19.1273 69.4976 19.318 70.0109 19.318C70.6049 19.318 71.0376 19.1603 71.3089 18.845C71.5802 18.5223 71.7159 18.0053 71.7159 17.294V17.063C71.7159 16.2563 71.5766 15.6807 71.2979 15.336C71.0192 14.984 70.5829 14.808 69.9889 14.808ZM76.5915 13.994C77.0975 13.994 77.5302 14.104 77.8895 14.324C78.2562 14.544 78.5348 14.8557 78.7255 15.259C78.9235 15.655 79.0225 16.1207 79.0225 16.656V17.239H74.9855C75.0002 17.9063 75.1688 18.416 75.4915 18.768C75.8215 19.1127 76.2798 19.285 76.8665 19.285C77.2405 19.285 77.5705 19.252 77.8565 19.186C78.1498 19.1127 78.4505 19.01 78.7585 18.878V19.725C78.4578 19.857 78.1608 19.9523 77.8675 20.011C77.5742 20.077 77.2258 20.11 76.8225 20.11C76.2652 20.11 75.7702 19.9963 75.3375 19.769C74.9122 19.5417 74.5785 19.2043 74.3365 18.757C74.1018 18.3023 73.9845 17.7487 73.9845 17.096C73.9845 16.4507 74.0908 15.897 74.3035 15.435C74.5235 14.973 74.8278 14.6173 75.2165 14.368C75.6125 14.1187 76.0708 13.994 76.5915 13.994ZM76.5805 14.786C76.1185 14.786 75.7518 14.9363 75.4805 15.237C75.2165 15.5303 75.0588 15.941 75.0075 16.469H78.0105C78.0032 15.9703 77.8858 15.567 77.6585 15.259C77.4312 14.9437 77.0718 14.786 76.5805 14.786ZM83.0535 13.994C83.1635 13.994 83.2808 14.0013 83.4055 14.016C83.5375 14.0233 83.6511 14.038 83.7465 14.06L83.6255 14.951C83.5301 14.929 83.4238 14.9107 83.3065 14.896C83.1965 14.8813 83.0901 14.874 82.9875 14.874C82.6868 14.874 82.4045 14.9583 82.1405 15.127C81.8765 15.2883 81.6638 15.5193 81.5025 15.82C81.3485 16.1133 81.2715 16.458 81.2715 16.854V20H80.3035V14.104H81.0955L81.2055 15.182H81.2495C81.4401 14.8593 81.6858 14.5807 81.9865 14.346C82.2871 14.1113 82.6428 13.994 83.0535 13.994ZM91.0708 16.667C90.9755 16.3663 90.8912 16.073 90.8178 15.787C90.7518 15.4937 90.7005 15.2663 90.6638 15.105H90.6198C90.5905 15.2663 90.5428 15.4937 90.4768 15.787C90.4108 16.073 90.3265 16.37 90.2238 16.678L89.1678 19.989H88.0678L86.4508 14.093H87.4518L88.2658 17.239C88.3465 17.5543 88.4235 17.8733 88.4968 18.196C88.5702 18.5187 88.6215 18.7863 88.6508 18.999H88.6948C88.7242 18.8743 88.7572 18.7203 88.7938 18.537C88.8378 18.3537 88.8855 18.163 88.9368 17.965C88.9882 17.7597 89.0395 17.5763 89.0908 17.415L90.1358 14.093H91.1918L92.2038 17.415C92.2845 17.6643 92.3615 17.9357 92.4348 18.229C92.5155 18.5223 92.5705 18.7753 92.5998 18.988H92.6438C92.6658 18.8047 92.7135 18.5517 92.7868 18.229C92.8675 17.9063 92.9518 17.5763 93.0398 17.239L93.8648 14.093H94.8548L93.2158 19.989H92.0828L91.0708 16.667ZM97.9253 14.005C98.644 14.005 99.1756 14.1627 99.5203 14.478C99.865 14.7933 100.037 15.2957 100.037 15.985V20H99.3333L99.1463 19.164H99.1023C98.8456 19.4867 98.5743 19.725 98.2883 19.879C98.0096 20.033 97.621 20.11 97.1223 20.11C96.587 20.11 96.1433 19.9707 95.7913 19.692C95.4393 19.406 95.2633 18.9623 95.2633 18.361C95.2633 17.7743 95.4943 17.3233 95.9563 17.008C96.4183 16.6853 97.1296 16.5093 98.0903 16.48L99.0913 16.447V16.095C99.0913 15.6037 98.985 15.2627 98.7723 15.072C98.5596 14.8813 98.259 14.786 97.8703 14.786C97.5623 14.786 97.269 14.8337 96.9903 14.929C96.7116 15.017 96.4513 15.1197 96.2093 15.237L95.9123 14.511C96.169 14.3717 96.4733 14.2543 96.8253 14.159C97.1773 14.0563 97.544 14.005 97.9253 14.005ZM98.2113 17.151C97.478 17.1803 96.9683 17.2977 96.6823 17.503C96.4036 17.7083 96.2643 17.998 96.2643 18.372C96.2643 18.702 96.3633 18.944 96.5613 19.098C96.7666 19.252 97.027 19.329 97.3423 19.329C97.841 19.329 98.2553 19.1933 98.5853 18.922C98.9153 18.6433 99.0803 18.218 99.0803 17.646V17.118L98.2113 17.151ZM104.388 13.994C104.498 13.994 104.616 14.0013 104.74 14.016C104.872 14.0233 104.986 14.038 105.081 14.06L104.96 14.951C104.865 14.929 104.759 14.9107 104.641 14.896C104.531 14.8813 104.425 14.874 104.322 14.874C104.022 14.874 103.739 14.9583 103.475 15.127C103.211 15.2883 102.999 15.5193 102.837 15.82C102.683 16.1133 102.606 16.458 102.606 16.854V20H101.638V14.104H102.43L102.54 15.182H102.584C102.775 14.8593 103.021 14.5807 103.321 14.346C103.622 14.1113 103.978 13.994 104.388 13.994ZM108.8 13.994C109.504 13.994 110.036 14.1663 110.395 14.511C110.755 14.8483 110.934 15.3983 110.934 16.161V20H109.977V16.227C109.977 15.281 109.537 14.808 108.657 14.808C108.005 14.808 107.554 14.9913 107.304 15.358C107.055 15.7247 106.93 16.2527 106.93 16.942V20H105.962V14.104H106.743L106.886 14.907H106.941C107.132 14.599 107.396 14.3717 107.733 14.225C108.071 14.071 108.426 13.994 108.8 13.994ZM113.037 11.893C113.184 11.893 113.312 11.9443 113.422 12.047C113.539 12.1423 113.598 12.2963 113.598 12.509C113.598 12.7143 113.539 12.8683 113.422 12.971C113.312 13.0737 113.184 13.125 113.037 13.125C112.876 13.125 112.74 13.0737 112.63 12.971C112.52 12.8683 112.465 12.7143 112.465 12.509C112.465 12.2963 112.52 12.1423 112.63 12.047C112.74 11.9443 112.876 11.893 113.037 11.893ZM113.51 14.104V20H112.542V14.104H113.51ZM117.996 13.994C118.7 13.994 119.232 14.1663 119.591 14.511C119.95 14.8483 120.13 15.3983 120.13 16.161V20H119.173V16.227C119.173 15.281 118.733 14.808 117.853 14.808C117.2 14.808 116.749 14.9913 116.5 15.358C116.251 15.7247 116.126 16.2527 116.126 16.942V20H115.158V14.104H115.939L116.082 14.907H116.137C116.328 14.599 116.592 14.3717 116.929 14.225C117.266 14.071 117.622 13.994 117.996 13.994ZM123.828 13.994C124.216 13.994 124.565 14.0673 124.873 14.214C125.188 14.3607 125.456 14.5843 125.676 14.885H125.731L125.863 14.104H126.633V20.099C126.633 20.9423 126.416 21.5767 125.984 22.002C125.558 22.4273 124.895 22.64 123.993 22.64C123.127 22.64 122.42 22.5153 121.87 22.266V21.375C122.449 21.683 123.175 21.837 124.048 21.837C124.554 21.837 124.95 21.6867 125.236 21.386C125.529 21.0927 125.676 20.6893 125.676 20.176V19.945C125.676 19.857 125.679 19.7323 125.687 19.571C125.694 19.4023 125.701 19.285 125.709 19.219H125.665C125.269 19.813 124.66 20.11 123.839 20.11C123.076 20.11 122.478 19.8423 122.046 19.307C121.62 18.7717 121.408 18.0237 121.408 17.063C121.408 16.1243 121.62 15.38 122.046 14.83C122.478 14.2727 123.072 13.994 123.828 13.994ZM123.96 14.808C123.468 14.808 123.087 15.006 122.816 15.402C122.544 15.7907 122.409 16.348 122.409 17.074C122.409 17.8 122.541 18.3573 122.805 18.746C123.076 19.1273 123.468 19.318 123.982 19.318C124.576 19.318 125.008 19.1603 125.28 18.845C125.551 18.5223 125.687 18.0053 125.687 17.294V17.063C125.687 16.2563 125.547 15.6807 125.269 15.336C124.99 14.984 124.554 14.808 123.96 14.808ZM128.142 14.698C128.142 14.4193 128.208 14.225 128.34 14.115C128.472 14.005 128.63 13.95 128.813 13.95C129.004 13.95 129.165 14.005 129.297 14.115C129.437 14.225 129.506 14.4193 129.506 14.698C129.506 14.962 129.437 15.1527 129.297 15.27C129.165 15.3873 129.004 15.446 128.813 15.446C128.63 15.446 128.472 15.3873 128.34 15.27C128.208 15.1527 128.142 14.962 128.142 14.698ZM128.142 19.406C128.142 19.1347 128.208 18.944 128.34 18.834C128.472 18.724 128.63 18.669 128.813 18.669C129.004 18.669 129.165 18.724 129.297 18.834C129.437 18.944 129.506 19.1347 129.506 19.406C129.506 19.67 129.437 19.8607 129.297 19.978C129.165 20.0953 129.004 20.154 128.813 20.154C128.63 20.154 128.472 20.0953 128.34 19.978C128.208 19.8607 128.142 19.67 128.142 19.406Z" fill="white"/>
<path d="M50.409 36H49.023V28.146H53.478V29.323H50.409V31.633H53.269V32.81H50.409V36ZM57.7139 29.928C57.8093 29.928 57.9119 29.9317 58.0219 29.939C58.1393 29.9463 58.2383 29.961 58.3189 29.983L58.1979 31.27C58.1246 31.2553 58.0366 31.2443 57.9339 31.237C57.8313 31.2223 57.7396 31.215 57.6589 31.215C57.3656 31.215 57.0906 31.2773 56.8339 31.402C56.5773 31.5193 56.3683 31.7063 56.2069 31.963C56.0529 32.2123 55.9759 32.5277 55.9759 32.909V36H54.5899V30.038H55.6569L55.8549 31.072H55.9209C56.0969 30.7567 56.3389 30.489 56.6469 30.269C56.9549 30.0417 57.3106 29.928 57.7139 29.928ZM61.3871 29.928C62.1864 29.928 62.8171 30.1663 63.2791 30.643C63.7484 31.1197 63.9831 31.7833 63.9831 32.634V33.338H60.0451C60.0598 33.8807 60.2101 34.3023 60.4961 34.603C60.7821 34.8963 61.1781 35.043 61.6841 35.043C62.0654 35.043 62.4101 35.0063 62.7181 34.933C63.0261 34.8523 63.3414 34.7387 63.6641 34.592V35.703C63.3708 35.8423 63.0664 35.945 62.7511 36.011C62.4358 36.077 62.0581 36.11 61.6181 36.11C61.0388 36.11 60.5218 36 60.0671 35.78C59.6198 35.5527 59.2678 35.2117 59.0111 34.757C58.7618 34.3023 58.6371 33.7377 58.6371 33.063C58.6371 32.0437 58.8901 31.2663 59.3961 30.731C59.9021 30.1957 60.5658 29.928 61.3871 29.928ZM61.3871 30.951C61.0131 30.951 60.7088 31.072 60.4741 31.314C60.2468 31.5487 60.1148 31.9007 60.0781 32.37H62.6411C62.6338 31.9593 62.5274 31.622 62.3221 31.358C62.1241 31.0867 61.8124 30.951 61.3871 30.951ZM69.2197 34.273C69.2197 34.8743 69.0034 35.3327 68.5707 35.648C68.1454 35.956 67.533 36.11 66.7337 36.11C66.3157 36.11 65.9564 36.0807 65.6557 36.022C65.3624 35.9633 65.0764 35.8717 64.7977 35.747V34.57C65.091 34.7093 65.4137 34.8267 65.7657 34.922C66.125 35.0173 66.4624 35.065 66.7777 35.065C67.159 35.065 67.434 35.0063 67.6027 34.889C67.7714 34.7717 67.8557 34.614 67.8557 34.416C67.8557 34.2987 67.8227 34.196 67.7567 34.108C67.6907 34.0127 67.5587 33.91 67.3607 33.8C67.17 33.69 66.884 33.5543 66.5027 33.393C66.1214 33.2463 65.8024 33.096 65.5457 32.942C65.2964 32.7807 65.1057 32.5937 64.9737 32.381C64.849 32.1683 64.7867 31.8933 64.7867 31.556C64.7867 31.0207 64.9957 30.6173 65.4137 30.346C65.839 30.0673 66.4037 29.928 67.1077 29.928C67.4744 29.928 67.819 29.9647 68.1417 30.038C68.4717 30.1113 68.8017 30.2213 69.1317 30.368L68.6917 31.391C68.413 31.2737 68.1417 31.1747 67.8777 31.094C67.6137 31.0133 67.3424 30.973 67.0637 30.973C66.455 30.973 66.1507 31.1453 66.1507 31.49C66.1507 31.6147 66.1874 31.721 66.2607 31.809C66.3414 31.897 66.477 31.9923 66.6677 32.095C66.8657 32.1903 67.1444 32.3077 67.5037 32.447C67.8557 32.5863 68.16 32.733 68.4167 32.887C68.6734 33.0337 68.8714 33.217 69.0107 33.437C69.15 33.657 69.2197 33.9357 69.2197 34.273ZM71.7193 29.631C71.7193 29.8657 71.7083 30.0967 71.6863 30.324C71.6716 30.544 71.6569 30.709 71.6423 30.819H71.7303C71.9209 30.5183 72.1703 30.2947 72.4783 30.148C72.7863 30.0013 73.1273 29.928 73.5013 29.928C74.1759 29.928 74.7039 30.1003 75.0853 30.445C75.4666 30.7897 75.6573 31.347 75.6573 32.117V36H74.2713V32.392C74.2713 31.4973 73.9046 31.05 73.1713 31.05C72.6139 31.05 72.2326 31.226 72.0273 31.578C71.8219 31.93 71.7193 32.4323 71.7193 33.085V36H70.3333V27.64H71.7193V29.631ZM78.5569 36H77.1709V27.64H78.5569V36ZM79.2181 30.038H80.7251L81.9131 33.404C81.9938 33.6167 82.0598 33.8257 82.1111 34.031C82.1624 34.2363 82.1991 34.4453 82.2211 34.658H82.2651C82.2944 34.4747 82.3384 34.273 82.3971 34.053C82.4558 33.833 82.5218 33.6167 82.5951 33.404L83.7391 30.038H85.2351L82.6941 36.792C82.4668 37.386 82.1551 37.8407 81.7591 38.156C81.3704 38.4787 80.8901 38.64 80.3181 38.64C80.1348 38.64 79.9771 38.629 79.8451 38.607C79.7131 38.5923 79.5958 38.574 79.4931 38.552V37.452C79.5738 37.4667 79.6691 37.4813 79.7791 37.496C79.8964 37.5107 80.0174 37.518 80.1421 37.518C80.4868 37.518 80.7581 37.4153 80.9561 37.21C81.1614 37.012 81.3191 36.7627 81.4291 36.462L81.6051 35.978L79.2181 30.038ZM91.6771 29.928C92.3738 29.928 92.9348 30.1883 93.3601 30.709C93.7855 31.2223 93.9981 31.9887 93.9981 33.008C93.9981 34.0273 93.7781 34.801 93.3381 35.329C92.9055 35.8497 92.3408 36.11 91.6441 36.11C91.2041 36.11 90.8485 36.0293 90.5771 35.868C90.3058 35.7067 90.0895 35.5197 89.9281 35.307H89.8401C89.8621 35.4463 89.8805 35.6003 89.8951 35.769C89.9171 35.9303 89.9281 36.0807 89.9281 36.22V38.64H88.5421V30.038H89.6641L89.8621 30.83H89.9281C90.0895 30.5807 90.3095 30.368 90.5881 30.192C90.8668 30.016 91.2298 29.928 91.6771 29.928ZM91.2811 31.05C90.7898 31.05 90.4415 31.1967 90.2361 31.49C90.0381 31.7833 89.9355 32.227 89.9281 32.821V32.997C89.9281 33.635 90.0235 34.1263 90.2141 34.471C90.4121 34.8083 90.7751 34.977 91.3031 34.977C91.7358 34.977 92.0548 34.801 92.2601 34.449C92.4728 34.0897 92.5791 33.602 92.5791 32.986C92.5791 32.37 92.4728 31.8933 92.2601 31.556C92.0548 31.2187 91.7285 31.05 91.2811 31.05ZM100.532 33.008C100.532 33.998 100.275 34.7643 99.7619 35.307C99.2485 35.8423 98.5519 36.11 97.6719 36.11C97.1292 36.11 96.6452 35.989 96.2199 35.747C95.7945 35.505 95.4609 35.153 95.2189 34.691C94.9769 34.229 94.8559 33.668 94.8559 33.008C94.8559 32.018 95.1089 31.259 95.6149 30.731C96.1282 30.1957 96.8249 29.928 97.7049 29.928C98.2549 29.928 98.7425 30.049 99.1679 30.291C99.5932 30.5257 99.9269 30.874 100.169 31.336C100.411 31.7907 100.532 32.348 100.532 33.008ZM96.2749 33.008C96.2749 33.6387 96.3849 34.1263 96.6049 34.471C96.8322 34.8157 97.1952 34.988 97.6939 34.988C98.1925 34.988 98.5519 34.8157 98.7719 34.471C98.9992 34.1263 99.1129 33.6387 99.1129 33.008C99.1129 32.3773 98.9992 31.8933 98.7719 31.556C98.5519 31.2187 98.1889 31.05 97.6829 31.05C97.1915 31.05 96.8322 31.2187 96.6049 31.556C96.3849 31.8933 96.2749 32.3773 96.2749 33.008ZM107.036 30.038V36H105.947L105.76 35.23H105.694C105.496 35.538 105.228 35.7617 104.891 35.901C104.561 36.0403 104.209 36.11 103.835 36.11C103.167 36.11 102.643 35.9377 102.262 35.593C101.888 35.2483 101.701 34.6947 101.701 33.932V30.038H103.087V33.657C103.087 34.5443 103.453 34.988 104.187 34.988C104.744 34.988 105.125 34.8157 105.331 34.471C105.543 34.119 105.65 33.613 105.65 32.953V30.038H107.036ZM111.706 29.928C111.802 29.928 111.904 29.9317 112.014 29.939C112.132 29.9463 112.231 29.961 112.311 29.983L112.19 31.27C112.117 31.2553 112.029 31.2443 111.926 31.237C111.824 31.2223 111.732 31.215 111.651 31.215C111.358 31.215 111.083 31.2773 110.826 31.402C110.57 31.5193 110.361 31.7063 110.199 31.963C110.045 32.2123 109.968 32.5277 109.968 32.909V36H108.582V30.038H109.649L109.847 31.072H109.913C110.089 30.7567 110.331 30.489 110.639 30.269C110.947 30.0417 111.303 29.928 111.706 29.928ZM115.379 29.928C116.179 29.928 116.809 30.1663 117.271 30.643C117.741 31.1197 117.975 31.7833 117.975 32.634V33.338H114.037C114.052 33.8807 114.202 34.3023 114.488 34.603C114.774 34.8963 115.17 35.043 115.676 35.043C116.058 35.043 116.402 35.0063 116.71 34.933C117.018 34.8523 117.334 34.7387 117.656 34.592V35.703C117.363 35.8423 117.059 35.945 116.743 36.011C116.428 36.077 116.05 36.11 115.61 36.11C115.031 36.11 114.514 36 114.059 35.78C113.612 35.5527 113.26 35.2117 113.003 34.757C112.754 34.3023 112.629 33.7377 112.629 33.063C112.629 32.0437 112.882 31.2663 113.388 30.731C113.894 30.1957 114.558 29.928 115.379 29.928ZM115.379 30.951C115.005 30.951 114.701 31.072 114.466 31.314C114.239 31.5487 114.107 31.9007 114.07 32.37H116.633C116.626 31.9593 116.52 31.622 116.314 31.358C116.116 31.0867 115.805 30.951 115.379 30.951ZM121.122 36.11C120.425 36.11 119.864 35.8497 119.439 35.329C119.014 34.8083 118.801 34.042 118.801 33.03C118.801 32.0033 119.017 31.2297 119.45 30.709C119.883 30.1883 120.451 29.928 121.155 29.928C121.595 29.928 121.954 30.0123 122.233 30.181C122.519 30.3497 122.746 30.555 122.915 30.797H122.981C122.959 30.6943 122.937 30.5367 122.915 30.324C122.893 30.1113 122.882 29.9133 122.882 29.73V27.64H124.268V36H123.19L122.937 35.219H122.882C122.713 35.4683 122.49 35.681 122.211 35.857C121.932 36.0257 121.569 36.11 121.122 36.11ZM121.54 34.988C122.053 34.988 122.413 34.8413 122.618 34.548C122.831 34.2547 122.941 33.811 122.948 33.217V33.041C122.948 32.403 122.845 31.9153 122.64 31.578C122.442 31.2333 122.068 31.061 121.518 31.061C121.093 31.061 120.766 31.237 120.539 31.589C120.319 31.9337 120.209 32.4213 120.209 33.052C120.209 33.6827 120.323 34.163 120.55 34.493C120.777 34.823 121.107 34.988 121.54 34.988ZM130.832 29.928C131.602 29.928 132.185 30.0967 132.581 30.434C132.985 30.7713 133.186 31.292 133.186 31.996V36H132.207L131.932 35.175H131.888C131.632 35.4977 131.36 35.736 131.074 35.89C130.788 36.0367 130.4 36.11 129.908 36.11C129.373 36.11 128.929 35.9597 128.577 35.659C128.225 35.3583 128.049 34.8927 128.049 34.262C128.049 33.646 128.273 33.184 128.72 32.876C129.175 32.568 129.861 32.3957 130.777 32.359L131.811 32.326V32.029C131.811 31.655 131.72 31.3873 131.536 31.226C131.353 31.0573 131.096 30.973 130.766 30.973C130.466 30.973 130.176 31.017 129.897 31.105C129.626 31.193 129.355 31.2957 129.083 31.413L128.643 30.445C128.937 30.291 129.27 30.1663 129.644 30.071C130.026 29.9757 130.422 29.928 130.832 29.928ZM131.085 33.206C130.477 33.228 130.055 33.3343 129.82 33.525C129.586 33.7083 129.468 33.9577 129.468 34.273C129.468 34.559 129.549 34.7643 129.71 34.889C129.879 35.0063 130.099 35.065 130.37 35.065C130.774 35.065 131.115 34.9513 131.393 34.724C131.672 34.4893 131.811 34.1447 131.811 33.69V33.184L131.085 33.206ZM138.762 34.273C138.762 34.8743 138.546 35.3327 138.113 35.648C137.688 35.956 137.075 36.11 136.276 36.11C135.858 36.11 135.499 36.0807 135.198 36.022C134.905 35.9633 134.619 35.8717 134.34 35.747V34.57C134.633 34.7093 134.956 34.8267 135.308 34.922C135.667 35.0173 136.005 35.065 136.32 35.065C136.701 35.065 136.976 35.0063 137.145 34.889C137.314 34.7717 137.398 34.614 137.398 34.416C137.398 34.2987 137.365 34.196 137.299 34.108C137.233 34.0127 137.101 33.91 136.903 33.8C136.712 33.69 136.426 33.5543 136.045 33.393C135.664 33.2463 135.345 33.096 135.088 32.942C134.839 32.7807 134.648 32.5937 134.516 32.381C134.391 32.1683 134.329 31.8933 134.329 31.556C134.329 31.0207 134.538 30.6173 134.956 30.346C135.381 30.0673 135.946 29.928 136.65 29.928C137.017 29.928 137.361 29.9647 137.684 30.038C138.014 30.1113 138.344 30.2213 138.674 30.368L138.234 31.391C137.955 31.2737 137.684 31.1747 137.42 31.094C137.156 31.0133 136.885 30.973 136.606 30.973C135.997 30.973 135.693 31.1453 135.693 31.49C135.693 31.6147 135.73 31.721 135.803 31.809C135.884 31.897 136.019 31.9923 136.21 32.095C136.408 32.1903 136.687 32.3077 137.046 32.447C137.398 32.5863 137.702 32.733 137.959 32.887C138.216 33.0337 138.414 33.217 138.553 33.437C138.692 33.657 138.762 33.9357 138.762 34.273ZM143.011 29.928C143.707 29.928 144.268 30.1883 144.694 30.709C145.119 31.2223 145.332 31.9887 145.332 33.008C145.332 34.0273 145.112 34.801 144.672 35.329C144.239 35.8497 143.674 36.11 142.978 36.11C142.538 36.11 142.182 36.0293 141.911 35.868C141.639 35.7067 141.423 35.5197 141.262 35.307H141.174C141.196 35.4463 141.214 35.6003 141.229 35.769C141.251 35.9303 141.262 36.0807 141.262 36.22V38.64H139.876V30.038H140.998L141.196 30.83H141.262C141.423 30.5807 141.643 30.368 141.922 30.192C142.2 30.016 142.563 29.928 143.011 29.928ZM142.615 31.05C142.123 31.05 141.775 31.1967 141.57 31.49C141.372 31.7833 141.269 32.227 141.262 32.821V32.997C141.262 33.635 141.357 34.1263 141.548 34.471C141.746 34.8083 142.109 34.977 142.637 34.977C143.069 34.977 143.388 34.801 143.594 34.449C143.806 34.0897 143.913 33.602 143.913 32.986C143.913 32.37 143.806 31.8933 143.594 31.556C143.388 31.2187 143.062 31.05 142.615 31.05ZM147.927 29.631C147.927 29.8657 147.916 30.0967 147.894 30.324C147.88 30.544 147.865 30.709 147.85 30.819H147.938C148.129 30.5183 148.378 30.2947 148.686 30.148C148.994 30.0013 149.335 29.928 149.709 29.928C150.384 29.928 150.912 30.1003 151.293 30.445C151.675 30.7897 151.865 31.347 151.865 32.117V36H150.479V32.392C150.479 31.4973 150.113 31.05 149.379 31.05C148.822 31.05 148.441 31.226 148.235 31.578C148.03 31.93 147.927 32.4323 147.927 33.085V36H146.541V27.64H147.927V29.631ZM155.755 29.928C156.525 29.928 157.108 30.0967 157.504 30.434C157.907 30.7713 158.109 31.292 158.109 31.996V36H157.13L156.855 35.175H156.811C156.554 35.4977 156.283 35.736 155.997 35.89C155.711 36.0367 155.322 36.11 154.831 36.11C154.296 36.11 153.852 35.9597 153.5 35.659C153.148 35.3583 152.972 34.8927 152.972 34.262C152.972 33.646 153.196 33.184 153.643 32.876C154.098 32.568 154.783 32.3957 155.7 32.359L156.734 32.326V32.029C156.734 31.655 156.642 31.3873 156.459 31.226C156.276 31.0573 156.019 30.973 155.689 30.973C155.388 30.973 155.099 31.017 154.82 31.105C154.549 31.193 154.277 31.2957 154.006 31.413L153.566 30.445C153.859 30.291 154.193 30.1663 154.567 30.071C154.948 29.9757 155.344 29.928 155.755 29.928ZM156.008 33.206C155.399 33.228 154.978 33.3343 154.743 33.525C154.508 33.7083 154.391 33.9577 154.391 34.273C154.391 34.559 154.472 34.7643 154.633 34.889C154.802 35.0063 155.022 35.065 155.293 35.065C155.696 35.065 156.037 34.9513 156.316 34.724C156.595 34.4893 156.734 34.1447 156.734 33.69V33.184L156.008 33.206ZM161.012 36H159.626V27.64H161.012V36ZM164.874 34.999C165.043 34.999 165.208 34.9843 165.369 34.955C165.538 34.9183 165.692 34.878 165.831 34.834V35.868C165.684 35.934 165.494 35.989 165.259 36.033C165.024 36.0843 164.779 36.11 164.522 36.11C164.185 36.11 163.877 36.055 163.598 35.945C163.319 35.8277 163.099 35.6297 162.938 35.351C162.777 35.0723 162.696 34.6837 162.696 34.185V31.083H161.893V30.478L162.773 29.994L163.213 28.729H164.082V30.038H165.776V31.083H164.082V34.174C164.082 34.4527 164.155 34.6617 164.302 34.801C164.449 34.933 164.639 34.999 164.874 34.999Z" fill="white"/>
<path d="M22.1494 17.6913L17.7912 22.0495M28.8878 17.6913L24.5296 22.0495M35.1383 17.6638L30.7801 22.022M21.912 24.5148L17.5538 28.8729M28.6504 24.5148L24.2922 28.8509M35.1383 24.4927L30.7801 28.8509M20.2576 28.8509V33M32.6608 28.8509V33M20.2081 12.3262V11M21.9745 13.058L22.91 12.1226M18.4417 13.058L17.5063 12.1226M32.6608 12.3262V11M34.4272 13.058L35.3627 12.1226M30.8944 13.058L29.959 12.1226M18.4417 33H22.1494M30.8944 33H34.5M17.0055 17.6913H35.9295V22.022H17.0055V17.6913ZM35.924 24.5148V28.8509H17.0055L17 24.5L35.924 24.5148ZM19.003 16.0735V14.2962C19.0045 14.103 19.0822 13.9183 19.2193 13.7822C19.3564 13.6461 19.5417 13.5698 19.7349 13.5698H20.6868C20.879 13.5712 21.063 13.6482 21.1989 13.7841C21.3348 13.92 21.4118 14.104 21.4132 14.2962V16.0735H20.2081H19.003ZM31.4557 16.0735H33.8659V14.2962C33.8659 14.1035 33.7894 13.9188 33.6532 13.7825C33.517 13.6463 33.3322 13.5698 33.1396 13.5698H32.1876C31.9944 13.5698 31.8091 13.6461 31.672 13.7822C31.5349 13.9183 31.4572 14.103 31.4557 14.2962V16.0735Z" stroke="white" stroke-miterlimit="22.93"/>
</g>
<defs>
<filter id="filter0_d_76_8136" x="0" y="0" width="180" height="66.9161" filterUnits="userSpaceOnUse" color-interpolation-filters="sRGB">
<feFlood flood-opacity="0" result="BackgroundImageFix"/>
<feColorMatrix in="SourceAlpha" type="matrix" values="0 0 0 0 0 0 0 0 0 0 0 0 0 0 0 0 0 0 127 0" result="hardAlpha"/>
<feOffset dy="4"/>
<feGaussianBlur stdDeviation="2"/>
<feComposite in2="hardAlpha" operator="out"/>
<feColorMatrix type="matrix" values="0 0 0 0 0 0 0 0 0 0 0 0 0 0 0 0 0 0 0.25 0"/>
<feBlend mode="normal" in2="BackgroundImageFix" result="effect1_dropShadow_76_8136"/>
<feBlend mode="normal" in="SourceGraphic" in2="effect1_dropShadow_76_8136" result="shape"/>
</filter>
<linearGradient id="paint0_linear_76_8136" x1="90" y1="0" x2="90" y2="58.9161" gradientUnits="userSpaceOnUse">
<stop stop-color="#5D59E9"/>
<stop offset="1" stop-color="#8826E4"/>
</linearGradient>
</defs>
</svg>
