<svg width="32" height="32" viewBox="0 0 32 32" fill="none" xmlns="http://www.w3.org/2000/svg">
<path fill-rule="evenodd" clip-rule="evenodd" d="M7.10387 28.0782C9.59284 29.9145 12.6697 30.9999 16.0001 30.9999C24.2844 30.9999 31.0001 24.2841 31.0001 15.9999C31.0001 12.6695 29.9148 9.5926 28.0785 7.10362L27.0043 8.17773C28.5759 10.3846 29.5001 13.0843 29.5001 15.9999C29.5001 23.4557 23.456 29.4999 16.0001 29.4999C13.0845 29.4999 10.3848 28.5756 8.17798 27.0041L7.10387 28.0782ZM23.8224 4.99573C21.6155 3.42417 18.9158 2.49988 16.0001 2.49988C8.54428 2.49988 2.50012 8.54403 2.50012 15.9999C2.50012 18.9155 3.42442 21.6153 4.99598 23.8221L3.92187 24.8962C2.08552 22.4073 1.00012 19.3303 1.00012 15.9999C1.00012 7.71561 7.71585 0.999878 16.0001 0.999878C19.3306 0.999878 22.4075 2.08527 24.8965 3.92163L23.8224 4.99573Z" fill="white"/>
<path d="M31 1L1 31" stroke="white" stroke-width="1.5"/>
</svg>
