<svg width="23" height="33" viewBox="0 0 23 33" fill="none" xmlns="http://www.w3.org/2000/svg">
<path d="M11.4999 0C5.15862 0 0 4.80299 0 10.7065C0 13.9718 1.15128 15.4803 2.26467 16.9386C3.54093 18.6106 4.86009 20.3392 4.86009 25.1367C4.86009 26.1152 5.53073 26.9462 6.45805 27.243V28.9281C6.45805 29.6373 7.03396 30.2146 7.74212 30.2146H8.28048V30.8589C8.28048 32.0398 9.23949 33 10.418 33H12.7793C13.9581 33 14.9165 32.0392 14.9165 30.8589V30.2146H15.4549C16.1628 30.2146 16.739 29.6376 16.739 28.9281V27.17C17.5629 26.8247 18.1399 26.0433 18.1399 25.1356C18.1399 20.3385 19.4596 18.6098 20.7353 16.9375C21.8488 15.4789 23 13.9704 23 10.7054C23 4.80235 17.8409 0 11.4999 0ZM13.4221 30.8582C13.4221 31.2134 13.1334 31.5026 12.7789 31.5026H10.4175C10.063 31.5026 9.77437 31.2134 9.77437 30.8582V30.2139H13.4224L13.4221 30.8582ZM15.2448 28.7174H7.95205V27.4287H15.2441L15.2448 28.7174ZM19.6565 16.1119C18.3091 17.8776 16.7814 19.8786 16.7814 25.1359C16.7814 25.4879 16.5253 25.7987 16.1705 25.9309H6.8287C6.47419 25.7987 6.21832 25.4879 6.21832 25.1359C6.21832 19.8783 4.69067 17.8765 3.34325 16.1119C2.27799 14.7162 1.35766 13.5109 1.35766 10.7061C1.35766 5.55301 5.90752 1.36017 11.5001 1.36017C17.0927 1.36017 21.6419 5.5528 21.6419 10.7061C21.6424 13.5109 20.7218 14.716 19.6565 16.1119Z" fill="white"/>
</svg>
