<svg width="39" height="28" viewBox="0 0 39 28" fill="none" xmlns="http://www.w3.org/2000/svg">
<path d="M37.3059 25.8115H0.894142C0.400129 25.8115 0 26.2125 0 26.7058C0 27.1992 0.400129 27.6002 0.894142 27.6002H37.3059C37.7991 27.6002 38.2 27.1992 38.2 26.7058C38.2 26.2125 37.7991 25.8115 37.3059 25.8115Z" fill="white"/>
<path d="M3.20348 24.1718H34.9761C34.9761 24.1718 34.9828 24.1703 34.9858 24.1703C34.9895 24.1703 34.9925 24.1718 34.9962 24.1718C35.4895 24.1718 35.8904 23.7708 35.8904 23.2775C35.8904 15.102 30.0173 8.27538 22.2696 6.78858C22.8716 6.06941 23.2353 5.14528 23.2353 4.1362C23.2353 1.8557 21.3807 0 19.0998 0C16.819 0 14.9644 1.8557 14.9644 4.1362C14.9644 5.14454 15.3281 6.06941 15.9301 6.78858C8.18162 8.27538 2.30859 15.1012 2.30859 23.2775C2.30859 23.7708 2.70947 24.1718 3.20348 24.1718ZM16.7527 4.13694C16.7527 2.84243 17.8063 1.78937 19.0998 1.78937C20.3934 1.78937 21.447 2.84317 21.447 4.13694C21.447 5.43072 20.3934 6.48452 19.0991 6.48452C17.8048 6.48452 16.752 5.43146 16.752 4.13694H16.7527ZM19.0998 8.27314C27.0711 8.27314 33.608 14.5244 34.073 22.3832H4.12743C4.59164 14.5251 11.1286 8.27314 19.1006 8.27314H19.0998Z" fill="white"/>
</svg>
