<svg width="85" height="88" viewBox="0 0 85 88" fill="none" xmlns="http://www.w3.org/2000/svg">
<g filter="url(#filter0_d_76_8121)">
<g filter="url(#filter1_b_76_8121)">
<path fill-rule="evenodd" clip-rule="evenodd" d="M28 16C23.5817 16 20 19.5817 20 24V44C20 48.4183 23.5817 52 28 52H34.9233C34.9437 52.0776 34.9741 52.1547 35.0152 52.2299L41.1227 63.396C41.502 64.0895 42.498 64.0895 42.8773 63.396L48.9848 52.2299C49.0259 52.1547 49.0563 52.0776 49.0767 52H57C61.4183 52 65 48.4183 65 44V24C65 19.5817 61.4183 16 57 16H28Z" fill="white" fill-opacity="0.9"/>
</g>
<path fill-rule="evenodd" clip-rule="evenodd" d="M40.5347 22.9984H43.4654C45.1222 22.9984 46.4654 24.3416 46.4654 25.9984V26.9606H37.5347V25.9984C37.5347 24.3416 38.8778 22.9984 40.5347 22.9984ZM36.5717 25.4516C36.8384 23.5012 38.511 21.9984 40.5347 21.9984H43.4654C45.489 21.9984 47.1617 23.5012 47.4283 25.4516H50.4465V26.4516H47.4654V26.9606V27.9606H46.4717V27.9669V32.9102C46.4717 34.5608 45.1387 35.9 43.4906 35.9101V35.9165V41.8724L42 42.8661L40.5095 41.8724V35.9165V35.9101C38.8613 35.9 37.5284 34.5608 37.5284 32.9102V27.9669V27.9606H36.5347V26.9606V26.4516H33.5536V25.4516H36.5717ZM38.5284 27.9669H45.4717V32.9102C45.4717 34.0148 44.5763 34.9102 43.4717 34.9102H40.5284C39.4238 34.9102 38.5284 34.0148 38.5284 32.9102V27.9669ZM42 31.9291C42.271 31.9291 42.4906 31.7095 42.4906 31.4386C42.4906 31.1676 42.271 30.948 42 30.948C41.7291 30.948 41.5095 31.1676 41.5095 31.4386C41.5095 31.7095 41.7291 31.9291 42 31.9291ZM42 32.9291C42.8232 32.9291 43.4906 32.2618 43.4906 31.4386C43.4906 30.6153 42.8232 29.948 42 29.948C41.1768 29.948 40.5095 30.6153 40.5095 31.4386C40.5095 32.2618 41.1768 32.9291 42 32.9291ZM41.5095 41.3372V35.9165H42.4906V41.3372L42 41.6642L41.5095 41.3372ZM43.2314 25.6091H40.7687V24.6091H43.2314V25.6091ZM38.5221 46.0015H45.6508V45.0015H38.5221V46.0015ZM38.3925 39.7802C36.378 39.7802 34.7449 41.4133 34.7449 43.4278H33.7449C33.7449 40.861 35.8257 38.7802 38.3925 38.7802V39.7802ZM49.2552 43.4278C49.2552 41.4133 47.6221 39.7802 45.6076 39.7802V38.7802C48.1744 38.7802 50.2552 40.861 50.2552 43.4278H49.2552ZM38.3925 41.854C37.5233 41.854 36.8187 42.5586 36.8187 43.4278H35.8187C35.8187 42.0063 36.971 40.854 38.3925 40.854V41.854ZM47.1814 43.4278C47.1814 42.5586 46.4768 41.854 45.6076 41.854V40.854C47.0291 40.854 48.1814 42.0063 48.1814 43.4278H47.1814Z" fill="url(#paint0_linear_76_8121)"/>
</g>
<defs>
<filter id="filter0_d_76_8121" x="0" y="0" width="85" height="87.9161" filterUnits="userSpaceOnUse" color-interpolation-filters="sRGB">
<feFlood flood-opacity="0" result="BackgroundImageFix"/>
<feColorMatrix in="SourceAlpha" type="matrix" values="0 0 0 0 0 0 0 0 0 0 0 0 0 0 0 0 0 0 127 0" result="hardAlpha"/>
<feOffset dy="4"/>
<feGaussianBlur stdDeviation="10"/>
<feComposite in2="hardAlpha" operator="out"/>
<feColorMatrix type="matrix" values="0 0 0 0 0.162597 0 0 0 0 0.0688742 0 0 0 0 0.429346 0 0 0 0.3 0"/>
<feBlend mode="normal" in2="BackgroundImageFix" result="effect1_dropShadow_76_8121"/>
<feBlend mode="normal" in="SourceGraphic" in2="effect1_dropShadow_76_8121" result="shape"/>
</filter>
<filter id="filter1_b_76_8121" x="16" y="12" width="53" height="55.9161" filterUnits="userSpaceOnUse" color-interpolation-filters="sRGB">
<feFlood flood-opacity="0" result="BackgroundImageFix"/>
<feGaussianBlur in="BackgroundImageFix" stdDeviation="2"/>
<feComposite in2="SourceAlpha" operator="in" result="effect1_backgroundBlur_76_8121"/>
<feBlend mode="normal" in="SourceGraphic" in2="effect1_backgroundBlur_76_8121" result="shape"/>
</filter>
<linearGradient id="paint0_linear_76_8121" x1="42" y1="21.9984" x2="42" y2="46.0015" gradientUnits="userSpaceOnUse">
<stop stop-color="#5D59E9"/>
<stop offset="1" stop-color="#8826E4"/>
</linearGradient>
</defs>
</svg>
