<svg width="152" height="90" viewBox="0 0 152 90" fill="none" xmlns="http://www.w3.org/2000/svg">
<g filter="url(#filter0_d_175_4490)">
<path fill-rule="evenodd" clip-rule="evenodd" d="M12 0C7.58172 0 4 3.58172 4 8V62C4 66.4183 7.58173 70 12 70H17.9233C17.9437 70.0776 17.9741 70.1547 18.0152 70.2299L24.1227 81.396C24.502 82.0895 25.498 82.0895 25.8773 81.396L31.9848 70.2299C32.0259 70.1547 32.0563 70.0776 32.0767 70H140C144.418 70 148 66.4183 148 62V8C148 3.58172 144.418 0 140 0H12Z" fill="url(#paint0_linear_175_4490)"/>
<path fill-rule="evenodd" clip-rule="evenodd" d="M27.4738 11.5674H34.526C36.1828 11.5674 37.526 12.9105 37.526 14.5674V17.7777H24.4738V14.5674C24.4738 12.9105 25.8169 11.5674 27.4738 11.5674ZM23.4738 14.5674C23.4738 12.3582 25.2647 10.5674 27.4738 10.5674H34.526C36.7351 10.5674 38.526 12.3582 38.526 14.5674V15.511H43.6311V16.511H38.526V17.7777V18.7777H37.526H37.1576V18.8V27.1154C37.1576 28.7723 35.8145 30.1154 34.1576 30.1154H33.0525V30.2V38.7787L30.9999 40.147L28.9473 38.7787V30.2V30.1154H27.8422C26.1853 30.1154 24.8422 28.7723 24.8422 27.1154V18.8V18.7777H24.4738H23.4738V17.7777V16.511H18.3687V15.511H23.4738V14.5674ZM25.8422 18.8H36.1576V27.1154C36.1576 28.22 35.2622 29.1154 34.1576 29.1154H27.8422C26.7376 29.1154 25.8422 28.22 25.8422 27.1154V18.8ZM30.9999 24.6197C31.5812 24.6197 32.0525 24.1485 32.0525 23.5671C32.0525 22.9858 31.5812 22.5146 30.9999 22.5146C30.4186 22.5146 29.9473 22.9858 29.9473 23.5671C29.9473 24.1485 30.4186 24.6197 30.9999 24.6197ZM30.9999 25.6197C32.1335 25.6197 33.0525 24.7007 33.0525 23.5671C33.0525 22.4335 32.1335 21.5146 30.9999 21.5146C29.8663 21.5146 28.9473 22.4335 28.9473 23.5671C28.9473 24.7007 29.8663 25.6197 30.9999 25.6197ZM29.9473 38.2435V30.2H32.0525V38.2435L30.9999 38.9452L29.9473 38.2435ZM32.6955 15.351H29.3043V14.351H32.6955V15.351ZM26.2106 43.4325H36.0272V42.4325H26.2106V43.4325ZM26.0321 34.8653C23.1538 34.8653 20.8206 37.1986 20.8206 40.0768H19.8206C19.8206 36.6463 22.6016 33.8653 26.0321 33.8653V34.8653ZM41.1792 40.0768C41.1792 37.1986 38.846 34.8653 35.9677 34.8653V33.8653C39.3982 33.8653 42.1792 36.6463 42.1792 40.0768H41.1792ZM26.0321 37.7211C24.731 37.7211 23.6763 38.7758 23.6763 40.0769H22.6763C22.6763 38.2236 24.1787 36.7211 26.0321 36.7211V37.7211ZM38.3235 40.0769C38.3235 38.7758 37.2688 37.7211 35.9677 37.7211V36.7211C37.821 36.7211 39.3235 38.2236 39.3235 40.0769H38.3235Z" fill="white"/>
<path d="M60.553 20H59.563V13.015H57.11V12.146H62.995V13.015H60.553V20ZM66.0295 13.994C66.1395 13.994 66.2568 14.0013 66.3815 14.016C66.5135 14.0233 66.6271 14.038 66.7225 14.06L66.6015 14.951C66.5061 14.929 66.3998 14.9107 66.2825 14.896C66.1725 14.8813 66.0661 14.874 65.9635 14.874C65.6628 14.874 65.3805 14.9583 65.1165 15.127C64.8525 15.2883 64.6398 15.5193 64.4785 15.82C64.3245 16.1133 64.2475 16.458 64.2475 16.854V20H63.2795V14.104H64.0715L64.1815 15.182H64.2255C64.4161 14.8593 64.6618 14.5807 64.9625 14.346C65.2631 14.1113 65.6188 13.994 66.0295 13.994ZM68.0984 11.893C68.2451 11.893 68.3734 11.9443 68.4834 12.047C68.6007 12.1423 68.6594 12.2963 68.6594 12.509C68.6594 12.7143 68.6007 12.8683 68.4834 12.971C68.3734 13.0737 68.2451 13.125 68.0984 13.125C67.9371 13.125 67.8014 13.0737 67.6914 12.971C67.5814 12.8683 67.5264 12.7143 67.5264 12.509C67.5264 12.2963 67.5814 12.1423 67.6914 12.047C67.8014 11.9443 67.9371 11.893 68.0984 11.893ZM68.5714 14.104V20H67.6034V14.104H68.5714ZM72.3093 13.994C72.698 13.994 73.0463 14.0673 73.3543 14.214C73.6697 14.3607 73.9373 14.5843 74.1573 14.885H74.2123L74.3443 14.104H75.1143V20.099C75.1143 20.9423 74.898 21.5767 74.4653 22.002C74.04 22.4273 73.3763 22.64 72.4743 22.64C71.609 22.64 70.9013 22.5153 70.3513 22.266V21.375C70.9307 21.683 71.6567 21.837 72.5293 21.837C73.0353 21.837 73.4313 21.6867 73.7173 21.386C74.0107 21.0927 74.1573 20.6893 74.1573 20.176V19.945C74.1573 19.857 74.161 19.7323 74.1683 19.571C74.1757 19.4023 74.183 19.285 74.1903 19.219H74.1463C73.7503 19.813 73.1417 20.11 72.3203 20.11C71.5577 20.11 70.96 19.8423 70.5273 19.307C70.102 18.7717 69.8893 18.0237 69.8893 17.063C69.8893 16.1243 70.102 15.38 70.5273 14.83C70.96 14.2727 71.554 13.994 72.3093 13.994ZM72.4413 14.808C71.95 14.808 71.5687 15.006 71.2973 15.402C71.026 15.7907 70.8903 16.348 70.8903 17.074C70.8903 17.8 71.0223 18.3573 71.2863 18.746C71.5577 19.1273 71.95 19.318 72.4633 19.318C73.0573 19.318 73.49 19.1603 73.7613 18.845C74.0327 18.5223 74.1683 18.0053 74.1683 17.294V17.063C74.1683 16.2563 74.029 15.6807 73.7503 15.336C73.4717 14.984 73.0353 14.808 72.4413 14.808ZM78.8569 13.994C79.2456 13.994 79.5939 14.0673 79.9019 14.214C80.2172 14.3607 80.4849 14.5843 80.7049 14.885H80.7599L80.8919 14.104H81.6619V20.099C81.6619 20.9423 81.4456 21.5767 81.0129 22.002C80.5876 22.4273 79.9239 22.64 79.0219 22.64C78.1566 22.64 77.4489 22.5153 76.8989 22.266V21.375C77.4782 21.683 78.2042 21.837 79.0769 21.837C79.5829 21.837 79.9789 21.6867 80.2649 21.386C80.5582 21.0927 80.7049 20.6893 80.7049 20.176V19.945C80.7049 19.857 80.7086 19.7323 80.7159 19.571C80.7232 19.4023 80.7306 19.285 80.7379 19.219H80.6939C80.2979 19.813 79.6892 20.11 78.8679 20.11C78.1052 20.11 77.5076 19.8423 77.0749 19.307C76.6496 18.7717 76.4369 18.0237 76.4369 17.063C76.4369 16.1243 76.6496 15.38 77.0749 14.83C77.5076 14.2727 78.1016 13.994 78.8569 13.994ZM78.9889 14.808C78.4976 14.808 78.1162 15.006 77.8449 15.402C77.5736 15.7907 77.4379 16.348 77.4379 17.074C77.4379 17.8 77.5699 18.3573 77.8339 18.746C78.1052 19.1273 78.4976 19.318 79.0109 19.318C79.6049 19.318 80.0376 19.1603 80.3089 18.845C80.5802 18.5223 80.7159 18.0053 80.7159 17.294V17.063C80.7159 16.2563 80.5766 15.6807 80.2979 15.336C80.0192 14.984 79.5829 14.808 78.9889 14.808ZM85.5915 13.994C86.0975 13.994 86.5302 14.104 86.8895 14.324C87.2562 14.544 87.5348 14.8557 87.7255 15.259C87.9235 15.655 88.0225 16.1207 88.0225 16.656V17.239H83.9855C84.0002 17.9063 84.1688 18.416 84.4915 18.768C84.8215 19.1127 85.2798 19.285 85.8665 19.285C86.2405 19.285 86.5705 19.252 86.8565 19.186C87.1498 19.1127 87.4505 19.01 87.7585 18.878V19.725C87.4578 19.857 87.1608 19.9523 86.8675 20.011C86.5742 20.077 86.2258 20.11 85.8225 20.11C85.2652 20.11 84.7702 19.9963 84.3375 19.769C83.9122 19.5417 83.5785 19.2043 83.3365 18.757C83.1018 18.3023 82.9845 17.7487 82.9845 17.096C82.9845 16.4507 83.0908 15.897 83.3035 15.435C83.5235 14.973 83.8278 14.6173 84.2165 14.368C84.6125 14.1187 85.0708 13.994 85.5915 13.994ZM85.5805 14.786C85.1185 14.786 84.7518 14.9363 84.4805 15.237C84.2165 15.5303 84.0588 15.941 84.0075 16.469H87.0105C87.0032 15.9703 86.8858 15.567 86.6585 15.259C86.4312 14.9437 86.0718 14.786 85.5805 14.786ZM92.0535 13.994C92.1635 13.994 92.2808 14.0013 92.4055 14.016C92.5375 14.0233 92.6511 14.038 92.7465 14.06L92.6255 14.951C92.5301 14.929 92.4238 14.9107 92.3065 14.896C92.1965 14.8813 92.0901 14.874 91.9875 14.874C91.6868 14.874 91.4045 14.9583 91.1405 15.127C90.8765 15.2883 90.6638 15.5193 90.5025 15.82C90.3485 16.1133 90.2715 16.458 90.2715 16.854V20H89.3035V14.104H90.0955L90.2055 15.182H90.2495C90.4401 14.8593 90.6858 14.5807 90.9865 14.346C91.2871 14.1113 91.6428 13.994 92.0535 13.994ZM100.071 16.667C99.9755 16.3663 99.8912 16.073 99.8178 15.787C99.7518 15.4937 99.7005 15.2663 99.6638 15.105H99.6198C99.5905 15.2663 99.5428 15.4937 99.4768 15.787C99.4108 16.073 99.3265 16.37 99.2238 16.678L98.1678 19.989H97.0678L95.4508 14.093H96.4518L97.2658 17.239C97.3465 17.5543 97.4235 17.8733 97.4968 18.196C97.5702 18.5187 97.6215 18.7863 97.6508 18.999H97.6948C97.7242 18.8743 97.7572 18.7203 97.7938 18.537C97.8378 18.3537 97.8855 18.163 97.9368 17.965C97.9882 17.7597 98.0395 17.5763 98.0908 17.415L99.1358 14.093H100.192L101.204 17.415C101.285 17.6643 101.362 17.9357 101.435 18.229C101.516 18.5223 101.571 18.7753 101.6 18.988H101.644C101.666 18.8047 101.714 18.5517 101.787 18.229C101.868 17.9063 101.952 17.5763 102.04 17.239L102.865 14.093H103.855L102.216 19.989H101.083L100.071 16.667ZM106.925 14.005C107.644 14.005 108.176 14.1627 108.52 14.478C108.865 14.7933 109.037 15.2957 109.037 15.985V20H108.333L108.146 19.164H108.102C107.846 19.4867 107.574 19.725 107.288 19.879C107.01 20.033 106.621 20.11 106.122 20.11C105.587 20.11 105.143 19.9707 104.791 19.692C104.439 19.406 104.263 18.9623 104.263 18.361C104.263 17.7743 104.494 17.3233 104.956 17.008C105.418 16.6853 106.13 16.5093 107.09 16.48L108.091 16.447V16.095C108.091 15.6037 107.985 15.2627 107.772 15.072C107.56 14.8813 107.259 14.786 106.87 14.786C106.562 14.786 106.269 14.8337 105.99 14.929C105.712 15.017 105.451 15.1197 105.209 15.237L104.912 14.511C105.169 14.3717 105.473 14.2543 105.825 14.159C106.177 14.0563 106.544 14.005 106.925 14.005ZM107.211 17.151C106.478 17.1803 105.968 17.2977 105.682 17.503C105.404 17.7083 105.264 17.998 105.264 18.372C105.264 18.702 105.363 18.944 105.561 19.098C105.767 19.252 106.027 19.329 106.342 19.329C106.841 19.329 107.255 19.1933 107.585 18.922C107.915 18.6433 108.08 18.218 108.08 17.646V17.118L107.211 17.151ZM113.388 13.994C113.498 13.994 113.616 14.0013 113.74 14.016C113.872 14.0233 113.986 14.038 114.081 14.06L113.96 14.951C113.865 14.929 113.759 14.9107 113.641 14.896C113.531 14.8813 113.425 14.874 113.322 14.874C113.022 14.874 112.739 14.9583 112.475 15.127C112.211 15.2883 111.999 15.5193 111.837 15.82C111.683 16.1133 111.606 16.458 111.606 16.854V20H110.638V14.104H111.43L111.54 15.182H111.584C111.775 14.8593 112.021 14.5807 112.321 14.346C112.622 14.1113 112.978 13.994 113.388 13.994ZM117.8 13.994C118.504 13.994 119.036 14.1663 119.395 14.511C119.755 14.8483 119.934 15.3983 119.934 16.161V20H118.977V16.227C118.977 15.281 118.537 14.808 117.657 14.808C117.005 14.808 116.554 14.9913 116.304 15.358C116.055 15.7247 115.93 16.2527 115.93 16.942V20H114.962V14.104H115.743L115.886 14.907H115.941C116.132 14.599 116.396 14.3717 116.733 14.225C117.071 14.071 117.426 13.994 117.8 13.994ZM122.037 11.893C122.184 11.893 122.312 11.9443 122.422 12.047C122.539 12.1423 122.598 12.2963 122.598 12.509C122.598 12.7143 122.539 12.8683 122.422 12.971C122.312 13.0737 122.184 13.125 122.037 13.125C121.876 13.125 121.74 13.0737 121.63 12.971C121.52 12.8683 121.465 12.7143 121.465 12.509C121.465 12.2963 121.52 12.1423 121.63 12.047C121.74 11.9443 121.876 11.893 122.037 11.893ZM122.51 14.104V20H121.542V14.104H122.51ZM126.996 13.994C127.7 13.994 128.232 14.1663 128.591 14.511C128.95 14.8483 129.13 15.3983 129.13 16.161V20H128.173V16.227C128.173 15.281 127.733 14.808 126.853 14.808C126.2 14.808 125.749 14.9913 125.5 15.358C125.251 15.7247 125.126 16.2527 125.126 16.942V20H124.158V14.104H124.939L125.082 14.907H125.137C125.328 14.599 125.592 14.3717 125.929 14.225C126.266 14.071 126.622 13.994 126.996 13.994ZM132.828 13.994C133.216 13.994 133.565 14.0673 133.873 14.214C134.188 14.3607 134.456 14.5843 134.676 14.885H134.731L134.863 14.104H135.633V20.099C135.633 20.9423 135.416 21.5767 134.984 22.002C134.558 22.4273 133.895 22.64 132.993 22.64C132.127 22.64 131.42 22.5153 130.87 22.266V21.375C131.449 21.683 132.175 21.837 133.048 21.837C133.554 21.837 133.95 21.6867 134.236 21.386C134.529 21.0927 134.676 20.6893 134.676 20.176V19.945C134.676 19.857 134.679 19.7323 134.687 19.571C134.694 19.4023 134.701 19.285 134.709 19.219H134.665C134.269 19.813 133.66 20.11 132.839 20.11C132.076 20.11 131.478 19.8423 131.046 19.307C130.62 18.7717 130.408 18.0237 130.408 17.063C130.408 16.1243 130.62 15.38 131.046 14.83C131.478 14.2727 132.072 13.994 132.828 13.994ZM132.96 14.808C132.468 14.808 132.087 15.006 131.816 15.402C131.544 15.7907 131.409 16.348 131.409 17.074C131.409 17.8 131.541 18.3573 131.805 18.746C132.076 19.1273 132.468 19.318 132.982 19.318C133.576 19.318 134.008 19.1603 134.28 18.845C134.551 18.5223 134.687 18.0053 134.687 17.294V17.063C134.687 16.2563 134.547 15.6807 134.269 15.336C133.99 14.984 133.554 14.808 132.96 14.808ZM137.142 14.698C137.142 14.4193 137.208 14.225 137.34 14.115C137.472 14.005 137.63 13.95 137.813 13.95C138.004 13.95 138.165 14.005 138.297 14.115C138.437 14.225 138.506 14.4193 138.506 14.698C138.506 14.962 138.437 15.1527 138.297 15.27C138.165 15.3873 138.004 15.446 137.813 15.446C137.63 15.446 137.472 15.3873 137.34 15.27C137.208 15.1527 137.142 14.962 137.142 14.698ZM137.142 19.406C137.142 19.1347 137.208 18.944 137.34 18.834C137.472 18.724 137.63 18.669 137.813 18.669C138.004 18.669 138.165 18.724 138.297 18.834C138.437 18.944 138.506 19.1347 138.506 19.406C138.506 19.67 138.437 19.8607 138.297 19.978C138.165 20.0953 138.004 20.154 137.813 20.154C137.63 20.154 137.472 20.0953 137.34 19.978C137.208 19.8607 137.142 19.67 137.142 19.406Z" fill="white"/>
<path d="M61.367 29.224C60.6483 29.224 60.091 29.4807 59.695 29.994C59.3063 30.5073 59.112 31.204 59.112 32.084C59.112 32.9713 59.2953 33.668 59.662 34.174C60.0287 34.6727 60.5933 34.922 61.356 34.922C61.686 34.922 62.0087 34.889 62.324 34.823C62.6393 34.7497 62.9693 34.6543 63.314 34.537V35.736C62.9913 35.868 62.665 35.9633 62.335 36.022C62.0123 36.0807 61.6383 36.11 61.213 36.11C60.4063 36.11 59.739 35.945 59.211 35.615C58.683 35.2777 58.2907 34.8083 58.034 34.207C57.7773 33.5983 57.649 32.887 57.649 32.073C57.649 31.281 57.792 30.5843 58.078 29.983C58.364 29.3743 58.782 28.8977 59.332 28.553C59.8893 28.2083 60.5677 28.036 61.367 28.036C61.763 28.036 62.1517 28.0837 62.533 28.179C62.9217 28.267 63.2847 28.3917 63.622 28.553L63.138 29.708C62.8593 29.5833 62.5697 29.4733 62.269 29.378C61.9757 29.2753 61.675 29.224 61.367 29.224ZM69.9774 33.008C69.9774 33.998 69.7208 34.7643 69.2074 35.307C68.6941 35.8423 67.9974 36.11 67.1174 36.11C66.5748 36.11 66.0908 35.989 65.6654 35.747C65.2401 35.505 64.9064 35.153 64.6644 34.691C64.4224 34.229 64.3014 33.668 64.3014 33.008C64.3014 32.018 64.5544 31.259 65.0604 30.731C65.5738 30.1957 66.2704 29.928 67.1504 29.928C67.7004 29.928 68.1881 30.049 68.6134 30.291C69.0388 30.5257 69.3724 30.874 69.6144 31.336C69.8564 31.7907 69.9774 32.348 69.9774 33.008ZM65.7204 33.008C65.7204 33.6387 65.8304 34.1263 66.0504 34.471C66.2778 34.8157 66.6408 34.988 67.1394 34.988C67.6381 34.988 67.9974 34.8157 68.2174 34.471C68.4448 34.1263 68.5584 33.6387 68.5584 33.008C68.5584 32.3773 68.4448 31.8933 68.2174 31.556C67.9974 31.2187 67.6344 31.05 67.1284 31.05C66.6371 31.05 66.2778 31.2187 66.0504 31.556C65.8304 31.8933 65.7204 32.3773 65.7204 33.008ZM74.3803 29.928C75.0476 29.928 75.5683 30.1003 75.9423 30.445C76.3236 30.7897 76.5143 31.347 76.5143 32.117V36H75.1283V32.392C75.1283 31.4973 74.7616 31.05 74.0283 31.05C73.4709 31.05 73.0896 31.226 72.8843 31.578C72.6789 31.93 72.5763 32.4323 72.5763 33.085V36H71.1903V30.038H72.2573L72.4553 30.819H72.5323C72.7229 30.511 72.9833 30.2873 73.3133 30.148C73.6506 30.0013 74.0063 29.928 74.3803 29.928ZM82.0869 34.273C82.0869 34.8743 81.8705 35.3327 81.4379 35.648C81.0125 35.956 80.4002 36.11 79.6009 36.11C79.1829 36.11 78.8235 36.0807 78.5229 36.022C78.2295 35.9633 77.9435 35.8717 77.6649 35.747V34.57C77.9582 34.7093 78.2809 34.8267 78.6329 34.922C78.9922 35.0173 79.3295 35.065 79.6449 35.065C80.0262 35.065 80.3012 35.0063 80.4699 34.889C80.6385 34.7717 80.7229 34.614 80.7229 34.416C80.7229 34.2987 80.6899 34.196 80.6239 34.108C80.5579 34.0127 80.4259 33.91 80.2279 33.8C80.0372 33.69 79.7512 33.5543 79.3699 33.393C78.9885 33.2463 78.6695 33.096 78.4129 32.942C78.1635 32.7807 77.9729 32.5937 77.8409 32.381C77.7162 32.1683 77.6539 31.8933 77.6539 31.556C77.6539 31.0207 77.8629 30.6173 78.2809 30.346C78.7062 30.0673 79.2709 29.928 79.9749 29.928C80.3415 29.928 80.6862 29.9647 81.0089 30.038C81.3389 30.1113 81.6689 30.2213 81.9989 30.368L81.5589 31.391C81.2802 31.2737 81.0089 31.1747 80.7449 31.094C80.4809 31.0133 80.2095 30.973 79.9309 30.973C79.3222 30.973 79.0179 31.1453 79.0179 31.49C79.0179 31.6147 79.0545 31.721 79.1279 31.809C79.2085 31.897 79.3442 31.9923 79.5349 32.095C79.7329 32.1903 80.0115 32.3077 80.3709 32.447C80.7229 32.5863 81.0272 32.733 81.2839 32.887C81.5405 33.0337 81.7385 33.217 81.8779 33.437C82.0172 33.657 82.0869 33.9357 82.0869 34.273ZM85.5105 34.999C85.6791 34.999 85.8441 34.9843 86.0055 34.955C86.1741 34.9183 86.3281 34.878 86.4675 34.834V35.868C86.3208 35.934 86.1301 35.989 85.8955 36.033C85.6608 36.0843 85.4151 36.11 85.1585 36.11C84.8211 36.11 84.5131 36.055 84.2345 35.945C83.9558 35.8277 83.7358 35.6297 83.5745 35.351C83.4131 35.0723 83.3325 34.6837 83.3325 34.185V31.083H82.5295V30.478L83.4095 29.994L83.8495 28.729H84.7185V30.038H86.4125V31.083H84.7185V34.174C84.7185 34.4527 84.7918 34.6617 84.9385 34.801C85.0851 34.933 85.2758 34.999 85.5105 34.999ZM90.5732 29.928C90.6685 29.928 90.7712 29.9317 90.8812 29.939C90.9985 29.9463 91.0975 29.961 91.1782 29.983L91.0572 31.27C90.9839 31.2553 90.8959 31.2443 90.7932 31.237C90.6905 31.2223 90.5989 31.215 90.5182 31.215C90.2249 31.215 89.9499 31.2773 89.6932 31.402C89.4365 31.5193 89.2275 31.7063 89.0662 31.963C88.9122 32.2123 88.8352 32.5277 88.8352 32.909V36H87.4492V30.038H88.5162L88.7142 31.072H88.7802C88.9562 30.7567 89.1982 30.489 89.5062 30.269C89.8142 30.0417 90.1699 29.928 90.5732 29.928ZM97.3542 30.038V36H96.2652L96.0782 35.23H96.0122C95.8142 35.538 95.5465 35.7617 95.2092 35.901C94.8792 36.0403 94.5272 36.11 94.1532 36.11C93.4859 36.11 92.9615 35.9377 92.5802 35.593C92.2062 35.2483 92.0192 34.6947 92.0192 33.932V30.038H93.4052V33.657C93.4052 34.5443 93.7719 34.988 94.5052 34.988C95.0625 34.988 95.4439 34.8157 95.6492 34.471C95.8619 34.119 95.9682 33.613 95.9682 32.953V30.038H97.3542ZM101.31 36.11C100.452 36.11 99.7771 35.8643 99.2858 35.373C98.7945 34.8817 98.5488 34.108 98.5488 33.052C98.5488 32.3187 98.6698 31.7247 98.9118 31.27C99.1611 30.808 99.5021 30.4707 99.9348 30.258C100.367 30.038 100.862 29.928 101.42 29.928C101.794 29.928 102.127 29.9647 102.421 30.038C102.714 30.1113 102.963 30.1993 103.169 30.302L102.762 31.391C102.534 31.303 102.307 31.2297 102.08 31.171C101.852 31.105 101.632 31.072 101.42 31.072C100.452 31.072 99.9678 31.7283 99.9678 33.041C99.9678 33.679 100.089 34.1593 100.331 34.482C100.58 34.8047 100.936 34.966 101.398 34.966C101.728 34.966 102.021 34.9257 102.278 34.845C102.534 34.7643 102.78 34.6543 103.015 34.515V35.714C102.787 35.846 102.542 35.945 102.278 36.011C102.021 36.077 101.698 36.11 101.31 36.11ZM106.502 34.999C106.67 34.999 106.835 34.9843 106.997 34.955C107.165 34.9183 107.319 34.878 107.459 34.834V35.868C107.312 35.934 107.121 35.989 106.887 36.033C106.652 36.0843 106.406 36.11 106.15 36.11C105.812 36.11 105.504 36.055 105.226 35.945C104.947 35.8277 104.727 35.6297 104.566 35.351C104.404 35.0723 104.324 34.6837 104.324 34.185V31.083H103.521V30.478L104.401 29.994L104.841 28.729H105.71V30.038H107.404V31.083H105.71V34.174C105.71 34.4527 105.783 34.6617 105.93 34.801C106.076 34.933 106.267 34.999 106.502 34.999ZM109.133 27.739C109.346 27.739 109.526 27.794 109.672 27.904C109.826 28.0067 109.903 28.1937 109.903 28.465C109.903 28.7363 109.826 28.927 109.672 29.037C109.526 29.147 109.346 29.202 109.133 29.202C108.921 29.202 108.737 29.147 108.583 29.037C108.437 28.927 108.363 28.7363 108.363 28.465C108.363 28.1937 108.437 28.0067 108.583 27.904C108.737 27.794 108.921 27.739 109.133 27.739ZM109.826 30.038V36H108.44V30.038H109.826ZM116.702 33.008C116.702 33.998 116.446 34.7643 115.932 35.307C115.419 35.8423 114.722 36.11 113.842 36.11C113.3 36.11 112.816 35.989 112.39 35.747C111.965 35.505 111.631 35.153 111.389 34.691C111.147 34.229 111.026 33.668 111.026 33.008C111.026 32.018 111.279 31.259 111.785 30.731C112.299 30.1957 112.995 29.928 113.875 29.928C114.425 29.928 114.913 30.049 115.338 30.291C115.764 30.5257 116.097 30.874 116.339 31.336C116.581 31.7907 116.702 32.348 116.702 33.008ZM112.445 33.008C112.445 33.6387 112.555 34.1263 112.775 34.471C113.003 34.8157 113.366 34.988 113.864 34.988C114.363 34.988 114.722 34.8157 114.942 34.471C115.17 34.1263 115.283 33.6387 115.283 33.008C115.283 32.3773 115.17 31.8933 114.942 31.556C114.722 31.2187 114.359 31.05 113.853 31.05C113.362 31.05 113.003 31.2187 112.775 31.556C112.555 31.8933 112.445 32.3773 112.445 33.008ZM121.105 29.928C121.773 29.928 122.293 30.1003 122.667 30.445C123.049 30.7897 123.239 31.347 123.239 32.117V36H121.853V32.392C121.853 31.4973 121.487 31.05 120.753 31.05C120.196 31.05 119.815 31.226 119.609 31.578C119.404 31.93 119.301 32.4323 119.301 33.085V36H117.915V30.038H118.982L119.18 30.819H119.257C119.448 30.511 119.708 30.2873 120.038 30.148C120.376 30.0013 120.731 29.928 121.105 29.928Z" fill="white"/>
<path d="M74.968 55.542H74.032V57H73.267V55.542H70.189V54.867L73.213 50.538H74.032V54.831H74.968V55.542ZM73.267 52.806C73.267 52.494 73.273 52.23 73.285 52.014C73.297 51.792 73.306 51.582 73.312 51.384H73.276C73.228 51.498 73.168 51.621 73.096 51.753C73.024 51.885 72.955 51.996 72.889 52.086L70.963 54.831H73.267V52.806ZM79.6504 57H75.4024V56.343L77.0854 54.642C77.4094 54.318 77.6824 54.03 77.9044 53.778C78.1264 53.526 78.2944 53.28 78.4084 53.04C78.5224 52.794 78.5794 52.527 78.5794 52.239C78.5794 51.885 78.4744 51.618 78.2644 51.438C78.0544 51.252 77.7814 51.159 77.4454 51.159C77.1334 51.159 76.8574 51.213 76.6174 51.321C76.3834 51.429 76.1434 51.579 75.8974 51.771L75.4744 51.24C75.7264 51.03 76.0144 50.853 76.3384 50.709C76.6684 50.559 77.0374 50.484 77.4454 50.484C78.0454 50.484 78.5194 50.637 78.8674 50.943C79.2154 51.243 79.3894 51.66 79.3894 52.194C79.3894 52.53 79.3204 52.845 79.1824 53.139C79.0444 53.433 78.8524 53.724 78.6064 54.012C78.3604 54.294 78.0724 54.597 77.7424 54.921L76.4014 56.244V56.28H79.6504V57ZM83.6557 57H82.8637V50.16H83.6557V57ZM85.409 50.367C85.529 50.367 85.634 50.409 85.724 50.493C85.82 50.571 85.868 50.697 85.868 50.871C85.868 51.039 85.82 51.165 85.724 51.249C85.634 51.333 85.529 51.375 85.409 51.375C85.277 51.375 85.166 51.333 85.076 51.249C84.986 51.165 84.941 51.039 84.941 50.871C84.941 50.697 84.986 50.571 85.076 50.493C85.166 50.409 85.277 50.367 85.409 50.367ZM85.796 52.176V57H85.004V52.176H85.796ZM87.9273 53.733C87.9273 53.829 87.9213 53.955 87.9093 54.111C87.9033 54.267 87.8973 54.402 87.8913 54.516H87.9273C87.9633 54.468 88.0173 54.399 88.0893 54.309C88.1613 54.219 88.2333 54.129 88.3053 54.039C88.3833 53.943 88.4493 53.865 88.5033 53.805L90.0423 52.176H90.9693L89.0163 54.237L91.1043 57H90.1503L88.4763 54.75L87.9273 55.227V57H87.1443V50.16H87.9273V53.733ZM93.6349 52.086C94.0489 52.086 94.4029 52.176 94.6969 52.356C94.9969 52.536 95.2249 52.791 95.3809 53.121C95.5429 53.445 95.6239 53.826 95.6239 54.264V54.741H92.3209C92.3329 55.287 92.4709 55.704 92.7349 55.992C93.0049 56.274 93.3799 56.415 93.8599 56.415C94.1659 56.415 94.4359 56.388 94.6699 56.334C94.9099 56.274 95.1559 56.19 95.4079 56.082V56.775C95.1619 56.883 94.9189 56.961 94.6789 57.009C94.4389 57.063 94.1539 57.09 93.8239 57.09C93.3679 57.09 92.9629 56.997 92.6089 56.811C92.2609 56.625 91.9879 56.349 91.7899 55.983C91.5979 55.611 91.5019 55.158 91.5019 54.624C91.5019 54.096 91.5889 53.643 91.7629 53.265C91.9429 52.887 92.1919 52.596 92.5099 52.392C92.8339 52.188 93.2089 52.086 93.6349 52.086ZM93.6259 52.734C93.2479 52.734 92.9479 52.857 92.7259 53.103C92.5099 53.343 92.3809 53.679 92.3389 54.111H94.7959C94.7899 53.703 94.6939 53.373 94.5079 53.121C94.3219 52.863 94.0279 52.734 93.6259 52.734ZM99.813 55.668C99.813 56.136 99.639 56.49 99.291 56.73C98.943 56.97 98.475 57.09 97.887 57.09C97.551 57.09 97.26 57.063 97.014 57.009C96.774 56.955 96.561 56.88 96.375 56.784V56.064C96.567 56.16 96.798 56.25 97.068 56.334C97.344 56.412 97.623 56.451 97.905 56.451C98.307 56.451 98.598 56.388 98.778 56.262C98.958 56.13 99.048 55.956 99.048 55.74C99.048 55.62 99.015 55.512 98.949 55.416C98.883 55.32 98.763 55.224 98.589 55.128C98.421 55.032 98.178 54.924 97.86 54.804C97.548 54.684 97.281 54.564 97.059 54.444C96.837 54.324 96.666 54.18 96.546 54.012C96.426 53.844 96.366 53.628 96.366 53.364C96.366 52.956 96.531 52.641 96.861 52.419C97.197 52.197 97.635 52.086 98.175 52.086C98.469 52.086 98.742 52.116 98.994 52.176C99.252 52.23 99.492 52.308 99.714 52.41L99.444 53.04C99.24 52.956 99.027 52.884 98.805 52.824C98.583 52.764 98.355 52.734 98.121 52.734C97.797 52.734 97.548 52.788 97.374 52.896C97.206 52.998 97.122 53.139 97.122 53.319C97.122 53.451 97.161 53.565 97.239 53.661C97.317 53.751 97.446 53.841 97.626 53.931C97.812 54.015 98.058 54.117 98.364 54.237C98.67 54.351 98.931 54.468 99.147 54.588C99.363 54.708 99.528 54.855 99.642 55.029C99.756 55.197 99.813 55.41 99.813 55.668Z" fill="white"/>
<path d="M61.4537 51.1539C61.2059 50.7984 60.8812 50.5087 60.5059 50.3083C60.1307 50.1078 59.7154 50.0022 59.2936 50C57.855 50 57 51.3958 57 52.7937C57 54.1916 58.1859 55.1485 58.6442 55.6302C59.1025 56.1119 61.2893 57.6147 61.4455 58C61.5996 57.6147 63.7782 56.1161 64.2447 55.6302C64.7112 55.1442 65.8889 54.1916 65.8889 52.7937C65.8889 51.3958 65.0504 50 63.6117 50C63.1903 50.0024 62.7753 50.1081 62.4004 50.3085C62.0255 50.509 61.7012 50.7986 61.4537 51.1539Z" stroke="white" stroke-width="0.8" stroke-linecap="round" stroke-linejoin="round"/>
</g>
<defs>
<filter id="filter0_d_175_4490" x="0" y="0" width="152" height="89.916" filterUnits="userSpaceOnUse" color-interpolation-filters="sRGB">
<feFlood flood-opacity="0" result="BackgroundImageFix"/>
<feColorMatrix in="SourceAlpha" type="matrix" values="0 0 0 0 0 0 0 0 0 0 0 0 0 0 0 0 0 0 127 0" result="hardAlpha"/>
<feOffset dy="4"/>
<feGaussianBlur stdDeviation="2"/>
<feComposite in2="hardAlpha" operator="out"/>
<feColorMatrix type="matrix" values="0 0 0 0 0 0 0 0 0 0 0 0 0 0 0 0 0 0 0.25 0"/>
<feBlend mode="normal" in2="BackgroundImageFix" result="effect1_dropShadow_175_4490"/>
<feBlend mode="normal" in="SourceGraphic" in2="effect1_dropShadow_175_4490" result="shape"/>
</filter>
<linearGradient id="paint0_linear_175_4490" x1="76" y1="0" x2="76" y2="81.9161" gradientUnits="userSpaceOnUse">
<stop stop-color="#5D59E9"/>
<stop offset="1" stop-color="#8826E4"/>
</linearGradient>
</defs>
</svg>
