<svg width="29" height="29" viewBox="0 0 29 29" fill="none" xmlns="http://www.w3.org/2000/svg">
<path fill-rule="evenodd" clip-rule="evenodd" d="M6.91009 0.570278C6.54561 0.20552 6.0506 0 5.53431 0C5.01779 0 4.5228 0.205515 4.15831 0.570278L1.71058 3.01846C0.29571 4.43359 -0.296427 6.47483 0.141907 8.42703C0.142559 8.42964 0.14321 8.4329 0.143862 8.43551C0.86934 11.4813 2.74667 16.4085 7.67055 21.3332C12.5944 26.258 17.5221 28.1355 20.5687 28.8568C20.5706 28.8575 20.5732 28.8575 20.5758 28.8581C22.5257 29.2961 24.5655 28.705 25.9789 27.2911C26.8086 26.4678 27.7526 25.5236 28.4298 24.8462C28.7952 24.4817 29 23.9866 29 23.47C29 22.9536 28.7945 22.4585 28.4298 22.094C27.1952 20.8591 25.0116 18.6751 23.7772 17.4403C23.0175 16.6806 21.785 16.6806 21.0252 17.4403L18.1151 20.3503C17.9101 20.556 17.5936 20.5995 17.3412 20.4587C16.2923 19.7839 14.4324 18.4753 12.4803 16.5228C10.5303 14.5724 9.22176 12.7134 8.55628 11.6721C8.40771 11.4171 8.44919 11.0966 8.65619 10.8896C8.65663 10.889 8.65728 10.8883 8.65793 10.8877C9.44029 10.0993 10.7047 8.83468 11.5631 7.97632C12.3226 7.21639 12.3226 5.98374 11.5631 5.22381L6.91009 0.570278ZM5.99283 1.48771L10.6456 6.14114C10.8985 6.39423 10.8985 6.80569 10.6456 7.05879C9.78592 7.91843 8.52024 9.18435 7.7366 9.97336C7.10932 10.6008 6.9881 11.5773 7.44402 12.3416C7.44793 12.3468 7.45119 12.352 7.45445 12.3579C8.14734 13.4439 9.51684 15.3937 11.5629 17.4401C13.6084 19.4859 15.5571 20.855 16.6403 21.552C16.6462 21.5559 16.6527 21.5592 16.6586 21.5631C17.424 22.0204 18.4023 21.8985 19.0329 21.2678L21.9423 18.3576C22.1954 18.1047 22.6068 18.1047 22.8598 18.3576L27.5124 23.0113C27.6336 23.1325 27.7024 23.298 27.7024 23.4699C27.7024 23.6419 27.6336 23.8073 27.5124 23.9287C26.8358 24.6047 25.8938 25.5476 25.0634 26.3716C25.0627 26.3723 25.0621 26.3729 25.0614 26.3736C23.9626 27.472 22.3783 27.9321 20.863 27.5928C17.9605 26.9057 13.2763 25.1051 8.58768 20.4157C3.89929 15.7264 2.09913 11.0412 1.40685 8.13861C1.06757 6.62115 1.52827 5.03522 2.62777 3.93554L5.0755 1.48736C5.19692 1.36614 5.36221 1.29727 5.53424 1.29727C5.70605 1.29727 5.87156 1.36614 5.99277 1.48736L5.99283 1.48771Z" fill="white"/>
</svg>
