<svg width="67" height="73" viewBox="0 0 67 73" fill="none" xmlns="http://www.w3.org/2000/svg">
<g filter="url(#filter0_d_129_148)">
<path fill-rule="evenodd" clip-rule="evenodd" d="M46 29.5217C46 36.7187 36.7089 45.984 34.1472 48.4018C33.7781 48.7502 33.2219 48.7502 32.8528 48.4018C30.2911 45.984 21 36.7187 21 29.5217C21 22.6062 26.5964 17 33.5 17C40.4036 17 46 22.6062 46 29.5217ZM33.5 33C35.9853 33 38 30.9853 38 28.5C38 26.0147 35.9853 24 33.5 24C31.0147 24 29 26.0147 29 28.5C29 30.9853 31.0147 33 33.5 33Z" fill="url(#paint0_linear_129_148)"/>
<path d="M34.1472 48.4018L33.9756 48.22L34.1472 48.4018ZM32.8528 48.4018L32.6812 48.5836L32.8528 48.4018ZM34.3188 48.5836C35.6043 47.3704 38.579 44.4385 41.2341 40.9041C42.5618 39.1368 43.8135 37.2137 44.7341 35.2752C45.6537 33.3386 46.25 31.372 46.25 29.5217H45.75C45.75 31.2699 45.1849 33.1604 44.2824 35.0607C43.3809 36.9592 42.1497 38.8529 40.8344 40.6038C38.2036 44.1057 35.2519 47.0154 33.9756 48.22L34.3188 48.5836ZM32.6812 48.5836C33.1467 49.023 33.8533 49.023 34.3188 48.5836L33.9756 48.22C33.7028 48.4775 33.2972 48.4775 33.0244 48.22L32.6812 48.5836ZM20.75 29.5217C20.75 31.372 21.3463 33.3386 22.2659 35.2752C23.1865 37.2137 24.4382 39.1368 25.7659 40.9041C28.421 44.4385 31.3957 47.3704 32.6812 48.5836L33.0244 48.22C31.7481 47.0154 28.7964 44.1057 26.1656 40.6038C24.8503 38.8529 23.6191 36.9592 22.7176 35.0607C21.8151 33.1604 21.25 31.2699 21.25 29.5217H20.75ZM33.5 16.75C26.458 16.75 20.75 22.4685 20.75 29.5217H21.25C21.25 22.7438 26.7349 17.25 33.5 17.25V16.75ZM46.25 29.5217C46.25 22.4685 40.542 16.75 33.5 16.75V17.25C40.2651 17.25 45.75 22.7438 45.75 29.5217H46.25ZM37.75 28.5C37.75 30.8472 35.8472 32.75 33.5 32.75V33.25C36.1234 33.25 38.25 31.1234 38.25 28.5H37.75ZM33.5 24.25C35.8472 24.25 37.75 26.1528 37.75 28.5H38.25C38.25 25.8766 36.1234 23.75 33.5 23.75V24.25ZM29.25 28.5C29.25 26.1528 31.1528 24.25 33.5 24.25V23.75C30.8766 23.75 28.75 25.8766 28.75 28.5H29.25ZM33.5 32.75C31.1528 32.75 29.25 30.8472 29.25 28.5H28.75C28.75 31.1234 30.8766 33.25 33.5 33.25V32.75Z" fill="white"/>
</g>
<defs>
<filter id="filter0_d_129_148" x="0.75" y="0.75" width="65.5" height="72.1631" filterUnits="userSpaceOnUse" color-interpolation-filters="sRGB">
<feFlood flood-opacity="0" result="BackgroundImageFix"/>
<feColorMatrix in="SourceAlpha" type="matrix" values="0 0 0 0 0 0 0 0 0 0 0 0 0 0 0 0 0 0 127 0" result="hardAlpha"/>
<feOffset dy="4"/>
<feGaussianBlur stdDeviation="10"/>
<feComposite in2="hardAlpha" operator="out"/>
<feColorMatrix type="matrix" values="0 0 0 0 0.160784 0 0 0 0 0.0705882 0 0 0 0 0.427451 0 0 0 0.3 0"/>
<feBlend mode="normal" in2="BackgroundImageFix" result="effect1_dropShadow_129_148"/>
<feBlend mode="normal" in="SourceGraphic" in2="effect1_dropShadow_129_148" result="shape"/>
</filter>
<linearGradient id="paint0_linear_129_148" x1="33.5" y1="17" x2="33.5" y2="48.6631" gradientUnits="userSpaceOnUse">
<stop stop-color="#5D59E9"/>
<stop offset="1" stop-color="#8826E4"/>
</linearGradient>
</defs>
</svg>
