<svg width="30" height="30" viewBox="0 0 30 30" fill="none" xmlns="http://www.w3.org/2000/svg">
<mask id="path-1-inside-1_93_4180" fill="white">
<path fill-rule="evenodd" clip-rule="evenodd" d="M21 0H9V9H0V21H9V30H21V21H30V9H21V0Z"/>
</mask>
<path d="M9 0V-1.5H7.5V0H9ZM21 0H22.5V-1.5H21V0ZM9 9V10.5H10.5V9H9ZM0 9V7.5H-1.5V9H0ZM0 21H-1.5V22.5H0V21ZM9 21H10.5V19.5H9V21ZM9 30H7.5V31.5H9V30ZM21 30V31.5H22.5V30H21ZM21 21V19.5H19.5V21H21ZM30 21V22.5H31.5V21H30ZM30 9H31.5V7.5H30V9ZM21 9H19.5V10.5H21V9ZM9 1.5H21V-1.5H9V1.5ZM10.5 9V0H7.5V9H10.5ZM0 10.5H9V7.5H0V10.5ZM1.5 21V9H-1.5V21H1.5ZM9 19.5H0V22.5H9V19.5ZM10.5 30V21H7.5V30H10.5ZM21 28.5H9V31.5H21V28.5ZM19.5 21V30H22.5V21H19.5ZM30 19.5H21V22.5H30V19.5ZM28.5 9V21H31.5V9H28.5ZM21 10.5H30V7.5H21V10.5ZM19.5 0V9H22.5V0H19.5Z" fill="white" mask="url(#path-1-inside-1_93_4180)"/>
<path d="M15.0099 19.7283C13.0445 19.7283 11.4441 18.1279 11.4441 16.1626C11.4441 14.5186 12.194 12.9276 13.1161 11.6043C13.7788 10.6532 14.503 9.87952 15.0225 9.37448C15.5392 9.86611 16.256 10.6199 16.912 11.5573C17.8267 12.8645 18.5763 14.4618 18.5763 16.1626C18.5763 18.1279 16.9759 19.7283 15.0106 19.7283H15.0099Z" stroke="white" stroke-width="1.5"/>
</svg>
