<svg width="152" height="90" viewBox="0 0 152 90" fill="none" xmlns="http://www.w3.org/2000/svg">
<g filter="url(#filter0_d_156_5461)">
<path fill-rule="evenodd" clip-rule="evenodd" d="M12 0C7.58172 0 4 3.58172 4 8V62C4 66.4183 7.58173 70 12 70H17.9233C17.9437 70.0776 17.9741 70.1547 18.0152 70.2299L24.1227 81.396C24.502 82.0895 25.498 82.0895 25.8773 81.396L31.9848 70.2299C32.0259 70.1547 32.0563 70.0776 32.0767 70H140C144.418 70 148 66.4183 148 62V8C148 3.58172 144.418 0 140 0H12Z" fill="url(#paint0_linear_156_5461)"/>
<path fill-rule="evenodd" clip-rule="evenodd" d="M38.9044 34.6583V29.1875H39.9044V34.6583H38.9044ZM36.5367 30.1876H15.2856V33.6584H36.5367V30.1876ZM15.2856 29.1876H14.2856V30.1876V33.6584V34.6584H15.2856H36.5367H37.5367V33.6584V30.1876V29.1876H36.5367H15.2856ZM41.6398 29.1875V34.6583H42.6398V29.1875H41.6398Z" fill="white"/>
<path d="M40.9779 27.2337C40.3545 25.987 39.9382 24.4988 41.5549 21.4789C43.4958 17.8534 40.609 14.5384 39.1939 14.1433" stroke="white"/>
<path d="M43.1875 25.0175C43.1053 24.147 43.554 22.8791 44.8288 21.1494C46.4266 18.9811 45.5671 15.7049 44.8288 15.1532" stroke="white"/>
<path d="M60.553 20H59.563V13.015H57.11V12.146H62.995V13.015H60.553V20ZM66.0295 13.994C66.1395 13.994 66.2568 14.0013 66.3815 14.016C66.5135 14.0233 66.6271 14.038 66.7225 14.06L66.6015 14.951C66.5061 14.929 66.3998 14.9107 66.2825 14.896C66.1725 14.8813 66.0661 14.874 65.9635 14.874C65.6628 14.874 65.3805 14.9583 65.1165 15.127C64.8525 15.2883 64.6398 15.5193 64.4785 15.82C64.3245 16.1133 64.2475 16.458 64.2475 16.854V20H63.2795V14.104H64.0715L64.1815 15.182H64.2255C64.4161 14.8593 64.6618 14.5807 64.9625 14.346C65.2631 14.1113 65.6188 13.994 66.0295 13.994ZM68.0984 11.893C68.2451 11.893 68.3734 11.9443 68.4834 12.047C68.6007 12.1423 68.6594 12.2963 68.6594 12.509C68.6594 12.7143 68.6007 12.8683 68.4834 12.971C68.3734 13.0737 68.2451 13.125 68.0984 13.125C67.9371 13.125 67.8014 13.0737 67.6914 12.971C67.5814 12.8683 67.5264 12.7143 67.5264 12.509C67.5264 12.2963 67.5814 12.1423 67.6914 12.047C67.8014 11.9443 67.9371 11.893 68.0984 11.893ZM68.5714 14.104V20H67.6034V14.104H68.5714ZM72.3093 13.994C72.698 13.994 73.0463 14.0673 73.3543 14.214C73.6697 14.3607 73.9373 14.5843 74.1573 14.885H74.2123L74.3443 14.104H75.1143V20.099C75.1143 20.9423 74.898 21.5767 74.4653 22.002C74.04 22.4273 73.3763 22.64 72.4743 22.64C71.609 22.64 70.9013 22.5153 70.3513 22.266V21.375C70.9307 21.683 71.6567 21.837 72.5293 21.837C73.0353 21.837 73.4313 21.6867 73.7173 21.386C74.0107 21.0927 74.1573 20.6893 74.1573 20.176V19.945C74.1573 19.857 74.161 19.7323 74.1683 19.571C74.1757 19.4023 74.183 19.285 74.1903 19.219H74.1463C73.7503 19.813 73.1417 20.11 72.3203 20.11C71.5577 20.11 70.96 19.8423 70.5273 19.307C70.102 18.7717 69.8893 18.0237 69.8893 17.063C69.8893 16.1243 70.102 15.38 70.5273 14.83C70.96 14.2727 71.554 13.994 72.3093 13.994ZM72.4413 14.808C71.95 14.808 71.5687 15.006 71.2973 15.402C71.026 15.7907 70.8903 16.348 70.8903 17.074C70.8903 17.8 71.0223 18.3573 71.2863 18.746C71.5577 19.1273 71.95 19.318 72.4633 19.318C73.0573 19.318 73.49 19.1603 73.7613 18.845C74.0327 18.5223 74.1683 18.0053 74.1683 17.294V17.063C74.1683 16.2563 74.029 15.6807 73.7503 15.336C73.4717 14.984 73.0353 14.808 72.4413 14.808ZM78.8569 13.994C79.2456 13.994 79.5939 14.0673 79.9019 14.214C80.2172 14.3607 80.4849 14.5843 80.7049 14.885H80.7599L80.8919 14.104H81.6619V20.099C81.6619 20.9423 81.4456 21.5767 81.0129 22.002C80.5876 22.4273 79.9239 22.64 79.0219 22.64C78.1566 22.64 77.4489 22.5153 76.8989 22.266V21.375C77.4782 21.683 78.2042 21.837 79.0769 21.837C79.5829 21.837 79.9789 21.6867 80.2649 21.386C80.5582 21.0927 80.7049 20.6893 80.7049 20.176V19.945C80.7049 19.857 80.7086 19.7323 80.7159 19.571C80.7232 19.4023 80.7306 19.285 80.7379 19.219H80.6939C80.2979 19.813 79.6892 20.11 78.8679 20.11C78.1052 20.11 77.5076 19.8423 77.0749 19.307C76.6496 18.7717 76.4369 18.0237 76.4369 17.063C76.4369 16.1243 76.6496 15.38 77.0749 14.83C77.5076 14.2727 78.1016 13.994 78.8569 13.994ZM78.9889 14.808C78.4976 14.808 78.1162 15.006 77.8449 15.402C77.5736 15.7907 77.4379 16.348 77.4379 17.074C77.4379 17.8 77.5699 18.3573 77.8339 18.746C78.1052 19.1273 78.4976 19.318 79.0109 19.318C79.6049 19.318 80.0376 19.1603 80.3089 18.845C80.5802 18.5223 80.7159 18.0053 80.7159 17.294V17.063C80.7159 16.2563 80.5766 15.6807 80.2979 15.336C80.0192 14.984 79.5829 14.808 78.9889 14.808ZM85.5915 13.994C86.0975 13.994 86.5302 14.104 86.8895 14.324C87.2562 14.544 87.5348 14.8557 87.7255 15.259C87.9235 15.655 88.0225 16.1207 88.0225 16.656V17.239H83.9855C84.0002 17.9063 84.1688 18.416 84.4915 18.768C84.8215 19.1127 85.2798 19.285 85.8665 19.285C86.2405 19.285 86.5705 19.252 86.8565 19.186C87.1498 19.1127 87.4505 19.01 87.7585 18.878V19.725C87.4578 19.857 87.1608 19.9523 86.8675 20.011C86.5742 20.077 86.2258 20.11 85.8225 20.11C85.2652 20.11 84.7702 19.9963 84.3375 19.769C83.9122 19.5417 83.5785 19.2043 83.3365 18.757C83.1018 18.3023 82.9845 17.7487 82.9845 17.096C82.9845 16.4507 83.0908 15.897 83.3035 15.435C83.5235 14.973 83.8278 14.6173 84.2165 14.368C84.6125 14.1187 85.0708 13.994 85.5915 13.994ZM85.5805 14.786C85.1185 14.786 84.7518 14.9363 84.4805 15.237C84.2165 15.5303 84.0588 15.941 84.0075 16.469H87.0105C87.0032 15.9703 86.8858 15.567 86.6585 15.259C86.4312 14.9437 86.0718 14.786 85.5805 14.786ZM92.0535 13.994C92.1635 13.994 92.2808 14.0013 92.4055 14.016C92.5375 14.0233 92.6511 14.038 92.7465 14.06L92.6255 14.951C92.5301 14.929 92.4238 14.9107 92.3065 14.896C92.1965 14.8813 92.0901 14.874 91.9875 14.874C91.6868 14.874 91.4045 14.9583 91.1405 15.127C90.8765 15.2883 90.6638 15.5193 90.5025 15.82C90.3485 16.1133 90.2715 16.458 90.2715 16.854V20H89.3035V14.104H90.0955L90.2055 15.182H90.2495C90.4401 14.8593 90.6858 14.5807 90.9865 14.346C91.2871 14.1113 91.6428 13.994 92.0535 13.994ZM100.071 16.667C99.9755 16.3663 99.8912 16.073 99.8178 15.787C99.7518 15.4937 99.7005 15.2663 99.6638 15.105H99.6198C99.5905 15.2663 99.5428 15.4937 99.4768 15.787C99.4108 16.073 99.3265 16.37 99.2238 16.678L98.1678 19.989H97.0678L95.4508 14.093H96.4518L97.2658 17.239C97.3465 17.5543 97.4235 17.8733 97.4968 18.196C97.5702 18.5187 97.6215 18.7863 97.6508 18.999H97.6948C97.7242 18.8743 97.7572 18.7203 97.7938 18.537C97.8378 18.3537 97.8855 18.163 97.9368 17.965C97.9882 17.7597 98.0395 17.5763 98.0908 17.415L99.1358 14.093H100.192L101.204 17.415C101.285 17.6643 101.362 17.9357 101.435 18.229C101.516 18.5223 101.571 18.7753 101.6 18.988H101.644C101.666 18.8047 101.714 18.5517 101.787 18.229C101.868 17.9063 101.952 17.5763 102.04 17.239L102.865 14.093H103.855L102.216 19.989H101.083L100.071 16.667ZM106.925 14.005C107.644 14.005 108.176 14.1627 108.52 14.478C108.865 14.7933 109.037 15.2957 109.037 15.985V20H108.333L108.146 19.164H108.102C107.846 19.4867 107.574 19.725 107.288 19.879C107.01 20.033 106.621 20.11 106.122 20.11C105.587 20.11 105.143 19.9707 104.791 19.692C104.439 19.406 104.263 18.9623 104.263 18.361C104.263 17.7743 104.494 17.3233 104.956 17.008C105.418 16.6853 106.13 16.5093 107.09 16.48L108.091 16.447V16.095C108.091 15.6037 107.985 15.2627 107.772 15.072C107.56 14.8813 107.259 14.786 106.87 14.786C106.562 14.786 106.269 14.8337 105.99 14.929C105.712 15.017 105.451 15.1197 105.209 15.237L104.912 14.511C105.169 14.3717 105.473 14.2543 105.825 14.159C106.177 14.0563 106.544 14.005 106.925 14.005ZM107.211 17.151C106.478 17.1803 105.968 17.2977 105.682 17.503C105.404 17.7083 105.264 17.998 105.264 18.372C105.264 18.702 105.363 18.944 105.561 19.098C105.767 19.252 106.027 19.329 106.342 19.329C106.841 19.329 107.255 19.1933 107.585 18.922C107.915 18.6433 108.08 18.218 108.08 17.646V17.118L107.211 17.151ZM113.388 13.994C113.498 13.994 113.616 14.0013 113.74 14.016C113.872 14.0233 113.986 14.038 114.081 14.06L113.96 14.951C113.865 14.929 113.759 14.9107 113.641 14.896C113.531 14.8813 113.425 14.874 113.322 14.874C113.022 14.874 112.739 14.9583 112.475 15.127C112.211 15.2883 111.999 15.5193 111.837 15.82C111.683 16.1133 111.606 16.458 111.606 16.854V20H110.638V14.104H111.43L111.54 15.182H111.584C111.775 14.8593 112.021 14.5807 112.321 14.346C112.622 14.1113 112.978 13.994 113.388 13.994ZM117.8 13.994C118.504 13.994 119.036 14.1663 119.395 14.511C119.755 14.8483 119.934 15.3983 119.934 16.161V20H118.977V16.227C118.977 15.281 118.537 14.808 117.657 14.808C117.005 14.808 116.554 14.9913 116.304 15.358C116.055 15.7247 115.93 16.2527 115.93 16.942V20H114.962V14.104H115.743L115.886 14.907H115.941C116.132 14.599 116.396 14.3717 116.733 14.225C117.071 14.071 117.426 13.994 117.8 13.994ZM122.037 11.893C122.184 11.893 122.312 11.9443 122.422 12.047C122.539 12.1423 122.598 12.2963 122.598 12.509C122.598 12.7143 122.539 12.8683 122.422 12.971C122.312 13.0737 122.184 13.125 122.037 13.125C121.876 13.125 121.74 13.0737 121.63 12.971C121.52 12.8683 121.465 12.7143 121.465 12.509C121.465 12.2963 121.52 12.1423 121.63 12.047C121.74 11.9443 121.876 11.893 122.037 11.893ZM122.51 14.104V20H121.542V14.104H122.51ZM126.996 13.994C127.7 13.994 128.232 14.1663 128.591 14.511C128.95 14.8483 129.13 15.3983 129.13 16.161V20H128.173V16.227C128.173 15.281 127.733 14.808 126.853 14.808C126.2 14.808 125.749 14.9913 125.5 15.358C125.251 15.7247 125.126 16.2527 125.126 16.942V20H124.158V14.104H124.939L125.082 14.907H125.137C125.328 14.599 125.592 14.3717 125.929 14.225C126.266 14.071 126.622 13.994 126.996 13.994ZM132.828 13.994C133.216 13.994 133.565 14.0673 133.873 14.214C134.188 14.3607 134.456 14.5843 134.676 14.885H134.731L134.863 14.104H135.633V20.099C135.633 20.9423 135.416 21.5767 134.984 22.002C134.558 22.4273 133.895 22.64 132.993 22.64C132.127 22.64 131.42 22.5153 130.87 22.266V21.375C131.449 21.683 132.175 21.837 133.048 21.837C133.554 21.837 133.95 21.6867 134.236 21.386C134.529 21.0927 134.676 20.6893 134.676 20.176V19.945C134.676 19.857 134.679 19.7323 134.687 19.571C134.694 19.4023 134.701 19.285 134.709 19.219H134.665C134.269 19.813 133.66 20.11 132.839 20.11C132.076 20.11 131.478 19.8423 131.046 19.307C130.62 18.7717 130.408 18.0237 130.408 17.063C130.408 16.1243 130.62 15.38 131.046 14.83C131.478 14.2727 132.072 13.994 132.828 13.994ZM132.96 14.808C132.468 14.808 132.087 15.006 131.816 15.402C131.544 15.7907 131.409 16.348 131.409 17.074C131.409 17.8 131.541 18.3573 131.805 18.746C132.076 19.1273 132.468 19.318 132.982 19.318C133.576 19.318 134.008 19.1603 134.28 18.845C134.551 18.5223 134.687 18.0053 134.687 17.294V17.063C134.687 16.2563 134.547 15.6807 134.269 15.336C133.99 14.984 133.554 14.808 132.96 14.808ZM137.142 14.698C137.142 14.4193 137.208 14.225 137.34 14.115C137.472 14.005 137.63 13.95 137.813 13.95C138.004 13.95 138.165 14.005 138.297 14.115C138.437 14.225 138.506 14.4193 138.506 14.698C138.506 14.962 138.437 15.1527 138.297 15.27C138.165 15.3873 138.004 15.446 137.813 15.446C137.63 15.446 137.472 15.3873 137.34 15.27C137.208 15.1527 137.142 14.962 137.142 14.698ZM137.142 19.406C137.142 19.1347 137.208 18.944 137.34 18.834C137.472 18.724 137.63 18.669 137.813 18.669C138.004 18.669 138.165 18.724 138.297 18.834C138.437 18.944 138.506 19.1347 138.506 19.406C138.506 19.67 138.437 19.8607 138.297 19.978C138.165 20.0953 138.004 20.154 137.813 20.154C137.63 20.154 137.472 20.0953 137.34 19.978C137.208 19.8607 137.142 19.67 137.142 19.406Z" fill="white"/>
<path d="M62.588 33.855C62.588 34.5517 62.335 35.1017 61.829 35.505C61.323 35.9083 60.6227 36.11 59.728 36.11C58.8627 36.11 58.1293 35.9633 57.528 35.67V34.35C57.858 34.4967 58.221 34.6323 58.617 34.757C59.013 34.8743 59.4163 34.933 59.827 34.933C60.2963 34.933 60.641 34.8413 60.861 34.658C61.081 34.4747 61.191 34.2327 61.191 33.932C61.191 33.602 61.0517 33.3417 60.773 33.151C60.4943 32.9603 60.0873 32.7513 59.552 32.524C59.2293 32.3847 58.9213 32.2197 58.628 32.029C58.3347 31.8383 58.0927 31.5963 57.902 31.303C57.7113 31.0097 57.616 30.6357 57.616 30.181C57.616 29.5063 57.8507 28.982 58.32 28.608C58.7967 28.2267 59.431 28.036 60.223 28.036C60.641 28.036 61.0297 28.08 61.389 28.168C61.7557 28.256 62.1223 28.3807 62.489 28.542L62.038 29.675C61.708 29.5357 61.3927 29.4257 61.092 29.345C60.7987 29.2643 60.4943 29.224 60.179 29.224C59.7977 29.224 59.508 29.312 59.31 29.488C59.112 29.6567 59.013 29.8767 59.013 30.148C59.013 30.368 59.068 30.5513 59.178 30.698C59.288 30.8447 59.4567 30.9803 59.684 31.105C59.9187 31.2297 60.2193 31.3727 60.586 31.534C61.004 31.7173 61.3633 31.908 61.664 32.106C61.9647 32.304 62.192 32.5423 62.346 32.821C62.5073 33.0997 62.588 33.4443 62.588 33.855ZM70.5499 29.928C71.2245 29.928 71.7305 30.1003 72.0679 30.445C72.4125 30.7897 72.5849 31.347 72.5849 32.117V36H71.1989V32.381C71.1989 31.4937 70.8615 31.05 70.1869 31.05C69.7029 31.05 69.3582 31.2077 69.1529 31.523C68.9475 31.8383 68.8449 32.2967 68.8449 32.898V36H67.4589V32.381C67.4589 31.4937 67.1179 31.05 66.4359 31.05C65.9299 31.05 65.5815 31.226 65.3909 31.578C65.2002 31.93 65.1049 32.4323 65.1049 33.085V36H63.7189V30.038H64.7859L64.9839 30.819H65.0609C65.2369 30.511 65.4825 30.2873 65.7979 30.148C66.1205 30.0013 66.4542 29.928 66.7989 29.928C67.2462 29.928 67.6202 30.005 67.9209 30.159C68.2289 30.3057 68.4635 30.5367 68.6249 30.852H68.7349C68.9182 30.5293 69.1749 30.2947 69.5049 30.148C69.8349 30.0013 70.1832 29.928 70.5499 29.928ZM79.4254 33.008C79.4254 33.998 79.1687 34.7643 78.6554 35.307C78.1421 35.8423 77.4454 36.11 76.5654 36.11C76.0227 36.11 75.5387 35.989 75.1134 35.747C74.6881 35.505 74.3544 35.153 74.1124 34.691C73.8704 34.229 73.7494 33.668 73.7494 33.008C73.7494 32.018 74.0024 31.259 74.5084 30.731C75.0217 30.1957 75.7184 29.928 76.5984 29.928C77.1484 29.928 77.6361 30.049 78.0614 30.291C78.4867 30.5257 78.8204 30.874 79.0624 31.336C79.3044 31.7907 79.4254 32.348 79.4254 33.008ZM75.1684 33.008C75.1684 33.6387 75.2784 34.1263 75.4984 34.471C75.7257 34.8157 76.0887 34.988 76.5874 34.988C77.0861 34.988 77.4454 34.8157 77.6654 34.471C77.8927 34.1263 78.0064 33.6387 78.0064 33.008C78.0064 32.3773 77.8927 31.8933 77.6654 31.556C77.4454 31.2187 77.0824 31.05 76.5764 31.05C76.0851 31.05 75.7257 31.2187 75.4984 31.556C75.2784 31.8933 75.1684 32.3773 75.1684 33.008ZM82.0132 31.611C82.0132 31.8017 82.0059 32.0033 81.9912 32.216C81.9766 32.4287 81.9619 32.6303 81.9472 32.821H81.9802C82.0682 32.689 82.1782 32.5387 82.3102 32.37C82.4422 32.2013 82.5669 32.051 82.6842 31.919L84.4442 30.038H86.0172L83.6302 32.612L86.1712 36H84.5542L82.7062 33.448L82.0132 34.02V36H80.6382V27.64H82.0132V31.611ZM89.283 29.928C90.0824 29.928 90.713 30.1663 91.175 30.643C91.6444 31.1197 91.879 31.7833 91.879 32.634V33.338H87.941C87.9557 33.8807 88.106 34.3023 88.392 34.603C88.678 34.8963 89.074 35.043 89.58 35.043C89.9614 35.043 90.306 35.0063 90.614 34.933C90.922 34.8523 91.2374 34.7387 91.56 34.592V35.703C91.2667 35.8423 90.9624 35.945 90.647 36.011C90.3317 36.077 89.954 36.11 89.514 36.11C88.9347 36.11 88.4177 36 87.963 35.78C87.5157 35.5527 87.1637 35.2117 86.907 34.757C86.6577 34.3023 86.533 33.7377 86.533 33.063C86.533 32.0437 86.786 31.2663 87.292 30.731C87.798 30.1957 88.4617 29.928 89.283 29.928ZM89.283 30.951C88.909 30.951 88.6047 31.072 88.37 31.314C88.1427 31.5487 88.0107 31.9007 87.974 32.37H90.537C90.5297 31.9593 90.4234 31.622 90.218 31.358C90.02 31.0867 89.7084 30.951 89.283 30.951Z" fill="white"/>
<path d="M74.68 57H70.432V56.343L72.115 54.642C72.439 54.318 72.712 54.03 72.934 53.778C73.156 53.526 73.324 53.28 73.438 53.04C73.552 52.794 73.609 52.527 73.609 52.239C73.609 51.885 73.504 51.618 73.294 51.438C73.084 51.252 72.811 51.159 72.475 51.159C72.163 51.159 71.887 51.213 71.647 51.321C71.413 51.429 71.173 51.579 70.927 51.771L70.504 51.24C70.756 51.03 71.044 50.853 71.368 50.709C71.698 50.559 72.067 50.484 72.475 50.484C73.075 50.484 73.549 50.637 73.897 50.943C74.245 51.243 74.419 51.66 74.419 52.194C74.419 52.53 74.35 52.845 74.212 53.139C74.074 53.433 73.882 53.724 73.636 54.012C73.39 54.294 73.102 54.597 72.772 54.921L71.431 56.244V56.28H74.68V57ZM79.4074 52.077C79.4074 52.509 79.2874 52.854 79.0474 53.112C78.8074 53.364 78.4834 53.532 78.0754 53.616V53.652C78.5914 53.712 78.9754 53.874 79.2274 54.138C79.4794 54.402 79.6054 54.747 79.6054 55.173C79.6054 55.545 79.5184 55.878 79.3444 56.172C79.1704 56.46 78.9004 56.685 78.5344 56.847C78.1744 57.009 77.7094 57.09 77.1394 57.09C76.8034 57.09 76.4914 57.063 76.2034 57.009C75.9154 56.961 75.6394 56.871 75.3754 56.739V56.001C75.6454 56.133 75.9364 56.238 76.2484 56.316C76.5604 56.388 76.8604 56.424 77.1484 56.424C77.7244 56.424 78.1384 56.313 78.3904 56.091C78.6484 55.863 78.7774 55.551 78.7774 55.155C78.7774 54.753 78.6184 54.465 78.3004 54.291C77.9884 54.111 77.5474 54.021 76.9774 54.021H76.3564V53.346H76.9864C77.5144 53.346 77.9134 53.235 78.1834 53.013C78.4594 52.791 78.5974 52.497 78.5974 52.131C78.5974 51.819 78.4924 51.579 78.2824 51.411C78.0724 51.237 77.7874 51.15 77.4274 51.15C77.0794 51.15 76.7824 51.201 76.5364 51.303C76.2904 51.405 76.0474 51.534 75.8074 51.69L75.4114 51.15C75.6394 50.97 75.9214 50.814 76.2574 50.682C76.5994 50.55 76.9864 50.484 77.4184 50.484C78.0904 50.484 78.5884 50.634 78.9124 50.934C79.2424 51.234 79.4074 51.615 79.4074 52.077ZM83.6557 57H82.8637V50.16H83.6557V57ZM85.409 50.367C85.529 50.367 85.634 50.409 85.724 50.493C85.82 50.571 85.868 50.697 85.868 50.871C85.868 51.039 85.82 51.165 85.724 51.249C85.634 51.333 85.529 51.375 85.409 51.375C85.277 51.375 85.166 51.333 85.076 51.249C84.986 51.165 84.941 51.039 84.941 50.871C84.941 50.697 84.986 50.571 85.076 50.493C85.166 50.409 85.277 50.367 85.409 50.367ZM85.796 52.176V57H85.004V52.176H85.796ZM87.9273 53.733C87.9273 53.829 87.9213 53.955 87.9093 54.111C87.9033 54.267 87.8973 54.402 87.8913 54.516H87.9273C87.9633 54.468 88.0173 54.399 88.0893 54.309C88.1613 54.219 88.2333 54.129 88.3053 54.039C88.3833 53.943 88.4493 53.865 88.5033 53.805L90.0423 52.176H90.9693L89.0163 54.237L91.1043 57H90.1503L88.4763 54.75L87.9273 55.227V57H87.1443V50.16H87.9273V53.733ZM93.6349 52.086C94.0489 52.086 94.4029 52.176 94.6969 52.356C94.9969 52.536 95.2249 52.791 95.3809 53.121C95.5429 53.445 95.6239 53.826 95.6239 54.264V54.741H92.3209C92.3329 55.287 92.4709 55.704 92.7349 55.992C93.0049 56.274 93.3799 56.415 93.8599 56.415C94.1659 56.415 94.4359 56.388 94.6699 56.334C94.9099 56.274 95.1559 56.19 95.4079 56.082V56.775C95.1619 56.883 94.9189 56.961 94.6789 57.009C94.4389 57.063 94.1539 57.09 93.8239 57.09C93.3679 57.09 92.9629 56.997 92.6089 56.811C92.2609 56.625 91.9879 56.349 91.7899 55.983C91.5979 55.611 91.5019 55.158 91.5019 54.624C91.5019 54.096 91.5889 53.643 91.7629 53.265C91.9429 52.887 92.1919 52.596 92.5099 52.392C92.8339 52.188 93.2089 52.086 93.6349 52.086ZM93.6259 52.734C93.2479 52.734 92.9479 52.857 92.7259 53.103C92.5099 53.343 92.3809 53.679 92.3389 54.111H94.7959C94.7899 53.703 94.6939 53.373 94.5079 53.121C94.3219 52.863 94.0279 52.734 93.6259 52.734ZM99.813 55.668C99.813 56.136 99.639 56.49 99.291 56.73C98.943 56.97 98.475 57.09 97.887 57.09C97.551 57.09 97.26 57.063 97.014 57.009C96.774 56.955 96.561 56.88 96.375 56.784V56.064C96.567 56.16 96.798 56.25 97.068 56.334C97.344 56.412 97.623 56.451 97.905 56.451C98.307 56.451 98.598 56.388 98.778 56.262C98.958 56.13 99.048 55.956 99.048 55.74C99.048 55.62 99.015 55.512 98.949 55.416C98.883 55.32 98.763 55.224 98.589 55.128C98.421 55.032 98.178 54.924 97.86 54.804C97.548 54.684 97.281 54.564 97.059 54.444C96.837 54.324 96.666 54.18 96.546 54.012C96.426 53.844 96.366 53.628 96.366 53.364C96.366 52.956 96.531 52.641 96.861 52.419C97.197 52.197 97.635 52.086 98.175 52.086C98.469 52.086 98.742 52.116 98.994 52.176C99.252 52.23 99.492 52.308 99.714 52.41L99.444 53.04C99.24 52.956 99.027 52.884 98.805 52.824C98.583 52.764 98.355 52.734 98.121 52.734C97.797 52.734 97.548 52.788 97.374 52.896C97.206 52.998 97.122 53.139 97.122 53.319C97.122 53.451 97.161 53.565 97.239 53.661C97.317 53.751 97.446 53.841 97.626 53.931C97.812 54.015 98.058 54.117 98.364 54.237C98.67 54.351 98.931 54.468 99.147 54.588C99.363 54.708 99.528 54.855 99.642 55.029C99.756 55.197 99.813 55.41 99.813 55.668Z" fill="white"/>
<path d="M61.4537 51.1539C61.2059 50.7984 60.8812 50.5087 60.5059 50.3083C60.1307 50.1078 59.7154 50.0022 59.2936 50C57.855 50 57 51.3958 57 52.7937C57 54.1916 58.1859 55.1485 58.6442 55.6302C59.1025 56.1119 61.2893 57.6147 61.4455 58C61.5996 57.6147 63.7782 56.1161 64.2447 55.6302C64.7112 55.1442 65.8889 54.1916 65.8889 52.7937C65.8889 51.3958 65.0504 50 63.6117 50C63.1903 50.0024 62.7753 50.1081 62.4004 50.3085C62.0255 50.509 61.7012 50.7986 61.4537 51.1539Z" stroke="white" stroke-width="0.8" stroke-linecap="round" stroke-linejoin="round"/>
</g>
<defs>
<filter id="filter0_d_156_5461" x="0" y="0" width="152" height="89.916" filterUnits="userSpaceOnUse" color-interpolation-filters="sRGB">
<feFlood flood-opacity="0" result="BackgroundImageFix"/>
<feColorMatrix in="SourceAlpha" type="matrix" values="0 0 0 0 0 0 0 0 0 0 0 0 0 0 0 0 0 0 127 0" result="hardAlpha"/>
<feOffset dy="4"/>
<feGaussianBlur stdDeviation="2"/>
<feComposite in2="hardAlpha" operator="out"/>
<feColorMatrix type="matrix" values="0 0 0 0 0 0 0 0 0 0 0 0 0 0 0 0 0 0 0.25 0"/>
<feBlend mode="normal" in2="BackgroundImageFix" result="effect1_dropShadow_156_5461"/>
<feBlend mode="normal" in="SourceGraphic" in2="effect1_dropShadow_156_5461" result="shape"/>
</filter>
<linearGradient id="paint0_linear_156_5461" x1="76" y1="0" x2="76" y2="81.9161" gradientUnits="userSpaceOnUse">
<stop stop-color="#5D59E9"/>
<stop offset="1" stop-color="#8826E4"/>
</linearGradient>
</defs>
</svg>
