<svg width="85" height="88" viewBox="0 0 85 88" fill="none" xmlns="http://www.w3.org/2000/svg">
<g filter="url(#filter0_d_76_8126)">
<g filter="url(#filter1_b_76_8126)">
<path fill-rule="evenodd" clip-rule="evenodd" d="M28 16C23.5817 16 20 19.5817 20 24V44C20 48.4183 23.5817 52 28 52H34.9233C34.9437 52.0776 34.9741 52.1547 35.0152 52.2299L41.1227 63.396C41.502 64.0895 42.498 64.0895 42.8773 63.396L48.9848 52.2299C49.0259 52.1547 49.0563 52.0776 49.0767 52H57C61.4183 52 65 48.4183 65 44V24C65 19.5817 61.4183 16 57 16H28Z" fill="white" fill-opacity="0.9"/>
</g>
<path fill-rule="evenodd" clip-rule="evenodd" d="M45.693 36.801H31V38.7288H45.693V36.801ZM31 35.801H30V36.801V38.7288V39.7288H31H45.693H46.693V38.7288V36.801V35.801H45.693H31ZM47.675 39.7289V35.8011H48.675V39.7289H47.675ZM49.6389 35.8011V39.7289H50.6389V35.8011H49.6389Z" fill="url(#paint0_linear_76_8126)"/>
<path d="M49.1636 34.3983C48.716 33.5032 48.4172 32.4347 49.5779 30.2666C50.9713 27.6637 48.8988 25.2837 47.8828 25" stroke="url(#paint1_linear_76_8126)"/>
<path d="M50.7501 32.8074C50.6911 32.1824 51.0133 31.2722 51.9285 30.0303C53.0757 28.4736 52.4585 26.1215 51.9285 25.7254" stroke="url(#paint2_linear_76_8126)"/>
</g>
<defs>
<filter id="filter0_d_76_8126" x="0" y="0" width="85" height="87.9161" filterUnits="userSpaceOnUse" color-interpolation-filters="sRGB">
<feFlood flood-opacity="0" result="BackgroundImageFix"/>
<feColorMatrix in="SourceAlpha" type="matrix" values="0 0 0 0 0 0 0 0 0 0 0 0 0 0 0 0 0 0 127 0" result="hardAlpha"/>
<feOffset dy="4"/>
<feGaussianBlur stdDeviation="10"/>
<feComposite in2="hardAlpha" operator="out"/>
<feColorMatrix type="matrix" values="0 0 0 0 0.162597 0 0 0 0 0.0688742 0 0 0 0 0.429346 0 0 0 0.3 0"/>
<feBlend mode="normal" in2="BackgroundImageFix" result="effect1_dropShadow_76_8126"/>
<feBlend mode="normal" in="SourceGraphic" in2="effect1_dropShadow_76_8126" result="shape"/>
</filter>
<filter id="filter1_b_76_8126" x="16" y="12" width="53" height="55.9161" filterUnits="userSpaceOnUse" color-interpolation-filters="sRGB">
<feFlood flood-opacity="0" result="BackgroundImageFix"/>
<feGaussianBlur in="BackgroundImageFix" stdDeviation="2"/>
<feComposite in2="SourceAlpha" operator="in" result="effect1_backgroundBlur_76_8126"/>
<feBlend mode="normal" in="SourceGraphic" in2="effect1_backgroundBlur_76_8126" result="shape"/>
</filter>
<linearGradient id="paint0_linear_76_8126" x1="40.3194" y1="35.801" x2="40.3194" y2="39.7289" gradientUnits="userSpaceOnUse">
<stop stop-color="#5D59E9"/>
<stop offset="1" stop-color="#8826E4"/>
</linearGradient>
<linearGradient id="paint1_linear_76_8126" x1="49.1843" y1="25.1707" x2="47.9945" y2="34.245" gradientUnits="userSpaceOnUse">
<stop stop-color="#5D59E9"/>
<stop offset="1" stop-color="#8826E4"/>
</linearGradient>
<linearGradient id="paint2_linear_76_8126" x1="52.9642" y1="26.291" x2="49.7143" y2="32.2418" gradientUnits="userSpaceOnUse">
<stop stop-color="#5D59E9"/>
<stop offset="1" stop-color="#8826E4"/>
</linearGradient>
</defs>
</svg>
