<svg width="85" height="88" viewBox="0 0 85 88" fill="none" xmlns="http://www.w3.org/2000/svg">
<g filter="url(#filter0_d_76_8116)">
<g filter="url(#filter1_b_76_8116)">
<path fill-rule="evenodd" clip-rule="evenodd" d="M28 16C23.5817 16 20 19.5817 20 24V44C20 48.4183 23.5817 52 28 52H34.9233C34.9437 52.0776 34.9741 52.1547 35.0152 52.2299L41.1227 63.396C41.502 64.0895 42.498 64.0895 42.8773 63.396L48.9848 52.2299C49.0259 52.1547 49.0563 52.0776 49.0767 52H57C61.4183 52 65 48.4183 65 44V24C65 19.5817 61.4183 16 57 16H28Z" fill="white" fill-opacity="0.9"/>
</g>
<path d="M30 46L34.0232 38.7297" stroke="url(#paint0_linear_76_8116)" stroke-miterlimit="22.93"/>
<path d="M54 46L49.9768 38.7297" stroke="url(#paint1_linear_76_8116)" stroke-miterlimit="22.93"/>
<path d="M37.5394 32.6983C37.3885 32.8674 37.2679 33.0714 37.1849 33.2979C37.102 33.5243 37.0584 33.7686 37.0569 34.0158C37.0575 34.1224 37.0763 34.2277 37.1119 34.3254C37.1476 34.4232 37.1995 34.5112 37.2644 34.5843C37.3294 34.6574 37.4061 34.7141 37.4898 34.7508C37.5736 34.7875 37.6627 34.8036 37.7519 34.798C40.5663 34.9696 43.3862 34.9696 46.2007 34.798C46.29 34.8046 46.3794 34.7892 46.4636 34.7528C46.5477 34.7165 46.6247 34.6599 46.6899 34.5866C46.755 34.5133 46.8068 34.4248 46.8422 34.3266C46.8776 34.2285 46.8958 34.1227 46.8956 34.0158C46.8972 33.7686 46.8556 33.5238 46.7735 33.297C46.6915 33.0701 46.5707 32.8662 46.4189 32.6983M47.7801 36.7468L45.7756 37.035M36.1666 36.7468L38.1654 37.035M47.7974 33.6521H49.2447M34.8112 33.6521H36.2585M35.7734 25.7831H36.9403M46.1533 25.7831H47.3203M46.9643 30.3589V28.343C46.989 27.9987 46.9058 27.6557 46.731 27.3804L44.6246 24.3741C44.5285 24.2337 44.3903 24.1436 44.2395 24.1229C42.4412 23.959 40.635 23.959 38.8366 24.1229C38.6837 24.1418 38.5432 24.2321 38.4457 24.3741L36.3452 27.3804C36.1683 27.6547 36.083 27.9978 36.106 28.343V30.2822M36.9053 28.2593L38.504 28.4895M46.1708 28.2593L44.5721 28.4895M37.6725 25.4807C37.6071 25.6623 37.6085 25.8575 37.6113 26.0551C37.6108 26.1435 37.626 26.231 37.656 26.3118C37.686 26.3926 37.7301 26.4648 37.7854 26.5236C37.8406 26.5824 37.9057 26.6264 37.9763 26.6526C38.1194 26.7029 38.1194 26.7029 38.1194 26.7029C40.3662 26.8425 42.6929 26.8154 44.9397 26.6759C45.0108 26.6817 45.0821 26.6699 45.1492 26.6412C45.2163 26.6126 45.2778 26.5678 45.3297 26.5096C45.3817 26.4513 45.4231 26.381 45.4514 26.3028C45.4797 26.2246 45.4942 26.1403 45.494 26.0551C45.4936 25.8574 45.4592 25.6619 45.3929 25.4807M45.9307 40.7198V41.6599C45.9322 41.7551 45.9649 41.8459 46.0219 41.9126C46.0788 41.9793 46.1554 42.0167 46.2351 42.0167H48.4809C48.5208 42.0176 48.5606 42.0091 48.5978 41.9916C48.635 41.9742 48.669 41.9482 48.6978 41.915C48.7266 41.8819 48.7497 41.8423 48.7656 41.7985C48.7816 41.7547 48.7903 41.7076 48.791 41.6599V36.8566C48.8135 36.4246 48.7078 35.9969 48.4923 35.6489L45.856 31.8886C45.7976 31.7998 45.7247 31.7261 45.6418 31.6718C45.5589 31.6176 45.4677 31.584 45.3736 31.5729C43.1196 31.3671 40.8558 31.3671 38.6019 31.5729C38.413 31.5996 38.24 31.7128 38.1194 31.8886L35.4889 35.6489C35.2683 35.9938 35.162 36.4238 35.1902 36.8566V41.6599C35.1917 41.7551 35.2245 41.8459 35.2814 41.9126C35.3383 41.9793 35.4149 42.0167 35.4946 42.0167H37.7404C37.7804 42.0176 37.8201 42.0091 37.8573 41.9916C37.8945 41.9742 37.9285 41.9482 37.9573 41.915C37.9861 41.8819 38.0092 41.8423 38.0252 41.7985C38.0412 41.7547 38.0498 41.7076 38.0505 41.6599V40.7267C40.6695 40.9017 43.2945 40.9017 45.9135 40.7267L45.9307 40.7198Z" stroke="url(#paint2_linear_76_8116)" stroke-miterlimit="22.93"/>
</g>
<defs>
<filter id="filter0_d_76_8116" x="0" y="0" width="85" height="87.9161" filterUnits="userSpaceOnUse" color-interpolation-filters="sRGB">
<feFlood flood-opacity="0" result="BackgroundImageFix"/>
<feColorMatrix in="SourceAlpha" type="matrix" values="0 0 0 0 0 0 0 0 0 0 0 0 0 0 0 0 0 0 127 0" result="hardAlpha"/>
<feOffset dy="4"/>
<feGaussianBlur stdDeviation="10"/>
<feComposite in2="hardAlpha" operator="out"/>
<feColorMatrix type="matrix" values="0 0 0 0 0.162597 0 0 0 0 0.0688742 0 0 0 0 0.429346 0 0 0 0.3 0"/>
<feBlend mode="normal" in2="BackgroundImageFix" result="effect1_dropShadow_76_8116"/>
<feBlend mode="normal" in="SourceGraphic" in2="effect1_dropShadow_76_8116" result="shape"/>
</filter>
<filter id="filter1_b_76_8116" x="16" y="12" width="53" height="55.9161" filterUnits="userSpaceOnUse" color-interpolation-filters="sRGB">
<feFlood flood-opacity="0" result="BackgroundImageFix"/>
<feGaussianBlur in="BackgroundImageFix" stdDeviation="2"/>
<feComposite in2="SourceAlpha" operator="in" result="effect1_backgroundBlur_76_8116"/>
<feBlend mode="normal" in="SourceGraphic" in2="effect1_backgroundBlur_76_8116" result="shape"/>
</filter>
<linearGradient id="paint0_linear_76_8116" x1="32.0116" y1="38.7297" x2="32.0116" y2="46" gradientUnits="userSpaceOnUse">
<stop stop-color="#5D59E9"/>
<stop offset="1" stop-color="#8826E4"/>
</linearGradient>
<linearGradient id="paint1_linear_76_8116" x1="51.9884" y1="38.7297" x2="51.9884" y2="46" gradientUnits="userSpaceOnUse">
<stop stop-color="#5D59E9"/>
<stop offset="1" stop-color="#8826E4"/>
</linearGradient>
<linearGradient id="paint2_linear_76_8116" x1="42.028" y1="24" x2="42.028" y2="42.0167" gradientUnits="userSpaceOnUse">
<stop stop-color="#5D59E9"/>
<stop offset="1" stop-color="#8826E4"/>
</linearGradient>
</defs>
</svg>
