<svg width="152" height="90" viewBox="0 0 152 90" fill="none" xmlns="http://www.w3.org/2000/svg">
<g filter="url(#filter0_d_156_5489)">
<path fill-rule="evenodd" clip-rule="evenodd" d="M12 0C7.58172 0 4 3.58172 4 8V62C4 66.4183 7.58173 70 12 70H17.9233C17.9437 70.0776 17.9741 70.1547 18.0152 70.2299L24.1227 81.396C24.502 82.0895 25.498 82.0895 25.8773 81.396L31.9848 70.2299C32.0259 70.1547 32.0563 70.0776 32.0767 70H140C144.418 70 148 66.4183 148 62V8C148 3.58172 144.418 0 140 0H12Z" fill="url(#paint0_linear_156_5489)"/>
<path d="M24.3667 23.9598C24.1593 24.1924 23.9935 24.4729 23.8794 24.7843C23.7654 25.0956 23.7055 25.4315 23.7034 25.7714C23.7043 25.9179 23.73 26.0628 23.7791 26.1971C23.8281 26.3315 23.8994 26.4526 23.9887 26.5531C24.0781 26.6537 24.1835 26.7315 24.2987 26.782C24.4139 26.8325 24.5364 26.8546 24.6589 26.847C28.5288 27.0828 32.4062 27.0828 36.276 26.847C36.3988 26.856 36.5219 26.8348 36.6376 26.7848C36.7533 26.7348 36.8591 26.6571 36.9487 26.5563C37.0382 26.4555 37.1095 26.3338 37.1582 26.1988C37.2069 26.0638 37.2318 25.9183 37.2316 25.7714C37.2338 25.4316 37.1766 25.0949 37.0638 24.783C36.9509 24.4711 36.7848 24.1907 36.5761 23.9598M38.4478 29.5265L35.6916 29.9228M22.4793 29.5265L25.2276 29.9228M38.4715 25.2713H40.4617M20.6155 25.2713H22.6056M35.9049 34.9894V36.282C35.9069 36.413 35.9519 36.5378 36.0302 36.6295C36.1085 36.7213 36.2138 36.7726 36.3234 36.7726H39.4113C39.4663 36.7739 39.5209 36.7622 39.5721 36.7382C39.6233 36.7142 39.67 36.6784 39.7096 36.6328C39.7492 36.5873 39.7809 36.5329 39.8029 36.4727C39.8249 36.4125 39.8367 36.3477 39.8378 36.282V29.6775C39.8687 29.0835 39.7233 28.4954 39.4271 28.0169L35.8022 22.8465C35.7218 22.7244 35.6216 22.6231 35.5076 22.5485C35.3936 22.4739 35.2682 22.4276 35.1388 22.4125C32.0396 22.1294 28.9269 22.1294 25.8278 22.4125C25.568 22.4491 25.3302 22.6047 25.1644 22.8465L21.5474 28.0169C21.2441 28.4912 21.0979 29.0824 21.1367 29.6775V36.282C21.1388 36.413 21.1838 36.5378 21.2621 36.6295C21.3403 36.7213 21.4456 36.7726 21.5553 36.7726H24.6432C24.6981 36.7739 24.7528 36.7622 24.8039 36.7382C24.8551 36.7142 24.9019 36.6784 24.9415 36.6328C24.9811 36.5873 25.0128 36.5329 25.0348 36.4727C25.0567 36.4125 25.0686 36.3477 25.0696 36.282V34.9988C28.6706 35.2395 32.2801 35.2395 35.8812 34.9988L35.9049 34.9894Z" stroke="white" stroke-miterlimit="22.93"/>
<path d="M14.0001 42.25L19.532 32.2534" stroke="white" stroke-miterlimit="22.93"/>
<path d="M46.9999 42.25L41.468 32.2534" stroke="white" stroke-miterlimit="22.93"/>
<path d="M21.9385 14.4517H23.543M36.2109 14.4517H37.8154M37.326 20.7435V17.9717C37.3599 17.4982 37.2455 17.0265 37.0051 16.6481L34.1089 12.5143C33.9767 12.3213 33.7868 12.1974 33.5794 12.169C31.1067 11.9437 28.6232 11.9437 26.1504 12.169C25.9402 12.195 25.747 12.3191 25.6129 12.5143L22.7247 16.6481C22.4814 17.0252 22.3642 17.497 22.3958 17.9717V20.638M23.4949 17.8566L25.6931 18.1731M36.235 17.8566L34.0367 18.1731M24.5498 14.0359C24.4599 14.2856 24.4617 14.554 24.4656 14.8258C24.4648 14.9473 24.4858 15.0677 24.5271 15.1788C24.5683 15.2899 24.629 15.3892 24.7049 15.47C24.7809 15.5508 24.8704 15.6113 24.9675 15.6474C25.1643 15.7166 25.1643 15.7166 25.1643 15.7166C28.2536 15.9084 31.4528 15.8712 34.5422 15.6794C34.6399 15.6873 34.7379 15.6711 34.8302 15.6317C34.9225 15.5924 35.007 15.5307 35.0785 15.4507C35.1499 15.3706 35.2069 15.2738 35.2457 15.1663C35.2846 15.0588 35.3045 14.9429 35.3043 14.8258C35.3037 14.5539 35.2564 14.2851 35.1653 14.0359" stroke="white" stroke-miterlimit="22.93"/>
<path d="M60.553 20H59.563V13.015H57.11V12.146H62.995V13.015H60.553V20ZM66.0295 13.994C66.1395 13.994 66.2568 14.0013 66.3815 14.016C66.5135 14.0233 66.6271 14.038 66.7225 14.06L66.6015 14.951C66.5061 14.929 66.3998 14.9107 66.2825 14.896C66.1725 14.8813 66.0661 14.874 65.9635 14.874C65.6628 14.874 65.3805 14.9583 65.1165 15.127C64.8525 15.2883 64.6398 15.5193 64.4785 15.82C64.3245 16.1133 64.2475 16.458 64.2475 16.854V20H63.2795V14.104H64.0715L64.1815 15.182H64.2255C64.4161 14.8593 64.6618 14.5807 64.9625 14.346C65.2631 14.1113 65.6188 13.994 66.0295 13.994ZM68.0984 11.893C68.2451 11.893 68.3734 11.9443 68.4834 12.047C68.6007 12.1423 68.6594 12.2963 68.6594 12.509C68.6594 12.7143 68.6007 12.8683 68.4834 12.971C68.3734 13.0737 68.2451 13.125 68.0984 13.125C67.9371 13.125 67.8014 13.0737 67.6914 12.971C67.5814 12.8683 67.5264 12.7143 67.5264 12.509C67.5264 12.2963 67.5814 12.1423 67.6914 12.047C67.8014 11.9443 67.9371 11.893 68.0984 11.893ZM68.5714 14.104V20H67.6034V14.104H68.5714ZM72.3093 13.994C72.698 13.994 73.0463 14.0673 73.3543 14.214C73.6697 14.3607 73.9373 14.5843 74.1573 14.885H74.2123L74.3443 14.104H75.1143V20.099C75.1143 20.9423 74.898 21.5767 74.4653 22.002C74.04 22.4273 73.3763 22.64 72.4743 22.64C71.609 22.64 70.9013 22.5153 70.3513 22.266V21.375C70.9307 21.683 71.6567 21.837 72.5293 21.837C73.0353 21.837 73.4313 21.6867 73.7173 21.386C74.0107 21.0927 74.1573 20.6893 74.1573 20.176V19.945C74.1573 19.857 74.161 19.7323 74.1683 19.571C74.1757 19.4023 74.183 19.285 74.1903 19.219H74.1463C73.7503 19.813 73.1417 20.11 72.3203 20.11C71.5577 20.11 70.96 19.8423 70.5273 19.307C70.102 18.7717 69.8893 18.0237 69.8893 17.063C69.8893 16.1243 70.102 15.38 70.5273 14.83C70.96 14.2727 71.554 13.994 72.3093 13.994ZM72.4413 14.808C71.95 14.808 71.5687 15.006 71.2973 15.402C71.026 15.7907 70.8903 16.348 70.8903 17.074C70.8903 17.8 71.0223 18.3573 71.2863 18.746C71.5577 19.1273 71.95 19.318 72.4633 19.318C73.0573 19.318 73.49 19.1603 73.7613 18.845C74.0327 18.5223 74.1683 18.0053 74.1683 17.294V17.063C74.1683 16.2563 74.029 15.6807 73.7503 15.336C73.4717 14.984 73.0353 14.808 72.4413 14.808ZM78.8569 13.994C79.2456 13.994 79.5939 14.0673 79.9019 14.214C80.2172 14.3607 80.4849 14.5843 80.7049 14.885H80.7599L80.8919 14.104H81.6619V20.099C81.6619 20.9423 81.4456 21.5767 81.0129 22.002C80.5876 22.4273 79.9239 22.64 79.0219 22.64C78.1566 22.64 77.4489 22.5153 76.8989 22.266V21.375C77.4782 21.683 78.2042 21.837 79.0769 21.837C79.5829 21.837 79.9789 21.6867 80.2649 21.386C80.5582 21.0927 80.7049 20.6893 80.7049 20.176V19.945C80.7049 19.857 80.7086 19.7323 80.7159 19.571C80.7232 19.4023 80.7306 19.285 80.7379 19.219H80.6939C80.2979 19.813 79.6892 20.11 78.8679 20.11C78.1052 20.11 77.5076 19.8423 77.0749 19.307C76.6496 18.7717 76.4369 18.0237 76.4369 17.063C76.4369 16.1243 76.6496 15.38 77.0749 14.83C77.5076 14.2727 78.1016 13.994 78.8569 13.994ZM78.9889 14.808C78.4976 14.808 78.1162 15.006 77.8449 15.402C77.5736 15.7907 77.4379 16.348 77.4379 17.074C77.4379 17.8 77.5699 18.3573 77.8339 18.746C78.1052 19.1273 78.4976 19.318 79.0109 19.318C79.6049 19.318 80.0376 19.1603 80.3089 18.845C80.5802 18.5223 80.7159 18.0053 80.7159 17.294V17.063C80.7159 16.2563 80.5766 15.6807 80.2979 15.336C80.0192 14.984 79.5829 14.808 78.9889 14.808ZM85.5915 13.994C86.0975 13.994 86.5302 14.104 86.8895 14.324C87.2562 14.544 87.5348 14.8557 87.7255 15.259C87.9235 15.655 88.0225 16.1207 88.0225 16.656V17.239H83.9855C84.0002 17.9063 84.1688 18.416 84.4915 18.768C84.8215 19.1127 85.2798 19.285 85.8665 19.285C86.2405 19.285 86.5705 19.252 86.8565 19.186C87.1498 19.1127 87.4505 19.01 87.7585 18.878V19.725C87.4578 19.857 87.1608 19.9523 86.8675 20.011C86.5742 20.077 86.2258 20.11 85.8225 20.11C85.2652 20.11 84.7702 19.9963 84.3375 19.769C83.9122 19.5417 83.5785 19.2043 83.3365 18.757C83.1018 18.3023 82.9845 17.7487 82.9845 17.096C82.9845 16.4507 83.0908 15.897 83.3035 15.435C83.5235 14.973 83.8278 14.6173 84.2165 14.368C84.6125 14.1187 85.0708 13.994 85.5915 13.994ZM85.5805 14.786C85.1185 14.786 84.7518 14.9363 84.4805 15.237C84.2165 15.5303 84.0588 15.941 84.0075 16.469H87.0105C87.0032 15.9703 86.8858 15.567 86.6585 15.259C86.4312 14.9437 86.0718 14.786 85.5805 14.786ZM92.0535 13.994C92.1635 13.994 92.2808 14.0013 92.4055 14.016C92.5375 14.0233 92.6511 14.038 92.7465 14.06L92.6255 14.951C92.5301 14.929 92.4238 14.9107 92.3065 14.896C92.1965 14.8813 92.0901 14.874 91.9875 14.874C91.6868 14.874 91.4045 14.9583 91.1405 15.127C90.8765 15.2883 90.6638 15.5193 90.5025 15.82C90.3485 16.1133 90.2715 16.458 90.2715 16.854V20H89.3035V14.104H90.0955L90.2055 15.182H90.2495C90.4401 14.8593 90.6858 14.5807 90.9865 14.346C91.2871 14.1113 91.6428 13.994 92.0535 13.994ZM100.071 16.667C99.9755 16.3663 99.8912 16.073 99.8178 15.787C99.7518 15.4937 99.7005 15.2663 99.6638 15.105H99.6198C99.5905 15.2663 99.5428 15.4937 99.4768 15.787C99.4108 16.073 99.3265 16.37 99.2238 16.678L98.1678 19.989H97.0678L95.4508 14.093H96.4518L97.2658 17.239C97.3465 17.5543 97.4235 17.8733 97.4968 18.196C97.5702 18.5187 97.6215 18.7863 97.6508 18.999H97.6948C97.7242 18.8743 97.7572 18.7203 97.7938 18.537C97.8378 18.3537 97.8855 18.163 97.9368 17.965C97.9882 17.7597 98.0395 17.5763 98.0908 17.415L99.1358 14.093H100.192L101.204 17.415C101.285 17.6643 101.362 17.9357 101.435 18.229C101.516 18.5223 101.571 18.7753 101.6 18.988H101.644C101.666 18.8047 101.714 18.5517 101.787 18.229C101.868 17.9063 101.952 17.5763 102.04 17.239L102.865 14.093H103.855L102.216 19.989H101.083L100.071 16.667ZM106.925 14.005C107.644 14.005 108.176 14.1627 108.52 14.478C108.865 14.7933 109.037 15.2957 109.037 15.985V20H108.333L108.146 19.164H108.102C107.846 19.4867 107.574 19.725 107.288 19.879C107.01 20.033 106.621 20.11 106.122 20.11C105.587 20.11 105.143 19.9707 104.791 19.692C104.439 19.406 104.263 18.9623 104.263 18.361C104.263 17.7743 104.494 17.3233 104.956 17.008C105.418 16.6853 106.13 16.5093 107.09 16.48L108.091 16.447V16.095C108.091 15.6037 107.985 15.2627 107.772 15.072C107.56 14.8813 107.259 14.786 106.87 14.786C106.562 14.786 106.269 14.8337 105.99 14.929C105.712 15.017 105.451 15.1197 105.209 15.237L104.912 14.511C105.169 14.3717 105.473 14.2543 105.825 14.159C106.177 14.0563 106.544 14.005 106.925 14.005ZM107.211 17.151C106.478 17.1803 105.968 17.2977 105.682 17.503C105.404 17.7083 105.264 17.998 105.264 18.372C105.264 18.702 105.363 18.944 105.561 19.098C105.767 19.252 106.027 19.329 106.342 19.329C106.841 19.329 107.255 19.1933 107.585 18.922C107.915 18.6433 108.08 18.218 108.08 17.646V17.118L107.211 17.151ZM113.388 13.994C113.498 13.994 113.616 14.0013 113.74 14.016C113.872 14.0233 113.986 14.038 114.081 14.06L113.96 14.951C113.865 14.929 113.759 14.9107 113.641 14.896C113.531 14.8813 113.425 14.874 113.322 14.874C113.022 14.874 112.739 14.9583 112.475 15.127C112.211 15.2883 111.999 15.5193 111.837 15.82C111.683 16.1133 111.606 16.458 111.606 16.854V20H110.638V14.104H111.43L111.54 15.182H111.584C111.775 14.8593 112.021 14.5807 112.321 14.346C112.622 14.1113 112.978 13.994 113.388 13.994ZM117.8 13.994C118.504 13.994 119.036 14.1663 119.395 14.511C119.755 14.8483 119.934 15.3983 119.934 16.161V20H118.977V16.227C118.977 15.281 118.537 14.808 117.657 14.808C117.005 14.808 116.554 14.9913 116.304 15.358C116.055 15.7247 115.93 16.2527 115.93 16.942V20H114.962V14.104H115.743L115.886 14.907H115.941C116.132 14.599 116.396 14.3717 116.733 14.225C117.071 14.071 117.426 13.994 117.8 13.994ZM122.037 11.893C122.184 11.893 122.312 11.9443 122.422 12.047C122.539 12.1423 122.598 12.2963 122.598 12.509C122.598 12.7143 122.539 12.8683 122.422 12.971C122.312 13.0737 122.184 13.125 122.037 13.125C121.876 13.125 121.74 13.0737 121.63 12.971C121.52 12.8683 121.465 12.7143 121.465 12.509C121.465 12.2963 121.52 12.1423 121.63 12.047C121.74 11.9443 121.876 11.893 122.037 11.893ZM122.51 14.104V20H121.542V14.104H122.51ZM126.996 13.994C127.7 13.994 128.232 14.1663 128.591 14.511C128.95 14.8483 129.13 15.3983 129.13 16.161V20H128.173V16.227C128.173 15.281 127.733 14.808 126.853 14.808C126.2 14.808 125.749 14.9913 125.5 15.358C125.251 15.7247 125.126 16.2527 125.126 16.942V20H124.158V14.104H124.939L125.082 14.907H125.137C125.328 14.599 125.592 14.3717 125.929 14.225C126.266 14.071 126.622 13.994 126.996 13.994ZM132.828 13.994C133.216 13.994 133.565 14.0673 133.873 14.214C134.188 14.3607 134.456 14.5843 134.676 14.885H134.731L134.863 14.104H135.633V20.099C135.633 20.9423 135.416 21.5767 134.984 22.002C134.558 22.4273 133.895 22.64 132.993 22.64C132.127 22.64 131.42 22.5153 130.87 22.266V21.375C131.449 21.683 132.175 21.837 133.048 21.837C133.554 21.837 133.95 21.6867 134.236 21.386C134.529 21.0927 134.676 20.6893 134.676 20.176V19.945C134.676 19.857 134.679 19.7323 134.687 19.571C134.694 19.4023 134.701 19.285 134.709 19.219H134.665C134.269 19.813 133.66 20.11 132.839 20.11C132.076 20.11 131.478 19.8423 131.046 19.307C130.62 18.7717 130.408 18.0237 130.408 17.063C130.408 16.1243 130.62 15.38 131.046 14.83C131.478 14.2727 132.072 13.994 132.828 13.994ZM132.96 14.808C132.468 14.808 132.087 15.006 131.816 15.402C131.544 15.7907 131.409 16.348 131.409 17.074C131.409 17.8 131.541 18.3573 131.805 18.746C132.076 19.1273 132.468 19.318 132.982 19.318C133.576 19.318 134.008 19.1603 134.28 18.845C134.551 18.5223 134.687 18.0053 134.687 17.294V17.063C134.687 16.2563 134.547 15.6807 134.269 15.336C133.99 14.984 133.554 14.808 132.96 14.808ZM137.142 14.698C137.142 14.4193 137.208 14.225 137.34 14.115C137.472 14.005 137.63 13.95 137.813 13.95C138.004 13.95 138.165 14.005 138.297 14.115C138.437 14.225 138.506 14.4193 138.506 14.698C138.506 14.962 138.437 15.1527 138.297 15.27C138.165 15.3873 138.004 15.446 137.813 15.446C137.63 15.446 137.472 15.3873 137.34 15.27C137.208 15.1527 137.142 14.962 137.142 14.698ZM137.142 19.406C137.142 19.1347 137.208 18.944 137.34 18.834C137.472 18.724 137.63 18.669 137.813 18.669C138.004 18.669 138.165 18.724 138.297 18.834C138.437 18.944 138.506 19.1347 138.506 19.406C138.506 19.67 138.437 19.8607 138.297 19.978C138.165 20.0953 138.004 20.154 137.813 20.154C137.63 20.154 137.472 20.0953 137.34 19.978C137.208 19.8607 137.142 19.67 137.142 19.406Z" fill="white"/>
<path d="M64.293 36H62.885V32.513H59.431V36H58.023V28.146H59.431V31.314H62.885V28.146H64.293V36ZM68.3835 29.928C69.1828 29.928 69.8135 30.1663 70.2755 30.643C70.7448 31.1197 70.9795 31.7833 70.9795 32.634V33.338H67.0415C67.0561 33.8807 67.2065 34.3023 67.4925 34.603C67.7785 34.8963 68.1745 35.043 68.6805 35.043C69.0618 35.043 69.4065 35.0063 69.7145 34.933C70.0225 34.8523 70.3378 34.7387 70.6605 34.592V35.703C70.3671 35.8423 70.0628 35.945 69.7475 36.011C69.4321 36.077 69.0545 36.11 68.6145 36.11C68.0351 36.11 67.5181 36 67.0635 35.78C66.6161 35.5527 66.2641 35.2117 66.0075 34.757C65.7581 34.3023 65.6335 33.7377 65.6335 33.063C65.6335 32.0437 65.8865 31.2663 66.3925 30.731C66.8985 30.1957 67.5621 29.928 68.3835 29.928ZM68.3835 30.951C68.0095 30.951 67.7051 31.072 67.4705 31.314C67.2431 31.5487 67.1111 31.9007 67.0745 32.37H69.6375C69.6301 31.9593 69.5238 31.622 69.3185 31.358C69.1205 31.0867 68.8088 30.951 68.3835 30.951ZM74.5331 29.928C75.3031 29.928 75.8861 30.0967 76.2821 30.434C76.6854 30.7713 76.8871 31.292 76.8871 31.996V36H75.9081L75.6331 35.175H75.5891C75.3324 35.4977 75.0611 35.736 74.7751 35.89C74.4891 36.0367 74.1004 36.11 73.6091 36.11C73.0737 36.11 72.6301 35.9597 72.2781 35.659C71.9261 35.3583 71.7501 34.8927 71.7501 34.262C71.7501 33.646 71.9737 33.184 72.4211 32.876C72.8757 32.568 73.5614 32.3957 74.4781 32.359L75.5121 32.326V32.029C75.5121 31.655 75.4204 31.3873 75.2371 31.226C75.0537 31.0573 74.7971 30.973 74.4671 30.973C74.1664 30.973 73.8767 31.017 73.5981 31.105C73.3267 31.193 73.0554 31.2957 72.7841 31.413L72.3441 30.445C72.6374 30.291 72.9711 30.1663 73.3451 30.071C73.7264 29.9757 74.1224 29.928 74.5331 29.928ZM74.7861 33.206C74.1774 33.228 73.7557 33.3343 73.5211 33.525C73.2864 33.7083 73.1691 33.9577 73.1691 34.273C73.1691 34.559 73.2497 34.7643 73.4111 34.889C73.5797 35.0063 73.7997 35.065 74.0711 35.065C74.4744 35.065 74.8154 34.9513 75.0941 34.724C75.3727 34.4893 75.5121 34.1447 75.5121 33.69V33.184L74.7861 33.206ZM79.7789 36L77.5129 30.038H78.9759L80.1639 33.481C80.2372 33.6937 80.3032 33.9283 80.3619 34.185C80.4279 34.4417 80.4682 34.658 80.4829 34.834H80.5269C80.5489 34.6507 80.5929 34.4343 80.6589 34.185C80.7249 33.9283 80.7945 33.6937 80.8679 33.481L82.0559 30.038H83.5189L81.2529 36H79.7789ZM83.2977 30.038H84.8047L85.9927 33.404C86.0734 33.6167 86.1394 33.8257 86.1907 34.031C86.2421 34.2363 86.2787 34.4453 86.3007 34.658H86.3447C86.3741 34.4747 86.4181 34.273 86.4767 34.053C86.5354 33.833 86.6014 33.6167 86.6747 33.404L87.8187 30.038H89.3147L86.7737 36.792C86.5464 37.386 86.2347 37.8407 85.8387 38.156C85.4501 38.4787 84.9697 38.64 84.3977 38.64C84.2144 38.64 84.0567 38.629 83.9247 38.607C83.7927 38.5923 83.6754 38.574 83.5727 38.552V37.452C83.6534 37.4667 83.7487 37.4813 83.8587 37.496C83.9761 37.5107 84.0971 37.518 84.2217 37.518C84.5664 37.518 84.8377 37.4153 85.0357 37.21C85.2411 37.012 85.3987 36.7627 85.5087 36.462L85.6847 35.978L83.2977 30.038ZM94.9318 34.999C95.1004 34.999 95.2654 34.9843 95.4268 34.955C95.5954 34.9183 95.7494 34.878 95.8888 34.834V35.868C95.7421 35.934 95.5514 35.989 95.3168 36.033C95.0821 36.0843 94.8364 36.11 94.5798 36.11C94.2424 36.11 93.9344 36.055 93.6558 35.945C93.3771 35.8277 93.1571 35.6297 92.9958 35.351C92.8344 35.0723 92.7538 34.6837 92.7538 34.185V31.083H91.9508V30.478L92.8308 29.994L93.2708 28.729H94.1398V30.038H95.8338V31.083H94.1398V34.174C94.1398 34.4527 94.2131 34.6617 94.3598 34.801C94.5064 34.933 94.6971 34.999 94.9318 34.999ZM99.9945 29.928C100.09 29.928 100.193 29.9317 100.303 29.939C100.42 29.9463 100.519 29.961 100.6 29.983L100.479 31.27C100.405 31.2553 100.317 31.2443 100.215 31.237C100.112 31.2223 100.02 31.215 99.9395 31.215C99.6462 31.215 99.3712 31.2773 99.1145 31.402C98.8579 31.5193 98.6489 31.7063 98.4875 31.963C98.3335 32.2123 98.2565 32.5277 98.2565 32.909V36H96.8705V30.038H97.9375L98.1355 31.072H98.2015C98.3775 30.7567 98.6195 30.489 98.9275 30.269C99.2355 30.0417 99.5912 29.928 99.9945 29.928ZM103.646 29.928C104.416 29.928 104.999 30.0967 105.395 30.434C105.798 30.7713 106 31.292 106 31.996V36H105.021L104.746 35.175H104.702C104.445 35.4977 104.174 35.736 103.888 35.89C103.602 36.0367 103.213 36.11 102.722 36.11C102.186 36.11 101.743 35.9597 101.391 35.659C101.039 35.3583 100.863 34.8927 100.863 34.262C100.863 33.646 101.086 33.184 101.534 32.876C101.988 32.568 102.674 32.3957 103.591 32.359L104.625 32.326V32.029C104.625 31.655 104.533 31.3873 104.35 31.226C104.166 31.0573 103.91 30.973 103.58 30.973C103.279 30.973 102.989 31.017 102.711 31.105C102.439 31.193 102.168 31.2957 101.897 31.413L101.457 30.445C101.75 30.291 102.084 30.1663 102.458 30.071C102.839 29.9757 103.235 29.928 103.646 29.928ZM103.899 33.206C103.29 33.228 102.868 33.3343 102.634 33.525C102.399 33.7083 102.282 33.9577 102.282 34.273C102.282 34.559 102.362 34.7643 102.524 34.889C102.692 35.0063 102.912 35.065 103.184 35.065C103.587 35.065 103.928 34.9513 104.207 34.724C104.485 34.4893 104.625 34.1447 104.625 33.69V33.184L103.899 33.206ZM110.607 31.083H109.166V36H107.78V31.083H106.823V30.423L107.78 30.027V29.62C107.78 28.8573 107.96 28.3293 108.319 28.036C108.686 27.7353 109.185 27.585 109.815 27.585C110.101 27.585 110.362 27.6107 110.596 27.662C110.838 27.706 111.036 27.7573 111.19 27.816L110.838 28.85C110.714 28.8133 110.574 28.7803 110.42 28.751C110.274 28.7143 110.112 28.696 109.936 28.696C109.672 28.696 109.478 28.7803 109.353 28.949C109.229 29.1103 109.166 29.345 109.166 29.653V30.038H110.607V31.083ZM114.688 31.083H113.247V36H111.861V31.083H110.904V30.423L111.861 30.027V29.62C111.861 28.8573 112.041 28.3293 112.4 28.036C112.767 27.7353 113.266 27.585 113.896 27.585C114.182 27.585 114.443 27.6107 114.677 27.662C114.919 27.706 115.117 27.7573 115.271 27.816L114.919 28.85C114.795 28.8133 114.655 28.7803 114.501 28.751C114.355 28.7143 114.193 28.696 114.017 28.696C113.753 28.696 113.559 28.7803 113.434 28.949C113.31 29.1103 113.247 29.345 113.247 29.653V30.038H114.688V31.083ZM116.371 27.739C116.584 27.739 116.764 27.794 116.91 27.904C117.064 28.0067 117.141 28.1937 117.141 28.465C117.141 28.7363 117.064 28.927 116.91 29.037C116.764 29.147 116.584 29.202 116.371 29.202C116.159 29.202 115.975 29.147 115.821 29.037C115.675 28.927 115.601 28.7363 115.601 28.465C115.601 28.1937 115.675 28.0067 115.821 27.904C115.975 27.794 116.159 27.739 116.371 27.739ZM117.064 30.038V36H115.678V30.038H117.064ZM121.028 36.11C120.17 36.11 119.495 35.8643 119.004 35.373C118.512 34.8817 118.267 34.108 118.267 33.052C118.267 32.3187 118.388 31.7247 118.63 31.27C118.879 30.808 119.22 30.4707 119.653 30.258C120.085 30.038 120.58 29.928 121.138 29.928C121.512 29.928 121.845 29.9647 122.139 30.038C122.432 30.1113 122.681 30.1993 122.887 30.302L122.48 31.391C122.252 31.303 122.025 31.2297 121.798 31.171C121.57 31.105 121.35 31.072 121.138 31.072C120.17 31.072 119.686 31.7283 119.686 33.041C119.686 33.679 119.807 34.1593 120.049 34.482C120.298 34.8047 120.654 34.966 121.116 34.966C121.446 34.966 121.739 34.9257 121.996 34.845C122.252 34.7643 122.498 34.6543 122.733 34.515V35.714C122.505 35.846 122.26 35.945 121.996 36.011C121.739 36.077 121.416 36.11 121.028 36.11Z" fill="white"/>
<path d="M73.195 57H72.421V52.509C72.421 52.251 72.424 52.044 72.43 51.888C72.436 51.732 72.445 51.57 72.457 51.402C72.361 51.498 72.274 51.579 72.196 51.645C72.118 51.711 72.019 51.795 71.899 51.897L71.215 52.455L70.801 51.924L72.538 50.574H73.195V57ZM79.6774 53.778C79.6774 54.468 79.6054 55.062 79.4614 55.56C79.3174 56.052 79.0894 56.43 78.7774 56.694C78.4654 56.958 78.0514 57.09 77.5354 57.09C76.8094 57.09 76.2724 56.799 75.9244 56.217C75.5824 55.629 75.4114 54.816 75.4114 53.778C75.4114 53.082 75.4804 52.488 75.6184 51.996C75.7624 51.504 75.9904 51.129 76.3024 50.871C76.6144 50.607 77.0254 50.475 77.5354 50.475C78.2554 50.475 78.7924 50.766 79.1464 51.348C79.5004 51.924 79.6774 52.734 79.6774 53.778ZM76.2034 53.778C76.2034 54.66 76.3024 55.32 76.5004 55.758C76.7044 56.196 77.0494 56.415 77.5354 56.415C78.0154 56.415 78.3574 56.199 78.5614 55.767C78.7714 55.329 78.8764 54.666 78.8764 53.778C78.8764 52.902 78.7714 52.245 78.5614 51.807C78.3574 51.369 78.0154 51.15 77.5354 51.15C77.0494 51.15 76.7044 51.369 76.5004 51.807C76.3024 52.245 76.2034 52.902 76.2034 53.778ZM84.6208 57H80.3728V56.343L82.0558 54.642C82.3798 54.318 82.6528 54.03 82.8748 53.778C83.0968 53.526 83.2648 53.28 83.3788 53.04C83.4928 52.794 83.5498 52.527 83.5498 52.239C83.5498 51.885 83.4448 51.618 83.2348 51.438C83.0248 51.252 82.7518 51.159 82.4158 51.159C82.1038 51.159 81.8278 51.213 81.5878 51.321C81.3538 51.429 81.1138 51.579 80.8678 51.771L80.4448 51.24C80.6968 51.03 80.9848 50.853 81.3088 50.709C81.6388 50.559 82.0078 50.484 82.4158 50.484C83.0158 50.484 83.4898 50.637 83.8378 50.943C84.1858 51.243 84.3598 51.66 84.3598 52.194C84.3598 52.53 84.2908 52.845 84.1528 53.139C84.0148 53.433 83.8228 53.724 83.5768 54.012C83.3308 54.294 83.0428 54.597 82.7128 54.921L81.3718 56.244V56.28H84.6208V57ZM88.6261 57H87.8341V50.16H88.6261V57ZM90.3794 50.367C90.4994 50.367 90.6044 50.409 90.6944 50.493C90.7904 50.571 90.8384 50.697 90.8384 50.871C90.8384 51.039 90.7904 51.165 90.6944 51.249C90.6044 51.333 90.4994 51.375 90.3794 51.375C90.2474 51.375 90.1364 51.333 90.0464 51.249C89.9564 51.165 89.9114 51.039 89.9114 50.871C89.9114 50.697 89.9564 50.571 90.0464 50.493C90.1364 50.409 90.2474 50.367 90.3794 50.367ZM90.7664 52.176V57H89.9744V52.176H90.7664ZM92.8977 53.733C92.8977 53.829 92.8917 53.955 92.8797 54.111C92.8737 54.267 92.8677 54.402 92.8617 54.516H92.8977C92.9337 54.468 92.9877 54.399 93.0597 54.309C93.1317 54.219 93.2037 54.129 93.2757 54.039C93.3537 53.943 93.4197 53.865 93.4737 53.805L95.0127 52.176H95.9397L93.9867 54.237L96.0747 57H95.1207L93.4467 54.75L92.8977 55.227V57H92.1147V50.16H92.8977V53.733ZM98.6053 52.086C99.0193 52.086 99.3733 52.176 99.6673 52.356C99.9673 52.536 100.195 52.791 100.351 53.121C100.513 53.445 100.594 53.826 100.594 54.264V54.741H97.2913C97.3033 55.287 97.4413 55.704 97.7053 55.992C97.9753 56.274 98.3503 56.415 98.8303 56.415C99.1363 56.415 99.4063 56.388 99.6403 56.334C99.8803 56.274 100.126 56.19 100.378 56.082V56.775C100.132 56.883 99.8893 56.961 99.6493 57.009C99.4093 57.063 99.1243 57.09 98.7943 57.09C98.3383 57.09 97.9333 56.997 97.5793 56.811C97.2313 56.625 96.9583 56.349 96.7603 55.983C96.5683 55.611 96.4723 55.158 96.4723 54.624C96.4723 54.096 96.5593 53.643 96.7333 53.265C96.9133 52.887 97.1623 52.596 97.4803 52.392C97.8043 52.188 98.1793 52.086 98.6053 52.086ZM98.5963 52.734C98.2183 52.734 97.9183 52.857 97.6963 53.103C97.4803 53.343 97.3513 53.679 97.3093 54.111H99.7663C99.7603 53.703 99.6643 53.373 99.4783 53.121C99.2923 52.863 98.9983 52.734 98.5963 52.734ZM104.783 55.668C104.783 56.136 104.609 56.49 104.261 56.73C103.913 56.97 103.445 57.09 102.857 57.09C102.521 57.09 102.23 57.063 101.984 57.009C101.744 56.955 101.531 56.88 101.345 56.784V56.064C101.537 56.16 101.768 56.25 102.038 56.334C102.314 56.412 102.593 56.451 102.875 56.451C103.277 56.451 103.568 56.388 103.748 56.262C103.928 56.13 104.018 55.956 104.018 55.74C104.018 55.62 103.985 55.512 103.919 55.416C103.853 55.32 103.733 55.224 103.559 55.128C103.391 55.032 103.148 54.924 102.83 54.804C102.518 54.684 102.251 54.564 102.029 54.444C101.807 54.324 101.636 54.18 101.516 54.012C101.396 53.844 101.336 53.628 101.336 53.364C101.336 52.956 101.501 52.641 101.831 52.419C102.167 52.197 102.605 52.086 103.145 52.086C103.439 52.086 103.712 52.116 103.964 52.176C104.222 52.23 104.462 52.308 104.684 52.41L104.414 53.04C104.21 52.956 103.997 52.884 103.775 52.824C103.553 52.764 103.325 52.734 103.091 52.734C102.767 52.734 102.518 52.788 102.344 52.896C102.176 52.998 102.092 53.139 102.092 53.319C102.092 53.451 102.131 53.565 102.209 53.661C102.287 53.751 102.416 53.841 102.596 53.931C102.782 54.015 103.028 54.117 103.334 54.237C103.64 54.351 103.901 54.468 104.117 54.588C104.333 54.708 104.498 54.855 104.612 55.029C104.726 55.197 104.783 55.41 104.783 55.668Z" fill="white"/>
<path d="M61.4537 51.1539C61.2059 50.7984 60.8812 50.5087 60.5059 50.3083C60.1307 50.1078 59.7154 50.0022 59.2936 50C57.855 50 57 51.3958 57 52.7937C57 54.1916 58.1859 55.1485 58.6442 55.6302C59.1025 56.1119 61.2893 57.6147 61.4455 58C61.5996 57.6147 63.7782 56.1161 64.2447 55.6302C64.7112 55.1442 65.8889 54.1916 65.8889 52.7937C65.8889 51.3958 65.0504 50 63.6117 50C63.1903 50.0024 62.7753 50.1081 62.4004 50.3085C62.0255 50.509 61.7012 50.7986 61.4537 51.1539Z" stroke="white" stroke-width="0.8" stroke-linecap="round" stroke-linejoin="round"/>
</g>
<defs>
<filter id="filter0_d_156_5489" x="0" y="0" width="152" height="89.916" filterUnits="userSpaceOnUse" color-interpolation-filters="sRGB">
<feFlood flood-opacity="0" result="BackgroundImageFix"/>
<feColorMatrix in="SourceAlpha" type="matrix" values="0 0 0 0 0 0 0 0 0 0 0 0 0 0 0 0 0 0 127 0" result="hardAlpha"/>
<feOffset dy="4"/>
<feGaussianBlur stdDeviation="2"/>
<feComposite in2="hardAlpha" operator="out"/>
<feColorMatrix type="matrix" values="0 0 0 0 0 0 0 0 0 0 0 0 0 0 0 0 0 0 0.25 0"/>
<feBlend mode="normal" in2="BackgroundImageFix" result="effect1_dropShadow_156_5489"/>
<feBlend mode="normal" in="SourceGraphic" in2="effect1_dropShadow_156_5489" result="shape"/>
</filter>
<linearGradient id="paint0_linear_156_5489" x1="76" y1="0" x2="76" y2="81.9161" gradientUnits="userSpaceOnUse">
<stop stop-color="#5D59E9"/>
<stop offset="1" stop-color="#8826E4"/>
</linearGradient>
</defs>
</svg>
